<?xml version="1.0" encoding="utf-8"?>
<!-- Generator: Adobe Illustrator 16.0.0, SVG Export Plug-In . SVG Version: 6.00 Build 0)  -->
<!DOCTYPE svg PUBLIC "-//W3C//DTD SVG 1.1//EN" "http://www.w3.org/Graphics/SVG/1.1/DTD/svg11.dtd">
<svg version="1.1" id="floorPlan9" xmlns="http://www.w3.org/2000/svg" xmlns:xlink="http://www.w3.org/1999/xlink" x="0px" y="0px"
	 width="1590px" height="632px" viewBox="0 0 1590 632" enable-background="new 0 0 1590 632" xml:space="preserve">
<g>
	<g>
		<rect x="35.423" y="119.468" fill="#F7F8F8" width="86.337" height="120.308"/>
		<text transform="matrix(1.0004 0 0 1 57.6064 181.2832)"><tspan x="0" y="0" font-family="'MicrosoftYaHei'" font-size="13.9843">总经理</tspan><tspan x="0.188" y="20.977" font-family="'MicrosoftYaHei'" font-size="13.9843">B1024</tspan></text>
	</g>
	<g>
		<rect x="5.89" y="293.698" fill="#F7F8F8" width="126.211" height="106.856"/>
		<text transform="matrix(1.0004 0 0 1 48.1978 342.1309)"><tspan x="0" y="0" font-family="'MicrosoftYaHei'" font-size="13.9843">B1021</tspan><tspan x="-0.188" y="20.977" font-family="'MicrosoftYaHei'" font-size="13.9843">会议室</tspan></text>
	</g>
	<g>
		<rect x="135.926" y="293.698" fill="#F7F8F8" width="79.349" height="106.856"/>
		<text transform="matrix(1.0004 0 0 1 154.8027 332.3564)"><tspan x="0" y="0" font-family="'MicrosoftYaHei'" font-size="13.9843">B1019</tspan><tspan x="-0.188" y="20.977" font-family="'MicrosoftYaHei'" font-size="13.9843">总经理</tspan><tspan x="6.805" y="41.953" font-family="'MicrosoftYaHei'" font-size="13.9843">助理</tspan></text>
	</g>
	<g>
		<rect x="407.765" y="293.698" fill="#F7F8F8" width="164.887" height="109.16"/>
		<text transform="matrix(1.0004 0 0 1 469.4106 342.1309)"><tspan x="0" y="0" font-family="'MicrosoftYaHei'" font-size="13.9843">B1017</tspan><tspan x="-14.172" y="20.977" font-family="'MicrosoftYaHei'" font-size="13.9843">人力资源部</tspan></text>
	</g>
	<g>
		<rect x="577.355" y="293.698" fill="#F7F8F8" width="167.179" height="109.16"/>
		<text transform="matrix(1.0004 0 0 1 640.1475 342.1309)"><tspan x="0" y="0" font-family="'MicrosoftYaHei'" font-size="13.9843">B1015</tspan><tspan x="-21.164" y="20.977" font-family="'MicrosoftYaHei'" font-size="13.9843">综合部副部长</tspan></text>
	</g>
	<g>
		<rect x="749.351" y="293.698" fill="#F7F8F8" width="93.702" height="109.16"/>
		<text transform="matrix(1.0004 0 0 1 775.4033 342.1309)"><tspan x="0" y="0" font-family="'MicrosoftYaHei'" font-size="13.9843">B1013</tspan><tspan x="-0.188" y="20.977" font-family="'MicrosoftYaHei'" font-size="13.9843">综合部</tspan></text>
	</g>
	<g>
		<rect x="1486.911" y="293.698" fill="#F7F8F8" width="96.576" height="106.856"/>
		<text transform="matrix(1.0004 0 0 1 1514.4014 340.8467)"><tspan x="0" y="0" font-family="'MicrosoftYaHei'" font-size="13.9843">B1001</tspan><tspan x="-0.187" y="20.977" font-family="'MicrosoftYaHei'" font-size="13.9843">接待室</tspan></text>
	</g>
	<g>
		<rect x="912.143" y="293.698" fill="#F7F8F8" width="81.656" height="109.853"/>
		<text transform="matrix(1.0004 0 0 1 932.1729 340.8467)"><tspan x="0" y="0" font-family="'MicrosoftYaHei'" font-size="13.9843">B1011</tspan><tspan x="-0.187" y="20.977" font-family="'MicrosoftYaHei'" font-size="13.9843">企管部</tspan></text>
	</g>
	<g>
		<rect x="1415.939" y="293.698" fill="#F7F8F8" width="66.048" height="106.856"/>
		<text transform="matrix(1.0004 0 0 1 1428.165 340.8467)"><tspan x="0" y="0" font-family="'MicrosoftYaHei'" font-size="13.9843">B1003</tspan><tspan x="-0.187" y="20.977" font-family="'MicrosoftYaHei'" font-size="13.9843">接待室</tspan></text>
	</g>
	<g>
		<rect x="1082.684" y="293.698" fill="#F7F8F8" width="77.3" height="109.853"/>
		<text transform="matrix(1.0004 0 0 1 1103.877 333.3555)"><tspan x="0" y="0" font-family="'MicrosoftYaHei'" font-size="13.9843">B1007</tspan><tspan x="-0.187" y="20.977" font-family="'MicrosoftYaHei'" font-size="13.9843">综合部</tspan><tspan x="6.805" y="41.953" font-family="'MicrosoftYaHei'" font-size="13.9843">部长</tspan></text>
	</g>
	<g>
		<rect x="1164.808" y="293.698" fill="#F7F8F8" width="72.476" height="109.853"/>
		<text transform="matrix(1.0004 0 0 1 1180.6494 333.3555)"><tspan x="0" y="0" font-family="'MicrosoftYaHei'" font-size="13.9843">B1005</tspan><tspan x="-0.187" y="20.977" font-family="'MicrosoftYaHei'" font-size="13.9843">财务部</tspan><tspan x="6.805" y="41.953" font-family="'MicrosoftYaHei'" font-size="13.9843">部长</tspan></text>
	</g>
	<g>
		<rect x="999.299" y="293.698" fill="#F7F8F8" width="78.112" height="109.853"/>
		<text transform="matrix(1.0004 0 0 1 1014.8994 333.3555)"><tspan x="0" y="0" font-family="'MicrosoftYaHei'" font-size="13.9843">B1009</tspan><tspan x="-0.187" y="20.977" font-family="'MicrosoftYaHei'" font-size="13.9843">企管部</tspan><tspan x="6.805" y="41.953" font-family="'MicrosoftYaHei'" font-size="13.9843">部长</tspan></text>
	</g>
	<text transform="matrix(1.0004 0 0 1 307.3325 367.2373)" font-family="'MicrosoftYaHei'" font-size="13.9843">风机房</text>
	<text transform="matrix(1.0004 0 0 1 366.918 316.4575)" font-family="'MicrosoftYaHei'" font-size="13.9843">弱电</text>
	<text transform="matrix(1.0004 0 0 1 1262.5215 312.269)" font-family="'MicrosoftYaHei'" font-size="13.9843">弱电</text>
	<text transform="matrix(1.0004 0 0 1 1314.1973 312.269)" font-family="'MicrosoftYaHei'" font-size="13.9843">强电</text>
	<g>
		<rect x="126.085" y="119.468" fill="#F7F8F8" width="89.189" height="120.308"/>
		<text transform="matrix(1.0004 0 0 1 142.6997 181.2832)"><tspan x="0" y="0" font-family="'MicrosoftYaHei'" font-size="13.9843">副总经理</tspan><tspan x="7.18" y="20.977" font-family="'MicrosoftYaHei'" font-size="13.9843">B1022</tspan></text>
	</g>
	<g>
		<rect x="219.669" y="119.468" fill="#F7F8F8" width="82.555" height="120.308"/>
		<text transform="matrix(1.0004 0 0 1 232.9663 181.2832)"><tspan x="0" y="0" font-family="'MicrosoftYaHei'" font-size="13.9843">副总经理</tspan><tspan x="7.18" y="20.977" font-family="'MicrosoftYaHei'" font-size="13.9843">B1020</tspan></text>
	</g>
	<g>
		<rect x="307.05" y="119.468" fill="#F7F8F8" width="87.022" height="120.308"/>
		<text transform="matrix(1.0004 0 0 1 322.5801 181.2832)"><tspan x="0" y="0" font-family="'MicrosoftYaHei'" font-size="13.9843">纪委书记</tspan><tspan x="7.18" y="20.977" font-family="'MicrosoftYaHei'" font-size="13.9843">B1018</tspan></text>
	</g>
	<g>
		<rect x="398.57" y="119.468" fill="#F7F8F8" width="82.333" height="120.308"/>
		<text transform="matrix(1.0004 0 0 1 418.7505 181.2832)"><tspan x="0" y="0" font-family="'MicrosoftYaHei'" font-size="13.9843">党群部</tspan><tspan x="0.188" y="20.977" font-family="'MicrosoftYaHei'" font-size="13.9843">B1016</tspan></text>
	</g>
	<g>
		<rect x="485.727" y="119.468" fill="#F7F8F8" width="88.354" height="120.308"/>
		<text transform="matrix(1.0004 0 0 1 494.9272 181.2832)"><tspan x="0" y="0" font-family="'MicrosoftYaHei'" font-size="13.9843">党群部部长</tspan><tspan x="14.172" y="20.977" font-family="'MicrosoftYaHei'" font-size="13.9843">B1014</tspan></text>
	</g>
	<g>
		<rect x="1074.27" y="119.468" fill="#F7F8F8" width="121.767" height="120.308"/>
		<text transform="matrix(1.0004 0 0 1 1100.1768 181.2832)"><tspan x="0" y="0" font-family="'MicrosoftYaHei'" font-size="13.9843">投资财务部</tspan><tspan x="14.172" y="20.977" font-family="'MicrosoftYaHei'" font-size="13.9843">B1008</tspan></text>
	</g>
	<g>
		<rect x="1201.447" y="119.468" fill="#F7F8F8" width="117.229" height="120.308"/>
		<text transform="matrix(1.0004 0 0 1 1232.0811 181.2832)"><tspan x="0" y="0" font-family="'MicrosoftYaHei'" font-size="13.9843">总会计师</tspan><tspan x="7.179" y="20.977" font-family="'MicrosoftYaHei'" font-size="13.9843">B1006</tspan></text>
	</g>
	<g>
		<rect x="1322.726" y="119.468" fill="#F7F8F8" width="118.591" height="120.308"/>
		<text transform="matrix(1.0004 0 0 1 1347.0439 181.2832)"><tspan x="0" y="0" font-family="'MicrosoftYaHei'" font-size="13.9843">党委副书记</tspan><tspan x="14.173" y="20.977" font-family="'MicrosoftYaHei'" font-size="13.9843">B1004</tspan></text>
	</g>
	<g>
		<rect x="1446.14" y="119.468" fill="#F7F8F8" width="121.157" height="120.308"/>
		<text transform="matrix(1.0004 0 0 1 1485.7334 181.2832)"><tspan x="0" y="0" font-family="'MicrosoftYaHei'" font-size="13.9843">董事长</tspan><tspan x="0.187" y="20.977" font-family="'MicrosoftYaHei'" font-size="13.9843">B1002</tspan></text>
	</g>
	<g>
		<rect x="657.026" y="71.639" fill="#F7F8F8" width="336.274" height="167.637"/>
		<text transform="matrix(1.0004 0 0 1 791.584 159.6665)" font-family="'MicrosoftYaHei'" font-size="13.9843">B10会议室</text>
		<text transform="matrix(1.0004 0 0 1 676.9199 229.9946)" font-family="'MicrosoftYaHei'" font-size="13.9843">B1012</text>
		<text transform="matrix(1.0004 0 0 1 930.6055 229.9946)" font-family="'MicrosoftYaHei'" font-size="13.9843">B1010</text>
	</g>
	<path fill="#A0A0A0" d="M1487.803,401.214h-4.824V288.513h4.824V401.214z M1483.978,400.215h2.826V289.512h-2.826V400.215z"/>
	<g>
		<rect x="215.345" y="126.564" fill="#A0A0A0" width="1" height="103.431"/>
		<rect x="219.17" y="126.564" fill="#A0A0A0" width="0.999" height="103.431"/>
	</g>
	<g>
		<rect x="121.761" y="119.468" fill="#A0A0A0" width="1" height="123.632"/>
		<rect x="125.586" y="119.468" fill="#A0A0A0" width="1" height="123.632"/>
	</g>
	<rect x="132.101" y="289.012" fill="#A0A0A0" width="0.999" height="111.543"/>
	<rect x="135.926" y="289.012" fill="#A0A0A0" width="1" height="111.543"/>
	<rect x="275.275" y="289.012" fill="#A0A0A0" width="1" height="111.543"/>
	<rect x="279.101" y="292.51" fill="#A0A0A0" width="0.999" height="108.045"/>
	<rect x="215.345" y="292.485" fill="#A0A0A0" width="1" height="39.557"/>
	<rect x="219.17" y="289.161" fill="#A0A0A0" width="0.999" height="42.881"/>
	<g>
		<rect x="353.185" y="292.498" fill="#A0A0A0" width="1" height="39.544"/>
		<rect x="357.01" y="292.498" fill="#A0A0A0" width="0.999" height="39.544"/>
	</g>
	<rect x="97.539" y="239.275" fill="#A0A0A0" width="1" height="4.823"/>
	<rect x="679.023" y="239.275" fill="#A0A0A0" width="1" height="4.823"/>
	<rect x="600.074" y="288.652" fill="#A0A0A0" width="0.999" height="4.822"/>
	<rect x="548.072" y="288.652" fill="#A0A0A0" width="0.999" height="4.822"/>
	<rect x="772.508" y="288.652" fill="#A0A0A0" width="1" height="4.822"/>
	<rect x="970.291" y="288.652" fill="#A0A0A0" width="0.999" height="4.822"/>
	<rect x="969.1" y="239.275" fill="#A0A0A0" width="0.999" height="4.823"/>
	<rect x="1167.506" y="239.275" fill="#A0A0A0" width="0.999" height="4.823"/>
	<rect x="1021.537" y="288.652" fill="#A0A0A0" width="0.999" height="4.822"/>
	<rect x="1588.605" y="288.662" fill="#A0A0A0" width="0.999" height="4.822"/>
	<rect x="994.475" y="289.012" fill="#A0A0A0" width="4.825" height="0.999"/>
	<rect x="1159.983" y="289.012" fill="#A0A0A0" width="4.825" height="0.999"/>
	<rect x="572.152" y="289.012" fill="#A0A0A0" width="4.825" height="0.999"/>
	<g>
		<rect x="403.268" y="293.378" fill="#A0A0A0" width="0.999" height="107.177"/>
		<rect x="407.092" y="293.378" fill="#A0A0A0" width="1" height="107.177"/>
	</g>
	<g>
		<rect x="572.152" y="289.012" fill="#A0A0A0" width="1" height="111.543"/>
		<rect x="575.977" y="289.012" fill="#A0A0A0" width="0.999" height="111.543"/>
	</g>
	<rect x="744.534" y="292.485" fill="#A0A0A0" width="1" height="108.069"/>
	<rect x="748.359" y="289.012" fill="#A0A0A0" width="0.999" height="111.543"/>
	<rect x="843.053" y="292.485" fill="#A0A0A0" width="0.999" height="140.752"/>
	<rect x="846.878" y="289.012" fill="#A0A0A0" width="1" height="144.226"/>
	<rect x="843.053" y="458.345" fill="#A0A0A0" width="0.999" height="43.928"/>
	<rect x="846.878" y="458.345" fill="#A0A0A0" width="1" height="45.013"/>
	<rect x="994.475" y="289.012" fill="#A0A0A0" width="0.999" height="114.743"/>
	<rect x="998.299" y="289.012" fill="#A0A0A0" width="1" height="114.743"/>
	<rect x="1077.411" y="292.485" fill="#A0A0A0" width="0.999" height="108.069"/>
	<rect x="1081.235" y="289.012" fill="#A0A0A0" width="0.999" height="111.543"/>
	<g>
		<rect x="1159.983" y="289.194" fill="#A0A0A0" width="0.999" height="114.356"/>
		<rect x="1163.808" y="289.194" fill="#A0A0A0" width="1" height="114.356"/>
	</g>
	<rect x="1237.283" y="292.485" fill="#A0A0A0" width="0.999" height="90.298"/>
	<rect x="1241.107" y="292.485" fill="#A0A0A0" width="0.999" height="90.298"/>
	<rect x="1348.898" y="292.985" fill="#A0A0A0" width="1" height="27.458"/>
	<rect x="1411.116" y="292.985" fill="#A0A0A0" width="0.999" height="26.187"/>
	<rect x="1414.94" y="292.985" fill="#A0A0A0" width="0.999" height="26.187"/>
	<rect x="1396.213" y="289.36" fill="#A0A0A0" width="1" height="34.385"/>
	<rect x="1400.038" y="292.522" fill="#A0A0A0" width="0.999" height="31.223"/>
	<rect x="1248.312" y="292.486" fill="#A0A0A0" width="0.999" height="31.259"/>
	<g>
		<rect x="394.245" y="126.564" fill="#A0A0A0" width="1" height="103.431"/>
		<rect x="398.07" y="126.564" fill="#A0A0A0" width="1" height="103.431"/>
	</g>
	<rect x="652.541" y="126.564" fill="#A0A0A0" width="1" height="113.784"/>
	<rect x="656.366" y="126.564" fill="#A0A0A0" width="0.999" height="117.534"/>
	<rect x="993.3" y="126.564" fill="#A0A0A0" width="0.999" height="117.034"/>
	<rect x="997.125" y="126.564" fill="#A0A0A0" width="0.999" height="113.598"/>
	<g>
		<rect x="574.081" y="163.2" fill="#A0A0A0" width="1" height="44.392"/>
		<rect x="577.906" y="163.2" fill="#A0A0A0" width="1" height="44.392"/>
	</g>
	<g>
		<rect x="1069.381" y="163.2" fill="#A0A0A0" width="0.999" height="44.1"/>
		<rect x="1073.206" y="163.2" fill="#A0A0A0" width="0.999" height="44.1"/>
	</g>
	<g>
		<rect x="1196.036" y="126.564" fill="#A0A0A0" width="0.999" height="103.431"/>
		<rect x="1199.86" y="126.564" fill="#A0A0A0" width="0.999" height="103.431"/>
	</g>
	<g>
		<rect x="1318.677" y="126.564" fill="#A0A0A0" width="0.999" height="103.431"/>
		<rect x="1322.501" y="126.564" fill="#A0A0A0" width="0.999" height="103.431"/>
	</g>
	<g>
		<rect x="1441.316" y="126.564" fill="#A0A0A0" width="0.999" height="103.431"/>
		<rect x="1445.141" y="126.564" fill="#A0A0A0" width="0.999" height="103.431"/>
	</g>
	<rect x="43.453" y="243.1" fill="#A0A0A0" width="55.085" height="0.999"/>
	<rect x="43.453" y="239.275" fill="#A0A0A0" width="55.085" height="0.999"/>
	<rect x="149.822" y="239.275" fill="#A0A0A0" width="1" height="4.823"/>
	<rect x="149.822" y="243.1" fill="#A0A0A0" width="59.896" height="0.999"/>
	<rect x="149.822" y="239.275" fill="#A0A0A0" width="59.896" height="0.999"/>
	<rect x="159.831" y="292.485" fill="#A0A0A0" width="56.514" height="0.999"/>
	<rect x="159.831" y="288.662" fill="#A0A0A0" width="60.338" height="0.998"/>
	<rect x="279.101" y="292.485" fill="#A0A0A0" width="15.214" height="0.999"/>
	<rect x="275.233" y="288.662" fill="#A0A0A0" width="19.082" height="0.998"/>
	<rect x="328.318" y="292.485" fill="#A0A0A0" width="25.866" height="0.999"/>
	<rect x="358.009" y="292.485" fill="#A0A0A0" width="3.994" height="0.999"/>
	<rect x="328.318" y="288.662" fill="#A0A0A0" width="33.685" height="0.998"/>
	<rect x="407.092" y="292.485" fill="#A0A0A0" width="141.979" height="0.999"/>
	<rect x="395.118" y="292.485" fill="#A0A0A0" width="9.148" height="0.999"/>
	<rect x="395.118" y="288.662" fill="#A0A0A0" width="153.953" height="0.998"/>
	<rect x="600.074" y="292.485" fill="#A0A0A0" width="145.459" height="0.999"/>
	<rect x="600.074" y="288.662" fill="#A0A0A0" width="149.284" height="0.998"/>
	<rect x="772.508" y="292.485" fill="#A0A0A0" width="71.544" height="0.999"/>
	<rect x="772.508" y="288.662" fill="#A0A0A0" width="75.404" height="0.998"/>
	<rect x="908.317" y="289.012" fill="#A0A0A0" width="1" height="111.543"/>
	<rect x="912.143" y="293.484" fill="#A0A0A0" width="0.999" height="107.07"/>
	<rect x="912.143" y="292.485" fill="#A0A0A0" width="59.147" height="0.999"/>
	<rect x="908.317" y="288.662" fill="#A0A0A0" width="62.973" height="0.998"/>
	<rect x="1021.783" y="292.485" fill="#A0A0A0" width="56.277" height="0.999"/>
	<rect x="1021.783" y="288.662" fill="#A0A0A0" width="60.451" height="0.998"/>
	<rect x="1237.283" y="288.662" fill="#A0A0A0" width="26.618" height="0.998"/>
	<rect x="1304.165" y="292.485" fill="#A0A0A0" width="10.108" height="0.999"/>
	<rect x="41.781" y="292.485" fill="#A0A0A0" width="67.333" height="0.999"/>
	<rect x="41.781" y="288.662" fill="#A0A0A0" width="67.333" height="0.998"/>
	<line fill="none" stroke="#231815" stroke-miterlimit="10" x1="43.453" y1="119.468" x2="209.718" y2="119.468"/>
	<line fill="none" stroke="#231815" stroke-miterlimit="10" x1="223.917" y1="119.468" x2="390.182" y2="119.468"/>
	<line fill="none" stroke="#231815" stroke-miterlimit="10" x1="407.592" y1="403.568" x2="845.215" y2="403.568"/>
	<line fill="none" stroke="#231815" stroke-miterlimit="10" x1="910.103" y1="403.568" x2="1251.369" y2="403.568"/>
	<line fill="none" stroke="#231815" stroke-miterlimit="10" x1="402.595" y1="119.468" x2="568.859" y2="119.468"/>
	<line fill="none" stroke="#231815" stroke-miterlimit="10" x1="1082.908" y1="119.467" x2="1567.297" y2="119.467"/>
	<rect x="579.173" y="243.1" fill="#A0A0A0" width="77.853" height="0.999"/>
	<rect x="579.173" y="239.275" fill="#A0A0A0" width="73.868" height="0.999"/>
	<rect x="679.023" y="243.1" fill="#A0A0A0" width="291.075" height="0.999"/>
	<rect x="679.023" y="239.275" fill="#A0A0A0" width="291.075" height="0.999"/>
	<rect x="1074.975" y="243.1" fill="#A0A0A0" width="93.53" height="0.999"/>
	<rect x="1074.975" y="239.275" fill="#A0A0A0" width="93.53" height="0.999"/>
	<rect x="993.3" y="243.1" fill="#A0A0A0" width="80.97" height="0.999"/>
	<rect x="997.125" y="239.275" fill="#A0A0A0" width="77.145" height="0.999"/>
	<g>
		<rect x="1228.285" y="243.1" fill="#A0A0A0" width="92.803" height="0.999"/>
		<rect x="1228.285" y="239.275" fill="#A0A0A0" width="92.803" height="0.999"/>
	</g>
	<rect x="1510.344" y="292.485" fill="#A0A0A0" width="79.261" height="0.999"/>
	<rect x="1510.344" y="288.662" fill="#A0A0A0" width="79.261" height="0.998"/>
	<rect x="1400.038" y="292.485" fill="#A0A0A0" width="12.077" height="0.999"/>
	<rect x="1414.94" y="292.485" fill="#A0A0A0" width="45.257" height="0.999"/>
	<rect x="1396.274" y="288.662" fill="#A0A0A0" width="63.923" height="0.998"/>
	<g>
		<line fill="none" stroke="#231815" stroke-miterlimit="10" x1="748.858" y1="632" x2="748.858" y2="407.122"/>
		<line fill="none" stroke="#231815" stroke-miterlimit="10" x1="742.012" y1="632" x2="742.012" y2="407.122"/>
	</g>
	<line fill="none" stroke="#231815" stroke-miterlimit="10" x1="921.062" y1="632" x2="921.062" y2="406.652"/>
	<g>
		<line fill="none" stroke="#231815" stroke-miterlimit="10" x1="843.516" y1="529.761" x2="748.858" y2="529.761"/>
		<line fill="none" stroke="#231815" stroke-miterlimit="10" x1="843.516" y1="536.604" x2="748.858" y2="536.604"/>
	</g>
	<path fill="#A0A0A0" d="M847.376,630.23h-4.825V525.068h4.825V630.23z M843.551,629.231h2.826V526.067h-2.826V629.231z"/>
	<rect x="1288.781" y="288.662" fill="#A0A0A0" width="24.113" height="0.998"/>
	<rect x="1288.781" y="292.485" fill="#A0A0A0" width="12.401" height="0.999"/>
	<rect x="1252.636" y="292.485" fill="#A0A0A0" width="12.401" height="0.999"/>
	<rect x="1241.607" y="292.485" fill="#A0A0A0" width="7.747" height="0.999"/>
	<rect x="1304.165" y="292.485" fill="#A0A0A0" width="8.974" height="0.999"/>
	<rect x="1337.768" y="292.485" fill="#A0A0A0" width="12.131" height="0.999"/>
	<rect x="1331.902" y="323.351" fill="#A0A0A0" width="21.559" height="0.998"/>
	<rect x="1300.237" y="292.486" fill="#A0A0A0" width="0.999" height="26.417"/>
	<rect x="1304.062" y="292.486" fill="#A0A0A0" width="0.999" height="26.417"/>
	<rect x="1348.898" y="292.486" fill="#A0A0A0" width="1" height="27.957"/>
	<rect x="1352.697" y="288.662" fill="#A0A0A0" width="0.999" height="35.723"/>
	<rect x="1337.768" y="288.662" fill="#A0A0A0" width="15.929" height="0.998"/>
	<rect x="1328.286" y="319.526" fill="#A0A0A0" width="21.56" height="0.999"/>
	<rect x="1252.136" y="292.486" fill="#A0A0A0" width="1" height="26.417"/>
	<rect x="108.115" y="288.662" fill="#A0A0A0" width="1" height="4.822"/>
	<rect x="159.831" y="288.662" fill="#A0A0A0" width="1" height="4.822"/>
	<rect x="132.101" y="289.012" fill="#A0A0A0" width="4.825" height="0.999"/>
	<rect x="1412.754" y="239.275" fill="#A0A0A0" width="0.999" height="4.823"/>
	<rect x="1320.223" y="243.1" fill="#A0A0A0" width="93.53" height="0.999"/>
	<rect x="1320.223" y="239.275" fill="#A0A0A0" width="93.53" height="0.999"/>
	<g>
		<rect x="1473.533" y="243.1" fill="#A0A0A0" width="92.803" height="0.999"/>
		<rect x="1473.533" y="239.275" fill="#A0A0A0" width="92.803" height="0.999"/>
	</g>
	<g>
		<rect x="302.225" y="119.468" fill="#A0A0A0" width="1" height="123.632"/>
		<rect x="306.05" y="119.468" fill="#A0A0A0" width="1" height="123.632"/>
	</g>
	<rect x="278.003" y="239.275" fill="#A0A0A0" width="1" height="4.823"/>
	<rect x="223.917" y="243.1" fill="#A0A0A0" width="55.085" height="0.999"/>
	<rect x="223.917" y="239.275" fill="#A0A0A0" width="55.085" height="0.999"/>
	<rect x="330.286" y="239.275" fill="#A0A0A0" width="1" height="4.823"/>
	<rect x="330.286" y="243.1" fill="#A0A0A0" width="59.896" height="0.999"/>
	<rect x="330.286" y="239.275" fill="#A0A0A0" width="59.896" height="0.999"/>
	<g>
		<rect x="480.902" y="119.468" fill="#A0A0A0" width="0.999" height="123.632"/>
		<rect x="484.728" y="119.468" fill="#A0A0A0" width="0.999" height="123.632"/>
	</g>
	<rect x="456.681" y="239.275" fill="#A0A0A0" width="0.999" height="4.823"/>
	<rect x="402.595" y="243.1" fill="#A0A0A0" width="55.085" height="0.999"/>
	<rect x="402.595" y="239.275" fill="#A0A0A0" width="55.085" height="0.999"/>
	<rect x="508.964" y="239.275" fill="#A0A0A0" width="0.999" height="4.823"/>
	<rect x="508.964" y="243.1" fill="#A0A0A0" width="59.896" height="0.999"/>
	<rect x="508.964" y="239.275" fill="#A0A0A0" width="59.896" height="0.999"/>
	<rect x="801.245" y="458.345" fill="#A0A0A0" width="46.133" height="2.177"/>
	<rect x="801.245" y="458.345" fill="#A0A0A0" width="2.179" height="45.493"/>
	<rect x="801.245" y="403.568" fill="#A0A0A0" width="2.179" height="22.34"/>
	<rect x="1136.143" y="288.662" fill="#A0A0A0" width="0.999" height="4.822"/>
	<rect x="1188.005" y="288.662" fill="#A0A0A0" width="1" height="4.822"/>
	<rect x="44.651" y="400.485" fill="#357540" width="172.131" height="6.167"/>
	<rect x="1408.74" y="400.485" fill="#357540" width="180.917" height="6.167"/>
	<rect x="651.868" y="65.472" fill="#357540" width="346.93" height="6.167"/>
	<rect x="-0.28" y="400.485" fill="#357540" width="29.534" height="6.167"/>
	<rect x="579.578" y="142.053" fill="#357540" width="78.46" height="6.167"/>
	<rect x="994.974" y="142.053" fill="#357540" width="73.734" height="6.167"/>
	<rect x="-0.28" y="287.531" fill="#357540" width="43.733" height="6.167"/>
	<rect x="-0.28" y="290.614" fill="#357540" width="6.17" height="116.036"/>
	<rect x="1583.487" y="290.614" fill="#357540" width="6.17" height="116.036"/>
	<rect x="651.868" y="65.472" fill="#357540" width="6.17" height="82.748"/>
	<rect x="992.628" y="65.472" fill="#357540" width="6.17" height="82.748"/>
	<path fill="#357540" d="M353.227,439.128c0,5.516-4.474,9.988-9.993,9.988h-46.538c-5.519,0-9.993-4.473-9.993-9.988v-10.564
		c0-5.517,4.475-9.989,9.993-9.989h46.538c5.519,0,9.993,4.473,9.993,9.989V439.128z"/>
	<text transform="matrix(1.0004 0 0 1 52.6709 273.6675)" font-family="'MicrosoftYaHei'" font-size="21.9753">走道</text>
	<text transform="matrix(1.0004 0 0 1 295.981 437.4531)" font-family="'MicrosoftYaHei'" font-size="11.9866">安全出口</text>
	<text transform="matrix(1.0004 0 0 1 811.4648 419.6357)" font-family="'MicrosoftYaHei'" font-size="11.9866">水井</text>
	<text transform="matrix(1.0004 0 0 1 811.4648 476.875)" font-family="'MicrosoftYaHei'" font-size="11.9866">开水</text>
	<text transform="matrix(1.0004 0 0 1 318.7759 273.6675)" font-family="'MicrosoftYaHei'" font-size="21.9753">走道</text>
	<text transform="matrix(1.0004 0 0 1 680.0229 273.6675)" font-family="'MicrosoftYaHei'" font-size="21.9753">走道</text>
	<text transform="matrix(1.0004 0 0 1 856.3271 407.1221)" font-family="'MicrosoftYaHei'" font-size="21.9753">走道</text>
	<text transform="matrix(1.0004 0 0 1 862.3232 603.3926)" font-family="'MicrosoftYaHei'" font-size="21.9753">走道</text>
	<text transform="matrix(1.0004 0 0 1 1248.3105 273.6675)" font-family="'MicrosoftYaHei'" font-size="21.9753">走道</text>
	<text transform="matrix(1.0004 0 0 1 1015.4707 273.6675)" font-family="'MicrosoftYaHei'" font-size="21.9753">走道</text>
	<text transform="matrix(1.0004 0 0 1 1499.1982 273.6675)" font-family="'MicrosoftYaHei'" font-size="21.9753">走道</text>
	<rect x="123.652" y="265.615" fill="#357540" width="127.808" height="2.876"/>
	<rect x="248.583" y="432.407" fill="#357540" width="16.475" height="2.876"/>
	<rect x="248.583" y="265.676" fill="#357540" width="2.877" height="167.304"/>
	<polygon fill="#357540" points="265.058,427.387 281.812,433.847 265.058,440.305 	"/>
	<path fill="#357540" d="M1269.043,439.128c0,5.516,4.473,9.988,9.992,9.988h46.537c5.52,0,9.993-4.473,9.993-9.988v-10.564
		c0-5.517-4.474-9.989-9.993-9.989h-46.537c-5.52,0-9.992,4.473-9.992,9.989V439.128z"/>
	<text transform="matrix(1.0004 0 0 1 1278.3203 437.4531)" font-family="'MicrosoftYaHei'" font-size="11.9866">安全出口</text>
	<rect x="1367.992" y="265.615" fill="#357540" width="69.577" height="2.876"/>
	<rect x="1357.013" y="432.407" fill="#357540" width="13.856" height="2.876"/>
	<rect x="1367.992" y="265.676" fill="#357540" width="2.877" height="167.304"/>
	<polygon fill="#357540" points="1357.013,427.387 1340.26,433.847 1357.013,440.305 	"/>
	<rect x="783.711" y="265.613" fill="#357540" width="81.518" height="2.876"/>
	<polygon fill="#357540" points="783.711,260.594 766.958,267.053 783.711,273.512 	"/>
	<rect x="862.35" y="265.615" fill="#357540" width="2.877" height="81.482"/>
	<polygon fill="#357540" points="857.327,347.098 863.79,363.843 870.25,347.098 	"/>
	<rect x="889.371" y="265.613" fill="#357540" width="81.518" height="2.876"/>
	<polygon fill="#357540" points="970.889,260.594 987.642,267.053 970.889,273.512 	"/>
	<rect x="1100.313" y="265.613" fill="#357540" width="81.518" height="2.876"/>
	<polygon fill="#357540" points="1181.83,260.594 1198.583,267.053 1181.83,273.512 	"/>
	<rect x="889.374" y="265.615" fill="#357540" width="2.877" height="81.482"/>
	<polygon fill="#357540" points="897.272,347.098 890.811,363.843 884.35,347.098 	"/>
	<g>
		<rect x="882.87" y="449.116" fill="#357540" width="2.877" height="81.483"/>
		<polygon fill="#357540" points="890.77,530.6 884.307,547.344 877.847,530.6 		"/>
	</g>
	<rect x="441.112" y="265.615" fill="#357540" width="210.752" height="2.876"/>
	<polygon fill="#357540" points="441.112,260.594 424.359,267.053 441.112,273.512 	"/>
	<g>
		<g>
			<rect x="1433.152" y="224.769" fill="#231815" width="2.444" height="19.42"/>
			<path fill="none" stroke="#231815" stroke-width="0.95" stroke-miterlimit="10" d="M1413.857,242.77
				c0.055,2.251-1.079-15.441,21.321-17.36"/>
		</g>
		<g>
			<rect x="1451.794" y="224.769" fill="#231815" width="2.444" height="19.42"/>
			<path fill="none" stroke="#231815" stroke-width="0.95" stroke-miterlimit="10" d="M1473.533,242.77
				c-0.055,2.251,1.079-15.441-21.32-17.36"/>
		</g>
	</g>
	<g>
		<rect x="118.318" y="224.769" fill="#231815" width="2.444" height="19.42"/>
		<path fill="none" stroke="#231815" stroke-width="0.95" stroke-miterlimit="10" d="M99.023,242.77
			c0.054,2.251-1.08-15.441,21.32-17.36"/>
	</g>
	<g>
		<rect x="127.566" y="224.769" fill="#231815" width="2.444" height="19.42"/>
		<path fill="none" stroke="#231815" stroke-width="0.95" stroke-miterlimit="10" d="M149.305,242.77
			c-0.054,2.251,1.08-15.441-21.32-17.36"/>
	</g>
	<g>
		<rect x="298.782" y="224.769" fill="#231815" width="2.444" height="19.42"/>
		<path fill="none" stroke="#231815" stroke-width="0.95" stroke-miterlimit="10" d="M279.487,242.77
			c0.054,2.251-1.08-15.441,21.32-17.36"/>
	</g>
	<g>
		<rect x="308.03" y="224.769" fill="#231815" width="2.444" height="19.42"/>
		<path fill="none" stroke="#231815" stroke-width="0.95" stroke-miterlimit="10" d="M329.769,242.77
			c-0.054,2.251,1.08-15.441-21.32-17.36"/>
	</g>
	<g>
		<g>
			<rect x="477.459" y="224.769" fill="#231815" width="2.443" height="19.42"/>
			<path fill="none" stroke="#231815" stroke-width="0.95" stroke-miterlimit="10" d="M458.165,242.77
				c0.054,2.251-1.08-15.441,21.32-17.36"/>
		</g>
		<g>
			<rect x="486.708" y="224.769" fill="#231815" width="2.443" height="19.42"/>
			<path fill="none" stroke="#231815" stroke-width="0.95" stroke-miterlimit="10" d="M508.446,242.77
				c-0.054,2.251,1.08-15.441-21.32-17.36"/>
		</g>
	</g>
	<g>
		<rect x="326.476" y="278.662" fill="#231815" width="1.843" height="14.776"/>
		<path fill="none" stroke="#231815" stroke-width="0.95" stroke-miterlimit="10" d="M311.927,292.359
			c0.041,1.712-0.814-11.75,16.075-13.209"/>
	</g>
	<g>
		<rect x="1187.904" y="224.769" fill="#231815" width="2.444" height="19.42"/>
		<path fill="none" stroke="#231815" stroke-width="0.95" stroke-miterlimit="10" d="M1168.609,242.77
			c0.055,2.251-1.079-15.441,21.321-17.36"/>
	</g>
	<g>
		<rect x="294.407" y="278.662" fill="#231815" width="1.843" height="14.776"/>
		<path fill="none" stroke="#231815" stroke-width="0.95" stroke-miterlimit="10" d="M310.798,292.359
			c-0.041,1.712,0.814-11.75-16.076-13.209"/>
	</g>
	<g>
		<rect x="394.072" y="278.662" fill="#231815" width="1.842" height="14.776"/>
		<path fill="none" stroke="#231815" stroke-width="0.95" stroke-miterlimit="10" d="M379.523,292.359
			c0.041,1.712-0.814-11.75,16.075-13.209"/>
	</g>
	<g>
		<rect x="362.003" y="278.662" fill="#231815" width="1.842" height="14.776"/>
		<path fill="none" stroke="#231815" stroke-width="0.95" stroke-miterlimit="10" d="M378.395,292.359
			c-0.041,1.712,0.813-11.75-16.076-13.209"/>
	</g>
	<g>
		<g>
			<rect x="1287.402" y="284.436" fill="#231815" width="1.379" height="11.063"/>
			<path fill="none" stroke="#231815" stroke-width="0.95" stroke-miterlimit="10" d="M1276.511,294.69
				c0.03,1.281-0.609-8.797,12.034-9.89"/>
		</g>
		<g>
			<rect x="1263.907" y="284.436" fill="#231815" width="1.379" height="11.063"/>
			<path fill="none" stroke="#231815" stroke-width="0.95" stroke-miterlimit="10" d="M1276.178,294.69
				c-0.031,1.281,0.609-8.797-12.035-9.89"/>
		</g>
	</g>
	<g>
		<g>
			<rect x="1336.389" y="284.436" fill="#231815" width="1.379" height="11.063"/>
			<path fill="none" stroke="#231815" stroke-width="0.95" stroke-miterlimit="10" d="M1325.498,294.69
				c0.03,1.281-0.61-8.797,12.033-9.89"/>
		</g>
		<g>
			<rect x="1312.895" y="284.436" fill="#231815" width="1.379" height="11.063"/>
			<path fill="none" stroke="#231815" stroke-width="0.95" stroke-miterlimit="10" d="M1325.164,294.69
				c-0.03,1.281,0.61-8.797-12.034-9.89"/>
		</g>
	</g>
	<g>
		<rect x="1206.546" y="224.769" fill="#231815" width="2.444" height="19.42"/>
		<path fill="none" stroke="#231815" stroke-width="0.95" stroke-miterlimit="10" d="M1228.285,242.77
			c-0.055,2.251,1.079-15.441-21.32-17.36"/>
	</g>
	<g>
		<rect x="657.355" y="242.912" fill="#231815" width="2.443" height="19.42"/>
		<path fill="none" stroke="#231815" stroke-width="0.95" stroke-miterlimit="10" d="M679.094,244.331
			c-0.054-2.251,1.08,15.441-21.32,17.36"/>
	</g>
	<g>
		<rect x="989.34" y="242.912" fill="#231815" width="2.443" height="19.42"/>
		<path fill="none" stroke="#231815" stroke-width="0.95" stroke-miterlimit="10" d="M970.044,244.331
			c0.055-2.251-1.079,15.441,21.321,17.36"/>
	</g>
	<g>
		<rect x="1479.544" y="289.012" fill="#231815" width="2.443" height="19.42"/>
		<path fill="none" stroke="#231815" stroke-width="0.95" stroke-miterlimit="10" d="M1460.248,290.431
			c0.055-2.251-1.079,15.441,21.322,17.36"/>
	</g>
	<g>
		<rect x="1488.855" y="289.012" fill="#231815" width="2.444" height="19.42"/>
		<path fill="none" stroke="#231815" stroke-width="0.95" stroke-miterlimit="10" d="M1510.595,290.431
			c-0.055-2.251,1.079,15.441-21.321,17.36"/>
	</g>
	<g>
		<rect x="1000.298" y="289.012" fill="#231815" width="2.443" height="19.42"/>
		<path fill="none" stroke="#231815" stroke-width="0.95" stroke-miterlimit="10" d="M1022.037,290.431
			c-0.055-2.251,1.079,15.441-21.321,17.36"/>
	</g>
	<g>
		<rect x="991.073" y="289.012" fill="#231815" width="2.444" height="19.42"/>
		<path fill="none" stroke="#231815" stroke-width="0.95" stroke-miterlimit="10" d="M971.778,290.431
			c0.055-2.251-1.079,15.441,21.321,17.36"/>
	</g>
	<rect x="1081.512" y="292.485" fill="#A0A0A0" width="55.63" height="0.999"/>
	<rect x="1081.664" y="288.662" fill="#A0A0A0" width="55.478" height="0.998"/>
	<rect x="1188.005" y="292.485" fill="#A0A0A0" width="63.86" height="0.999"/>
	<rect x="1188.005" y="288.662" fill="#A0A0A0" width="68.596" height="0.998"/>
	<g>
		<rect x="1165.807" y="289.012" fill="#231815" width="2.443" height="19.42"/>
		<path fill="none" stroke="#231815" stroke-width="0.95" stroke-miterlimit="10" d="M1187.546,290.431
			c-0.055-2.251,1.079,15.441-21.321,17.36"/>
	</g>
	<g>
		<rect x="1156.54" y="289.012" fill="#231815" width="2.444" height="19.42"/>
		<path fill="none" stroke="#231815" stroke-width="0.95" stroke-miterlimit="10" d="M1137.245,290.431
			c0.055-2.251-1.079,15.441,21.321,17.36"/>
	</g>
	<g>
		<rect x="568.744" y="289.012" fill="#231815" width="2.443" height="19.42"/>
		<path fill="none" stroke="#231815" stroke-width="0.95" stroke-miterlimit="10" d="M549.449,290.431
			c0.055-2.251-1.08,15.441,21.321,17.36"/>
	</g>
	<g>
		<rect x="577.965" y="289.012" fill="#231815" width="2.443" height="19.42"/>
		<path fill="none" stroke="#231815" stroke-width="0.95" stroke-miterlimit="10" d="M599.704,290.431
			c-0.055-2.251,1.08,15.441-21.321,17.36"/>
	</g>
	<g>
		<rect x="128.576" y="288.049" fill="#231815" width="2.443" height="19.42"/>
		<path fill="none" stroke="#231815" stroke-width="0.95" stroke-miterlimit="10" d="M109.28,289.468
			c0.055-2.251-1.08,15.441,21.321,17.36"/>
	</g>
	<g>
		<rect x="138.019" y="288.049" fill="#231815" width="2.443" height="19.42"/>
		<path fill="none" stroke="#231815" stroke-width="0.95" stroke-miterlimit="10" d="M159.757,289.468
			c-0.055-2.251,1.08,15.441-21.321,17.36"/>
	</g>
	<g>
		<rect x="750.35" y="288.652" fill="#231815" width="2.444" height="19.419"/>
		<path fill="none" stroke="#231815" stroke-width="0.95" stroke-miterlimit="10" d="M772.089,290.07
			c-0.055-2.25,1.079,15.441-21.321,17.36"/>
	</g>
	<g>
		<rect x="827.95" y="522.126" fill="#231815" width="19.428" height="2.442"/>
		<path fill="none" stroke="#231815" stroke-width="0.95" stroke-miterlimit="10" d="M845.959,502.839
			c2.252,0.055-15.448-1.078-17.368,21.313"/>
	</g>
	<g>
		<rect x="827.95" y="452.266" fill="#231815" width="19.428" height="2.443"/>
		<path fill="none" stroke="#231815" stroke-width="0.95" stroke-miterlimit="10" d="M845.959,432.979
			c2.252,0.055-15.448-1.079-17.368,21.312"/>
	</g>
	<g>
		<rect x="577.226" y="226.554" fill="#231815" width="19.428" height="2.442"/>
		<path fill="none" stroke="#231815" stroke-width="0.95" stroke-miterlimit="10" d="M578.645,207.267
			c-2.251,0.055,15.448-1.079,17.368,21.312"/>
	</g>
	<g>
		<rect x="1051.585" y="226.554" fill="#231815" width="19.428" height="2.442"/>
		<path fill="none" stroke="#231815" stroke-width="0.95" stroke-miterlimit="10" d="M1069.594,207.267
			c2.252,0.055-15.448-1.079-17.367,21.312"/>
	</g>
	<g>
		<g>
			<rect x="1376.956" y="318.854" fill="#231815" width="1.379" height="11.062"/>
			<path fill="none" stroke="#231815" stroke-width="0.95" stroke-miterlimit="10" d="M1366.064,319.662
				c0.031-1.282-0.609,8.797,12.034,9.889"/>
		</g>
		<g>
			<rect x="1353.461" y="318.854" fill="#231815" width="1.379" height="11.062"/>
			<path fill="none" stroke="#231815" stroke-width="0.95" stroke-miterlimit="10" d="M1365.731,319.662
				c-0.03-1.282,0.609,8.797-12.035,9.889"/>
		</g>
	</g>
	<g>
		<g>
			<rect x="1376.956" y="400.485" fill="#231815" width="1.379" height="11.062"/>
			<path fill="none" stroke="#231815" stroke-width="0.95" stroke-miterlimit="10" d="M1366.064,401.293
				c0.031-1.281-0.609,8.797,12.034,9.89"/>
		</g>
		<g>
			<rect x="1353.461" y="400.485" fill="#231815" width="1.379" height="11.062"/>
			<path fill="none" stroke="#231815" stroke-width="0.95" stroke-miterlimit="10" d="M1365.731,401.293
				c-0.03-1.281,0.609,8.797-12.035,9.89"/>
		</g>
	</g>
	<rect x="29.254" y="124.903" fill="#46484B" width="6.169" height="106.848"/>
	<rect x="215.275" y="331.313" fill="#46484B" width="6.17" height="81.64"/>
	<rect x="215.275" y="331.313" fill="#46484B" width="22.575" height="6.167"/>
	<rect x="218.36" y="400.485" fill="#46484B" width="22.575" height="6.167"/>
	<rect x="266.326" y="400.485" fill="#46484B" width="61.992" height="6.167"/>
	<rect x="366.507" y="400.485" fill="#46484B" width="42.257" height="6.167"/>
	<rect x="1295.117" y="400.485" fill="#46484B" width="58.293" height="6.167"/>
	<rect x="1378.335" y="400.485" fill="#46484B" width="37.575" height="6.167"/>
	<rect x="1394.188" y="454.425" fill="#46484B" width="21.722" height="6.167"/>
	<rect x="1240.607" y="454.425" fill="#46484B" width="21.722" height="6.167"/>
	<rect x="353.052" y="330.699" fill="#46484B" width="55.712" height="6.167"/>
	<rect x="1237.523" y="318.854" fill="#46484B" width="94.442" height="6.167"/>
	<rect x="218.36" y="454.425" fill="#46484B" width="22.575" height="6.167"/>
	<rect x="386.189" y="454.425" fill="#46484B" width="22.575" height="6.167"/>
	<rect x="215.275" y="438.027" fill="#46484B" width="6.17" height="22.564"/>
	<rect x="402.595" y="406.651" fill="#46484B" width="6.169" height="53.939"/>
	<rect x="402.595" y="330.699" fill="#46484B" width="6.169" height="22.564"/>
	<rect x="402.595" y="377.921" fill="#46484B" width="6.169" height="22.564"/>
	<rect x="573.408" y="123.199" fill="#46484B" width="6.17" height="41.502"/>
	<rect x="1068.708" y="124.095" fill="#46484B" width="6.17" height="40.606"/>
	<rect x="1237.523" y="382.783" fill="#46484B" width="6.169" height="77.809"/>
	<rect x="1409.74" y="441.608" fill="#46484B" width="6.17" height="18.983"/>
	<rect x="1409.74" y="321.938" fill="#46484B" width="6.17" height="84.715"/>
	<rect x="1567.297" y="121.806" fill="#46484B" width="6.17" height="122.383"/>
	<rect x="1377.428" y="318.854" fill="#46484B" width="38.482" height="6.167"/>
	<rect x="1559.268" y="112.371" fill="#46484B" width="14.199" height="14.193"/>
	<rect x="1068.708" y="112.371" fill="#46484B" width="14.199" height="14.193"/>
	<rect x="1068.708" y="229.995" fill="#46484B" width="14.199" height="14.193"/>
	<rect x="908.317" y="229.995" fill="#46484B" width="14.199" height="14.193"/>
	<rect x="737.935" y="229.995" fill="#46484B" width="14.199" height="14.193"/>
	<rect x="737.935" y="112.371" fill="#46484B" width="14.199" height="14.193"/>
	<rect x="565.379" y="112.371" fill="#46484B" width="14.199" height="14.193"/>
	<rect x="389.558" y="112.371" fill="#46484B" width="14.199" height="14.193"/>
	<rect x="209.718" y="112.371" fill="#46484B" width="14.199" height="14.193"/>
	<rect x="29.254" y="112.371" fill="#46484B" width="14.199" height="14.193"/>
	<rect x="29.254" y="229.995" fill="#46484B" width="14.199" height="14.193"/>
	<rect x="29.254" y="392.459" fill="#46484B" width="14.199" height="14.193"/>
	<rect x="215.448" y="392.459" fill="#46484B" width="14.199" height="14.193"/>
	<rect x="394.565" y="392.459" fill="#46484B" width="14.199" height="14.193"/>
	<rect x="568.463" y="392.459" fill="#46484B" width="14.199" height="14.193"/>
	<rect x="737.935" y="392.459" fill="#46484B" width="14.199" height="14.193"/>
	<rect x="737.935" y="513.582" fill="#46484B" width="14.199" height="14.193"/>
	<rect x="737.935" y="533.184" fill="#46484B" width="14.199" height="14.192"/>
	<rect x="908.317" y="533.184" fill="#46484B" width="14.199" height="14.192"/>
	<rect x="908.317" y="513.582" fill="#46484B" width="14.199" height="14.193"/>
	<rect x="908.317" y="392.459" fill="#46484B" width="14.199" height="14.193"/>
	<rect x="1072.723" y="392.459" fill="#46484B" width="14.199" height="14.193"/>
	<rect x="1237.523" y="392.459" fill="#46484B" width="14.199" height="14.193"/>
	<rect x="1557.27" y="392.459" fill="#46484B" width="14.199" height="14.193"/>
	<rect x="1401.711" y="392.459" fill="#46484B" width="14.199" height="14.193"/>
	<rect x="209.718" y="229.995" fill="#46484B" width="14.199" height="14.193"/>
	<rect x="389.558" y="229.995" fill="#46484B" width="14.199" height="14.193"/>
	<rect x="565.379" y="229.995" fill="#46484B" width="14.199" height="14.193"/>
	<rect x="908.317" y="112.371" fill="#46484B" width="14.199" height="14.193"/>
	<g>
		<rect x="1191.348" y="112.371" fill="#46484B" width="14.199" height="14.193"/>
		<rect x="1191.348" y="229.995" fill="#46484B" width="14.199" height="14.193"/>
	</g>
	<g>
		<rect x="1313.988" y="112.371" fill="#46484B" width="14.199" height="14.193"/>
		<rect x="1313.988" y="229.995" fill="#46484B" width="14.199" height="14.193"/>
	</g>
	<g>
		<rect x="1436.628" y="112.371" fill="#46484B" width="14.199" height="14.193"/>
		<rect x="1436.628" y="229.995" fill="#46484B" width="14.199" height="14.193"/>
	</g>
	<rect x="1557.27" y="229.995" fill="#46484B" width="14.199" height="14.193"/>
	<text transform="matrix(1.0004 0 0 1 1558.2021 13.7031)" fill="#BC0000" font-family="'MicrosoftYaHei'" font-size="15.9821">北</text>
	<ellipse fill="none" stroke="#BC0000" stroke-miterlimit="10" cx="1566.197" cy="40.341" rx="23.523" ry="9.88"/>
	<polygon fill="none" stroke="#BC0000" stroke-linejoin="round" stroke-miterlimit="10" points="1552.433,58.979 1566.947,21.458 
		1579.961,58.979 1566.196,40.341 	"/>
</g>
</svg>
