<?xml version="1.0" encoding="utf-8"?>
<!-- Generator: Adobe Illustrator 16.0.0, SVG Export Plug-In . SVG Version: 6.00 Build 0)  -->
<!DOCTYPE svg PUBLIC "-//W3C//DTD SVG 1.1//EN" "http://www.w3.org/Graphics/SVG/1.1/DTD/svg11.dtd">
<svg version="1.1" id="floorPlan9" xmlns="http://www.w3.org/2000/svg" xmlns:xlink="http://www.w3.org/1999/xlink" x="0px" y="0px"
	 width="1590px" height="632px" viewBox="0 0 1590 632" enable-background="new 0 0 1590 632" xml:space="preserve">
<g>
	<g>
		<rect x="35.703" y="119.468" fill="#F7F8F8" width="86.337" height="120.308"/>
		<text transform="matrix(1.0004 0 0 1 43.8955 181.2832)"><tspan x="0" y="0" font-family="'MicrosoftYaHei'" font-size="13.9843">工程建设部</tspan><tspan x="18.272" y="20.977" font-family="'MicrosoftYaHei'" font-size="13.9843">B924</tspan></text>
	</g>
	<g>
		<rect x="6.17" y="293.698" fill="#F7F8F8" width="126.211" height="106.856"/>
		<text transform="matrix(1.0004 0 0 1 52.5791 342.1309)"><tspan x="0" y="0" font-family="'MicrosoftYaHei'" font-size="13.9843">B919</tspan><tspan x="-25.264" y="20.977" font-family="'MicrosoftYaHei'" font-size="13.9843">工程部会议室</tspan></text>
	</g>
	<g>
		<rect x="136.205" y="293.698" fill="#F7F8F8" width="79.35" height="106.856"/>
		<text transform="matrix(1.0004 0 0 1 159.1841 342.1309)"><tspan x="0" y="0" font-family="'MicrosoftYaHei'" font-size="13.9843">B917</tspan><tspan x="2.704" y="20.977" font-family="'MicrosoftYaHei'" font-size="13.9843">库房</tspan></text>
	</g>
	<g>
		<rect x="408.044" y="293.698" fill="#F7F8F8" width="164.887" height="109.316"/>
		<text transform="matrix(1.0004 0 0 1 473.792 342.1309)"><tspan x="0" y="0" font-family="'MicrosoftYaHei'" font-size="13.9843">B915</tspan><tspan x="-4.288" y="20.977" font-family="'MicrosoftYaHei'" font-size="13.9843">安监部</tspan></text>
	</g>
	<g>
		<rect x="577.635" y="293.698" fill="#F7F8F8" width="167.179" height="109.316"/>
		<text transform="matrix(1.0004 0 0 1 644.5288 342.1309)"><tspan x="0" y="0" font-family="'MicrosoftYaHei'" font-size="13.9843">B913</tspan><tspan x="-4.288" y="20.977" font-family="'MicrosoftYaHei'" font-size="13.9843">审计部</tspan></text>
	</g>
	<g>
		<rect x="749.63" y="293.698" fill="#F7F8F8" width="93.702" height="106.856"/>
		<text transform="matrix(1.0004 0 0 1 779.7847 342.1309)"><tspan x="0" y="0" font-family="'MicrosoftYaHei'" font-size="13.9843">B911</tspan><tspan x="-4.288" y="20.977" font-family="'MicrosoftYaHei'" font-size="13.9843">会议室</tspan></text>
	</g>
	<g>
		<rect x="1487.19" y="293.698" fill="#F7F8F8" width="96.576" height="106.856"/>
		<text transform="matrix(1.0004 0 0 1 1518.7832 342.1309)"><tspan x="0" y="0" font-family="'MicrosoftYaHei'" font-size="13.9843">B901</tspan><tspan x="-4.288" y="20.977" font-family="'MicrosoftYaHei'" font-size="13.9843">审计室</tspan></text>
	</g>
	<g>
		<rect x="912.422" y="293.698" fill="#F7F8F8" width="81.656" height="109.252"/>
		<text transform="matrix(1.0004 0 0 1 936.5547 331.6426)"><tspan x="0" y="0" font-family="'MicrosoftYaHei'" font-size="13.9843">B909</tspan><tspan x="-4.288" y="20.977" font-family="'MicrosoftYaHei'" font-size="13.9843">计划部</tspan><tspan x="-4.288" y="41.953" font-family="'MicrosoftYaHei'" font-size="13.9843">资料室</tspan></text>
	</g>
	<g>
		<rect x="1416.219" y="293.698" fill="#F7F8F8" width="66.048" height="106.856"/>
		<text transform="matrix(1.0004 0 0 1 1432.5479 331.6426)"><tspan x="0" y="0" font-family="'MicrosoftYaHei'" font-size="13.9843">B903</tspan><tspan x="-4.288" y="20.977" font-family="'MicrosoftYaHei'" font-size="13.9843">战备规</tspan><tspan x="2.704" y="41.953" font-family="'MicrosoftYaHei'" font-size="13.9843">划室</tspan></text>
	</g>
	<g>
		<rect x="1082.963" y="293.698" fill="#F7F8F8" width="154.6" height="109.252"/>
		<text transform="matrix(1.0004 0 0 1 1143.5674 342.1309)"><tspan x="0" y="0" font-family="'MicrosoftYaHei'" font-size="13.9843">B905</tspan><tspan x="-18.273" y="20.977" font-family="'MicrosoftYaHei'" font-size="13.9843">投资计划部</tspan></text>
	</g>
	<g>
		<rect x="999.578" y="293.698" fill="#F7F8F8" width="78.112" height="109.252"/>
		<text transform="matrix(1.0004 0 0 1 1021.9385 331.6426)"><tspan x="0" y="0" font-family="'MicrosoftYaHei'" font-size="13.9843">B907</tspan><tspan x="-11.28" y="20.977" font-family="'MicrosoftYaHei'" font-size="13.9843">投资计划</tspan><tspan x="-4.288" y="41.953" font-family="'MicrosoftYaHei'" font-size="13.9843">部部长</tspan></text>
	</g>
	<text transform="matrix(1.0004 0 0 1 307.6118 367.2373)" font-family="'MicrosoftYaHei'" font-size="13.9843">风机房</text>
	<text transform="matrix(1.0004 0 0 1 367.1973 316.4575)" font-family="'MicrosoftYaHei'" font-size="13.9843">弱电</text>
	<text transform="matrix(1.0004 0 0 1 1262.8008 312.269)" font-family="'MicrosoftYaHei'" font-size="13.9843">弱电</text>
	<text transform="matrix(1.0004 0 0 1 1314.4766 312.269)" font-family="'MicrosoftYaHei'" font-size="13.9843">强电</text>
	<g>
		<rect x="126.365" y="119.468" fill="#F7F8F8" width="89.189" height="120.308"/>
		<text transform="matrix(1.0004 0 0 1 142.979 181.2832)"><tspan x="0" y="0" font-family="'MicrosoftYaHei'" font-size="13.9843">总工程师</tspan><tspan x="11.28" y="20.977" font-family="'MicrosoftYaHei'" font-size="13.9843">B922</tspan></text>
	</g>
	<g>
		<rect x="219.949" y="119.468" fill="#F7F8F8" width="82.555" height="120.308"/>
		<text transform="matrix(1.0004 0 0 1 233.2456 181.2832)"><tspan x="0" y="0" font-family="'MicrosoftYaHei'" font-size="13.9843">副总经理</tspan><tspan x="11.28" y="20.977" font-family="'MicrosoftYaHei'" font-size="13.9843">B920</tspan></text>
	</g>
	<g>
		<rect x="307.329" y="119.468" fill="#F7F8F8" width="87.022" height="120.308"/>
		<text transform="matrix(1.0004 0 0 1 329.8545 181.2832)"><tspan x="0" y="0" font-family="'MicrosoftYaHei'" font-size="13.9843">监理会</tspan><tspan x="4.288" y="20.977" font-family="'MicrosoftYaHei'" font-size="13.9843">B918</tspan></text>
	</g>
	<g>
		<rect x="398.85" y="119.468" fill="#F7F8F8" width="82.332" height="120.308"/>
		<text transform="matrix(1.0004 0 0 1 405.0396 181.2832)"><tspan x="0" y="0" font-family="'MicrosoftYaHei'" font-size="13.9843">上市办公室</tspan><tspan x="18.272" y="20.977" font-family="'MicrosoftYaHei'" font-size="13.9843">B916</tspan></text>
	</g>
	<g>
		<rect x="486.006" y="119.468" fill="#F7F8F8" width="88.354" height="120.308"/>
		<text transform="matrix(1.0004 0 0 1 502.2017 181.2832)"><tspan x="0" y="0" font-family="'MicrosoftYaHei'" font-size="13.9843">企业顾问</tspan><tspan x="11.28" y="20.977" font-family="'MicrosoftYaHei'" font-size="13.9843">B914</tspan></text>
	</g>
	<g>
		<rect x="1074.549" y="119.468" fill="#F7F8F8" width="121.767" height="120.308"/>
		<text transform="matrix(1.0004 0 0 1 1114.4473 181.2832)"><tspan x="0" y="0" font-family="'MicrosoftYaHei'" font-size="13.9843">复印室</tspan><tspan x="4.288" y="20.977" font-family="'MicrosoftYaHei'" font-size="13.9843">B908</tspan></text>
	</g>
	<g>
		<rect x="1201.727" y="119.468" fill="#F7F8F8" width="117.229" height="120.308"/>
		<text transform="matrix(1.0004 0 0 1 1225.3643 181.2832)"><tspan x="0" y="0" font-family="'MicrosoftYaHei'" font-size="13.9843">发展规划部</tspan><tspan x="18.273" y="20.977" font-family="'MicrosoftYaHei'" font-size="13.9843">B908</tspan></text>
	</g>
	<g>
		<rect x="1323.005" y="119.468" fill="#F7F8F8" width="118.591" height="120.308"/>
		<text transform="matrix(1.0004 0 0 1 1361.3145 181.2832)"><tspan x="0" y="0" font-family="'MicrosoftYaHei'" font-size="13.9843">档案室</tspan><tspan x="4.288" y="20.977" font-family="'MicrosoftYaHei'" font-size="13.9843">B908</tspan></text>
	</g>
	<g>
		<rect x="1446.419" y="119.468" fill="#F7F8F8" width="121.157" height="120.308"/>
		<text transform="matrix(1.0004 0 0 1 1472.0215 181.2832)"><tspan x="0" y="0" font-family="'MicrosoftYaHei'" font-size="13.9843">工程项目部</tspan><tspan x="18.273" y="20.977" font-family="'MicrosoftYaHei'" font-size="13.9843">B908</tspan></text>
	</g>
	<g>
		<rect x="657.306" y="71.639" fill="#F7F8F8" width="336.273" height="167.637"/>
		<text transform="matrix(1.0004 0 0 1 795.9653 159.6665)" font-family="'MicrosoftYaHei'" font-size="13.9843">B9会议室</text>
		<text transform="matrix(1.0004 0 0 1 679.3022 229.9946)" font-family="'MicrosoftYaHei'" font-size="13.9843">B912</text>
		<text transform="matrix(1.0004 0 0 1 936.9863 229.9946)" font-family="'MicrosoftYaHei'" font-size="13.9843">B910</text>
	</g>
	<path fill="#A0A0A0" d="M1488.082,401.214h-4.824V288.513h4.824V401.214z M1484.257,400.215h2.826V289.512h-2.826V400.215z"/>
	<g>
		<rect x="215.624" y="126.564" fill="#A0A0A0" width="1" height="103.431"/>
		<rect x="219.449" y="126.564" fill="#A0A0A0" width="0.999" height="103.431"/>
	</g>
	<g>
		<rect x="122.04" y="119.468" fill="#A0A0A0" width="1" height="123.632"/>
		<rect x="125.865" y="119.468" fill="#A0A0A0" width="1" height="123.632"/>
	</g>
	<rect x="132.381" y="289.012" fill="#A0A0A0" width="0.999" height="111.543"/>
	<rect x="136.205" y="289.012" fill="#A0A0A0" width="1" height="111.543"/>
	<rect x="275.555" y="289.012" fill="#A0A0A0" width="1" height="111.543"/>
	<rect x="279.38" y="292.51" fill="#A0A0A0" width="0.999" height="108.045"/>
	<rect x="215.624" y="292.485" fill="#A0A0A0" width="1" height="39.557"/>
	<rect x="219.449" y="289.161" fill="#A0A0A0" width="0.999" height="42.881"/>
	<g>
		<rect x="353.465" y="292.498" fill="#A0A0A0" width="0.999" height="39.544"/>
		<rect x="357.29" y="292.498" fill="#A0A0A0" width="0.999" height="39.544"/>
	</g>
	<rect x="97.818" y="239.275" fill="#A0A0A0" width="1" height="4.823"/>
	<rect x="679.303" y="239.275" fill="#A0A0A0" width="1" height="4.823"/>
	<rect x="600.354" y="288.652" fill="#A0A0A0" width="0.999" height="4.822"/>
	<rect x="548.352" y="288.652" fill="#A0A0A0" width="0.999" height="4.822"/>
	<rect x="772.787" y="288.652" fill="#A0A0A0" width="1" height="4.822"/>
	<rect x="970.57" y="288.652" fill="#A0A0A0" width="0.999" height="4.822"/>
	<rect x="969.379" y="239.275" fill="#A0A0A0" width="0.999" height="4.823"/>
	<rect x="1167.785" y="239.275" fill="#A0A0A0" width="0.999" height="4.823"/>
	<rect x="1053.603" y="288.652" fill="#A0A0A0" width="0.999" height="4.822"/>
	<rect x="1105.63" y="288.652" fill="#A0A0A0" width="0.999" height="4.822"/>
	<rect x="1588.885" y="288.662" fill="#A0A0A0" width="0.999" height="4.822"/>
	<rect x="1077.69" y="289.012" fill="#A0A0A0" width="4.825" height="0.999"/>
	<rect x="572.432" y="289.012" fill="#A0A0A0" width="4.824" height="0.999"/>
	<g>
		<rect x="403.547" y="293.378" fill="#A0A0A0" width="0.999" height="107.177"/>
		<rect x="407.372" y="293.378" fill="#A0A0A0" width="0.999" height="107.177"/>
	</g>
	<g>
		<rect x="572.432" y="289.012" fill="#A0A0A0" width="0.999" height="111.543"/>
		<rect x="576.257" y="289.012" fill="#A0A0A0" width="0.999" height="111.543"/>
	</g>
	<rect x="744.813" y="292.485" fill="#A0A0A0" width="1" height="108.069"/>
	<rect x="748.639" y="289.012" fill="#A0A0A0" width="0.999" height="111.543"/>
	<rect x="843.332" y="292.485" fill="#A0A0A0" width="0.999" height="140.752"/>
	<rect x="847.157" y="289.012" fill="#A0A0A0" width="1" height="144.226"/>
	<rect x="843.332" y="458.345" fill="#A0A0A0" width="0.999" height="43.928"/>
	<rect x="847.157" y="458.345" fill="#A0A0A0" width="1" height="45.013"/>
	<rect x="994.754" y="289.012" fill="#A0A0A0" width="0.999" height="114.743"/>
	<rect x="998.578" y="292.585" fill="#A0A0A0" width="1" height="111.17"/>
	<rect x="1077.69" y="289.012" fill="#A0A0A0" width="0.999" height="111.543"/>
	<rect x="1081.515" y="289.012" fill="#A0A0A0" width="0.999" height="111.543"/>
	<rect x="1237.563" y="292.485" fill="#A0A0A0" width="0.999" height="90.298"/>
	<rect x="1241.387" y="292.485" fill="#A0A0A0" width="0.999" height="90.298"/>
	<rect x="1349.178" y="292.985" fill="#A0A0A0" width="1" height="27.458"/>
	<rect x="1411.396" y="292.985" fill="#A0A0A0" width="0.999" height="26.187"/>
	<rect x="1415.22" y="292.985" fill="#A0A0A0" width="0.999" height="26.187"/>
	<rect x="1396.492" y="289.36" fill="#A0A0A0" width="1" height="34.385"/>
	<rect x="1400.317" y="292.522" fill="#A0A0A0" width="0.999" height="31.223"/>
	<rect x="1248.591" y="292.486" fill="#A0A0A0" width="0.999" height="31.259"/>
	<g>
		<rect x="394.524" y="126.564" fill="#A0A0A0" width="1" height="103.431"/>
		<rect x="398.35" y="126.564" fill="#A0A0A0" width="1" height="103.431"/>
	</g>
	<rect x="652.82" y="126.564" fill="#A0A0A0" width="1" height="113.784"/>
	<rect x="656.646" y="126.564" fill="#A0A0A0" width="0.999" height="117.534"/>
	<rect x="993.579" y="126.564" fill="#A0A0A0" width="0.999" height="117.034"/>
	<rect x="997.404" y="126.564" fill="#A0A0A0" width="0.999" height="113.598"/>
	<g>
		<rect x="574.36" y="163.2" fill="#A0A0A0" width="0.999" height="44.392"/>
		<rect x="578.186" y="163.2" fill="#A0A0A0" width="0.999" height="44.392"/>
	</g>
	<g>
		<rect x="1069.66" y="163.2" fill="#A0A0A0" width="0.999" height="44.1"/>
		<rect x="1073.485" y="163.2" fill="#A0A0A0" width="0.999" height="44.1"/>
	</g>
	<g>
		<rect x="1196.315" y="126.564" fill="#A0A0A0" width="0.999" height="103.431"/>
		<rect x="1200.14" y="126.564" fill="#A0A0A0" width="0.999" height="103.431"/>
	</g>
	<g>
		<rect x="1318.956" y="126.564" fill="#A0A0A0" width="0.999" height="103.431"/>
		<rect x="1322.78" y="126.564" fill="#A0A0A0" width="0.999" height="103.431"/>
	</g>
	<g>
		<rect x="1441.596" y="126.564" fill="#A0A0A0" width="0.999" height="103.431"/>
		<rect x="1445.42" y="126.564" fill="#A0A0A0" width="0.999" height="103.431"/>
	</g>
	<rect x="43.732" y="243.1" fill="#A0A0A0" width="55.086" height="0.999"/>
	<rect x="43.732" y="239.275" fill="#A0A0A0" width="55.086" height="0.999"/>
	<rect x="150.102" y="239.275" fill="#A0A0A0" width="1" height="4.823"/>
	<rect x="150.102" y="243.1" fill="#A0A0A0" width="59.896" height="0.999"/>
	<rect x="150.102" y="239.275" fill="#A0A0A0" width="59.896" height="0.999"/>
	<rect x="160.11" y="292.485" fill="#A0A0A0" width="56.514" height="0.999"/>
	<rect x="160.11" y="288.662" fill="#A0A0A0" width="60.338" height="0.998"/>
	<rect x="279.38" y="292.485" fill="#A0A0A0" width="15.214" height="0.999"/>
	<rect x="275.513" y="288.662" fill="#A0A0A0" width="19.081" height="0.998"/>
	<rect x="328.598" y="292.485" fill="#A0A0A0" width="25.866" height="0.999"/>
	<rect x="358.289" y="292.485" fill="#A0A0A0" width="3.994" height="0.999"/>
	<rect x="328.598" y="288.662" fill="#A0A0A0" width="33.686" height="0.998"/>
	<rect x="407.372" y="292.485" fill="#A0A0A0" width="141.979" height="0.999"/>
	<rect x="395.397" y="292.485" fill="#A0A0A0" width="9.148" height="0.999"/>
	<rect x="395.397" y="288.662" fill="#A0A0A0" width="153.953" height="0.998"/>
	<rect x="600.354" y="292.485" fill="#A0A0A0" width="145.46" height="0.999"/>
	<rect x="600.354" y="288.662" fill="#A0A0A0" width="149.284" height="0.998"/>
	<rect x="772.787" y="292.485" fill="#A0A0A0" width="71.544" height="0.999"/>
	<rect x="772.787" y="288.662" fill="#A0A0A0" width="75.404" height="0.998"/>
	<rect x="908.597" y="289.012" fill="#A0A0A0" width="1" height="111.543"/>
	<rect x="912.422" y="293.484" fill="#A0A0A0" width="0.999" height="107.07"/>
	<rect x="912.422" y="292.485" fill="#A0A0A0" width="59.147" height="0.999"/>
	<rect x="908.597" y="288.662" fill="#A0A0A0" width="62.973" height="0.998"/>
	<rect x="999.078" y="292.485" fill="#A0A0A0" width="55.523" height="0.999"/>
	<rect x="994.754" y="288.662" fill="#A0A0A0" width="59.848" height="0.998"/>
	<rect x="1105.63" y="288.662" fill="#A0A0A0" width="158.551" height="0.998"/>
	<rect x="1304.444" y="292.485" fill="#A0A0A0" width="10.108" height="0.999"/>
	<rect x="42.061" y="292.485" fill="#A0A0A0" width="67.333" height="0.999"/>
	<rect x="42.061" y="288.662" fill="#A0A0A0" width="67.333" height="0.998"/>
	<line fill="none" stroke="#231815" stroke-miterlimit="10" x1="43.732" y1="119.468" x2="209.997" y2="119.468"/>
	<line fill="none" stroke="#231815" stroke-miterlimit="10" x1="224.196" y1="119.468" x2="390.461" y2="119.468"/>
	<line fill="none" stroke="#231815" stroke-miterlimit="10" x1="407.872" y1="403.568" x2="845.494" y2="403.568"/>
	<line fill="none" stroke="#231815" stroke-miterlimit="10" x1="910.382" y1="403.568" x2="1251.648" y2="403.568"/>
	<line fill="none" stroke="#231815" stroke-miterlimit="10" x1="402.874" y1="119.468" x2="569.139" y2="119.468"/>
	<line fill="none" stroke="#231815" stroke-miterlimit="10" x1="1083.188" y1="119.467" x2="1567.576" y2="119.467"/>
	<rect x="579.453" y="243.1" fill="#A0A0A0" width="77.853" height="0.999"/>
	<rect x="579.453" y="239.275" fill="#A0A0A0" width="73.867" height="0.999"/>
	<rect x="679.303" y="243.1" fill="#A0A0A0" width="291.075" height="0.999"/>
	<rect x="679.303" y="239.275" fill="#A0A0A0" width="291.075" height="0.999"/>
	<rect x="1075.254" y="243.1" fill="#A0A0A0" width="93.53" height="0.999"/>
	<rect x="1075.254" y="239.275" fill="#A0A0A0" width="93.53" height="0.999"/>
	<rect x="993.579" y="243.1" fill="#A0A0A0" width="80.97" height="0.999"/>
	<rect x="997.404" y="239.275" fill="#A0A0A0" width="77.145" height="0.999"/>
	<g>
		<rect x="1228.564" y="243.1" fill="#A0A0A0" width="92.803" height="0.999"/>
		<rect x="1228.564" y="239.275" fill="#A0A0A0" width="92.803" height="0.999"/>
	</g>
	<rect x="1510.623" y="292.485" fill="#A0A0A0" width="79.261" height="0.999"/>
	<rect x="1510.623" y="288.662" fill="#A0A0A0" width="79.261" height="0.998"/>
	<rect x="1400.317" y="292.485" fill="#A0A0A0" width="12.077" height="0.999"/>
	<rect x="1415.22" y="292.485" fill="#A0A0A0" width="45.257" height="0.999"/>
	<rect x="1396.554" y="288.662" fill="#A0A0A0" width="63.923" height="0.998"/>
	<g>
		<line fill="none" stroke="#231815" stroke-miterlimit="10" x1="749.138" y1="632" x2="749.138" y2="407.122"/>
		<line fill="none" stroke="#231815" stroke-miterlimit="10" x1="742.292" y1="632" x2="742.292" y2="407.122"/>
	</g>
	<line fill="none" stroke="#231815" stroke-miterlimit="10" x1="921.341" y1="632" x2="921.341" y2="406.652"/>
	<g>
		<line fill="none" stroke="#231815" stroke-miterlimit="10" x1="843.795" y1="529.761" x2="749.138" y2="529.761"/>
		<line fill="none" stroke="#231815" stroke-miterlimit="10" x1="843.795" y1="536.604" x2="749.138" y2="536.604"/>
	</g>
	<path fill="#A0A0A0" d="M847.655,630.23h-4.825V525.068h4.825V630.23z M843.83,629.231h2.826V526.067h-2.826V629.231z"/>
	<rect x="1289.061" y="288.662" fill="#A0A0A0" width="24.113" height="0.998"/>
	<rect x="1289.061" y="292.485" fill="#A0A0A0" width="12.401" height="0.999"/>
	<rect x="1252.915" y="292.485" fill="#A0A0A0" width="12.401" height="0.999"/>
	<rect x="1241.887" y="292.485" fill="#A0A0A0" width="7.747" height="0.999"/>
	<rect x="1304.444" y="292.485" fill="#A0A0A0" width="8.974" height="0.999"/>
	<rect x="1338.047" y="292.485" fill="#A0A0A0" width="12.131" height="0.999"/>
	<rect x="1332.182" y="323.351" fill="#A0A0A0" width="21.559" height="0.998"/>
	<rect x="1300.517" y="292.486" fill="#A0A0A0" width="0.999" height="26.417"/>
	<rect x="1304.341" y="292.486" fill="#A0A0A0" width="0.999" height="26.417"/>
	<rect x="1349.178" y="292.486" fill="#A0A0A0" width="1" height="27.957"/>
	<rect x="1352.977" y="288.662" fill="#A0A0A0" width="0.999" height="35.723"/>
	<rect x="1338.047" y="288.662" fill="#A0A0A0" width="15.929" height="0.998"/>
	<rect x="1328.565" y="319.526" fill="#A0A0A0" width="21.56" height="0.999"/>
	<rect x="1105.63" y="292.485" fill="#A0A0A0" width="131.938" height="0.999"/>
	<rect x="1252.415" y="292.486" fill="#A0A0A0" width="1" height="26.417"/>
	<rect x="108.395" y="288.662" fill="#A0A0A0" width="0.999" height="4.822"/>
	<rect x="160.11" y="288.662" fill="#A0A0A0" width="0.999" height="4.822"/>
	<rect x="132.381" y="289.012" fill="#A0A0A0" width="4.824" height="0.999"/>
	<rect x="1413.033" y="239.275" fill="#A0A0A0" width="0.999" height="4.823"/>
	<rect x="1320.502" y="243.1" fill="#A0A0A0" width="93.53" height="0.999"/>
	<rect x="1320.502" y="239.275" fill="#A0A0A0" width="93.53" height="0.999"/>
	<g>
		<rect x="1473.813" y="243.1" fill="#A0A0A0" width="92.803" height="0.999"/>
		<rect x="1473.813" y="239.275" fill="#A0A0A0" width="92.803" height="0.999"/>
	</g>
	<g>
		<rect x="302.504" y="119.468" fill="#A0A0A0" width="1" height="123.632"/>
		<rect x="306.329" y="119.468" fill="#A0A0A0" width="1" height="123.632"/>
	</g>
	<rect x="278.282" y="239.275" fill="#A0A0A0" width="1" height="4.823"/>
	<rect x="224.196" y="243.1" fill="#A0A0A0" width="55.086" height="0.999"/>
	<rect x="224.196" y="239.275" fill="#A0A0A0" width="55.086" height="0.999"/>
	<rect x="330.565" y="239.275" fill="#A0A0A0" width="1" height="4.823"/>
	<rect x="330.565" y="243.1" fill="#A0A0A0" width="59.896" height="0.999"/>
	<rect x="330.565" y="239.275" fill="#A0A0A0" width="59.896" height="0.999"/>
	<g>
		<rect x="481.182" y="119.468" fill="#A0A0A0" width="0.999" height="123.632"/>
		<rect x="485.007" y="119.468" fill="#A0A0A0" width="0.999" height="123.632"/>
	</g>
	<rect x="456.96" y="239.275" fill="#A0A0A0" width="0.999" height="4.823"/>
	<rect x="402.874" y="243.1" fill="#A0A0A0" width="55.085" height="0.999"/>
	<rect x="402.874" y="239.275" fill="#A0A0A0" width="55.085" height="0.999"/>
	<rect x="509.243" y="239.275" fill="#A0A0A0" width="0.999" height="4.823"/>
	<rect x="509.243" y="243.1" fill="#A0A0A0" width="59.896" height="0.999"/>
	<rect x="509.243" y="239.275" fill="#A0A0A0" width="59.896" height="0.999"/>
	<rect x="801.524" y="458.345" fill="#A0A0A0" width="46.133" height="2.177"/>
	<rect x="801.524" y="458.345" fill="#A0A0A0" width="2.179" height="45.493"/>
	<rect x="801.524" y="403.568" fill="#A0A0A0" width="2.179" height="22.34"/>
	<rect x="44.931" y="400.485" fill="#357540" width="172.131" height="6.167"/>
	<rect x="1409.02" y="400.485" fill="#357540" width="180.917" height="6.167"/>
	<rect x="652.147" y="65.472" fill="#357540" width="346.93" height="6.167"/>
	<rect y="400.485" fill="#357540" width="29.534" height="6.167"/>
	<rect x="579.857" y="142.053" fill="#357540" width="78.46" height="6.167"/>
	<rect x="995.253" y="142.053" fill="#357540" width="73.734" height="6.167"/>
	<rect y="287.531" fill="#357540" width="43.732" height="6.167"/>
	<rect y="290.614" fill="#357540" width="6.17" height="116.036"/>
	<rect x="1583.767" y="290.614" fill="#357540" width="6.17" height="116.036"/>
	<rect x="652.147" y="65.472" fill="#357540" width="6.17" height="82.748"/>
	<rect x="992.907" y="65.472" fill="#357540" width="6.17" height="82.748"/>
	<path fill="#357540" d="M353.506,439.128c0,5.516-4.474,9.988-9.993,9.988h-46.537c-5.519,0-9.993-4.473-9.993-9.988v-10.564
		c0-5.517,4.475-9.989,9.993-9.989h46.537c5.52,0,9.993,4.473,9.993,9.989V439.128z"/>
	<text transform="matrix(1.0004 0 0 1 52.9502 273.6675)" font-family="'MicrosoftYaHei'" font-size="21.9753">走道</text>
	<text transform="matrix(1.0004 0 0 1 296.2603 437.4531)" font-family="'MicrosoftYaHei'" font-size="11.9866">安全出口</text>
	<text transform="matrix(1.0004 0 0 1 811.7441 419.6357)" font-family="'MicrosoftYaHei'" font-size="11.9866">水井</text>
	<text transform="matrix(1.0004 0 0 1 811.7441 476.875)" font-family="'MicrosoftYaHei'" font-size="11.9866">开水</text>
	<text transform="matrix(1.0004 0 0 1 319.0552 273.6675)" font-family="'MicrosoftYaHei'" font-size="21.9753">走道</text>
	<text transform="matrix(1.0004 0 0 1 680.3022 273.6675)" font-family="'MicrosoftYaHei'" font-size="21.9753">走道</text>
	<text transform="matrix(1.0004 0 0 1 856.6064 407.1221)" font-family="'MicrosoftYaHei'" font-size="21.9753">走道</text>
	<text transform="matrix(1.0004 0 0 1 862.6025 603.3926)" font-family="'MicrosoftYaHei'" font-size="21.9753">走道</text>
	<text transform="matrix(1.0004 0 0 1 1248.5898 273.6675)" font-family="'MicrosoftYaHei'" font-size="21.9753">走道</text>
	<text transform="matrix(1.0004 0 0 1 1015.75 273.6675)" font-family="'MicrosoftYaHei'" font-size="21.9753">走道</text>
	<text transform="matrix(1.0004 0 0 1 1499.4775 273.6675)" font-family="'MicrosoftYaHei'" font-size="21.9753">走道</text>
	<rect x="123.932" y="265.615" fill="#357540" width="127.808" height="2.876"/>
	<rect x="248.862" y="432.407" fill="#357540" width="16.476" height="2.876"/>
	<rect x="248.862" y="265.676" fill="#357540" width="2.877" height="167.304"/>
	<polygon fill="#357540" points="265.338,427.387 282.091,433.847 265.338,440.305 	"/>
	<path fill="#357540" d="M1269.322,439.128c0,5.516,4.473,9.988,9.992,9.988h46.537c5.52,0,9.993-4.473,9.993-9.988v-10.564
		c0-5.517-4.474-9.989-9.993-9.989h-46.537c-5.52,0-9.992,4.473-9.992,9.989V439.128z"/>
	<text transform="matrix(1.0004 0 0 1 1278.5996 437.4531)" font-family="'MicrosoftYaHei'" font-size="11.9866">安全出口</text>
	<rect x="1368.271" y="265.615" fill="#357540" width="69.577" height="2.876"/>
	<rect x="1357.292" y="432.407" fill="#357540" width="13.856" height="2.876"/>
	<rect x="1368.271" y="265.676" fill="#357540" width="2.877" height="167.304"/>
	<polygon fill="#357540" points="1357.292,427.387 1340.539,433.847 1357.292,440.305 	"/>
	<rect x="783.991" y="265.613" fill="#357540" width="81.518" height="2.876"/>
	<polygon fill="#357540" points="783.991,260.594 767.238,267.053 783.991,273.512 	"/>
	<rect x="862.629" y="265.615" fill="#357540" width="2.877" height="81.482"/>
	<polygon fill="#357540" points="857.606,347.098 864.069,363.843 870.529,347.098 	"/>
	<rect x="889.65" y="265.613" fill="#357540" width="81.518" height="2.876"/>
	<polygon fill="#357540" points="971.168,260.594 987.921,267.053 971.168,273.512 	"/>
	<rect x="1100.592" y="265.613" fill="#357540" width="81.518" height="2.876"/>
	<polygon fill="#357540" points="1182.109,260.594 1198.862,267.053 1182.109,273.512 	"/>
	<rect x="889.653" y="265.615" fill="#357540" width="2.877" height="81.482"/>
	<polygon fill="#357540" points="897.552,347.098 891.09,363.843 884.629,347.098 	"/>
	<rect x="441.392" y="265.615" fill="#357540" width="210.753" height="2.876"/>
	<polygon fill="#357540" points="441.392,260.594 424.639,267.053 441.392,273.512 	"/>
	<g>
		<rect x="883.149" y="449.116" fill="#357540" width="2.877" height="81.483"/>
		<polygon fill="#357540" points="891.049,530.6 884.586,547.344 878.126,530.6 		"/>
	</g>
	<g>
		<g>
			<rect x="1433.432" y="224.769" fill="#231815" width="2.444" height="19.42"/>
			<path fill="none" stroke="#231815" stroke-width="0.95" stroke-miterlimit="10" d="M1414.137,242.77
				c0.055,2.251-1.079-15.441,21.321-17.36"/>
		</g>
		<g>
			<rect x="1452.073" y="224.769" fill="#231815" width="2.444" height="19.42"/>
			<path fill="none" stroke="#231815" stroke-width="0.95" stroke-miterlimit="10" d="M1473.813,242.77
				c-0.055,2.251,1.079-15.441-21.32-17.36"/>
		</g>
	</g>
	<g>
		<rect x="118.598" y="224.769" fill="#231815" width="2.443" height="19.42"/>
		<path fill="none" stroke="#231815" stroke-width="0.95" stroke-miterlimit="10" d="M99.303,242.77
			c0.054,2.251-1.08-15.441,21.32-17.36"/>
	</g>
	<g>
		<rect x="127.846" y="224.769" fill="#231815" width="2.443" height="19.42"/>
		<path fill="none" stroke="#231815" stroke-width="0.95" stroke-miterlimit="10" d="M149.584,242.77
			c-0.054,2.251,1.08-15.441-21.32-17.36"/>
	</g>
	<g>
		<rect x="299.062" y="224.769" fill="#231815" width="2.443" height="19.42"/>
		<path fill="none" stroke="#231815" stroke-width="0.95" stroke-miterlimit="10" d="M279.767,242.77
			c0.054,2.251-1.08-15.441,21.32-17.36"/>
	</g>
	<g>
		<rect x="308.31" y="224.769" fill="#231815" width="2.443" height="19.42"/>
		<path fill="none" stroke="#231815" stroke-width="0.95" stroke-miterlimit="10" d="M330.048,242.77
			c-0.054,2.251,1.08-15.441-21.32-17.36"/>
	</g>
	<g>
		<g>
			<rect x="477.739" y="224.769" fill="#231815" width="2.443" height="19.42"/>
			<path fill="none" stroke="#231815" stroke-width="0.95" stroke-miterlimit="10" d="M458.444,242.77
				c0.054,2.251-1.08-15.441,21.32-17.36"/>
		</g>
		<g>
			<rect x="486.987" y="224.769" fill="#231815" width="2.443" height="19.42"/>
			<path fill="none" stroke="#231815" stroke-width="0.95" stroke-miterlimit="10" d="M508.726,242.77
				c-0.055,2.251,1.08-15.441-21.32-17.36"/>
		</g>
	</g>
	<g>
		<rect x="326.755" y="278.662" fill="#231815" width="1.843" height="14.776"/>
		<path fill="none" stroke="#231815" stroke-width="0.95" stroke-miterlimit="10" d="M312.207,292.359
			c0.04,1.712-0.814-11.75,16.075-13.209"/>
	</g>
	<g>
		<rect x="1188.184" y="224.769" fill="#231815" width="2.444" height="19.42"/>
		<path fill="none" stroke="#231815" stroke-width="0.95" stroke-miterlimit="10" d="M1168.889,242.77
			c0.055,2.251-1.079-15.441,21.321-17.36"/>
	</g>
	<g>
		<rect x="294.687" y="278.662" fill="#231815" width="1.843" height="14.776"/>
		<path fill="none" stroke="#231815" stroke-width="0.95" stroke-miterlimit="10" d="M311.077,292.359
			c-0.041,1.712,0.814-11.75-16.075-13.209"/>
	</g>
	<g>
		<rect x="394.352" y="278.662" fill="#231815" width="1.843" height="14.776"/>
		<path fill="none" stroke="#231815" stroke-width="0.95" stroke-miterlimit="10" d="M379.803,292.359
			c0.041,1.712-0.813-11.75,16.075-13.209"/>
	</g>
	<g>
		<rect x="362.283" y="278.662" fill="#231815" width="1.842" height="14.776"/>
		<path fill="none" stroke="#231815" stroke-width="0.95" stroke-miterlimit="10" d="M378.674,292.359
			c-0.041,1.712,0.813-11.75-16.076-13.209"/>
	</g>
	<g>
		<g>
			<rect x="1287.682" y="284.436" fill="#231815" width="1.379" height="11.063"/>
			<path fill="none" stroke="#231815" stroke-width="0.95" stroke-miterlimit="10" d="M1276.79,294.69
				c0.03,1.281-0.609-8.797,12.034-9.89"/>
		</g>
		<g>
			<rect x="1264.187" y="284.436" fill="#231815" width="1.379" height="11.063"/>
			<path fill="none" stroke="#231815" stroke-width="0.95" stroke-miterlimit="10" d="M1276.457,294.69
				c-0.031,1.281,0.609-8.797-12.035-9.89"/>
		</g>
	</g>
	<g>
		<g>
			<rect x="1336.668" y="284.436" fill="#231815" width="1.379" height="11.063"/>
			<path fill="none" stroke="#231815" stroke-width="0.95" stroke-miterlimit="10" d="M1325.777,294.69
				c0.03,1.281-0.61-8.797,12.033-9.89"/>
		</g>
		<g>
			<rect x="1313.174" y="284.436" fill="#231815" width="1.379" height="11.063"/>
			<path fill="none" stroke="#231815" stroke-width="0.95" stroke-miterlimit="10" d="M1325.443,294.69
				c-0.03,1.281,0.61-8.797-12.034-9.89"/>
		</g>
	</g>
	<g>
		<rect x="1206.825" y="224.769" fill="#231815" width="2.444" height="19.42"/>
		<path fill="none" stroke="#231815" stroke-width="0.95" stroke-miterlimit="10" d="M1228.564,242.77
			c-0.055,2.251,1.079-15.441-21.32-17.36"/>
	</g>
	<g>
		<rect x="657.635" y="242.912" fill="#231815" width="2.443" height="19.42"/>
		<path fill="none" stroke="#231815" stroke-width="0.95" stroke-miterlimit="10" d="M679.373,244.331
			c-0.054-2.251,1.08,15.441-21.32,17.36"/>
	</g>
	<g>
		<rect x="989.619" y="242.912" fill="#231815" width="2.443" height="19.42"/>
		<path fill="none" stroke="#231815" stroke-width="0.95" stroke-miterlimit="10" d="M970.323,244.331
			c0.055-2.251-1.079,15.441,21.321,17.36"/>
	</g>
	<g>
		<rect x="1479.823" y="289.012" fill="#231815" width="2.443" height="19.42"/>
		<path fill="none" stroke="#231815" stroke-width="0.95" stroke-miterlimit="10" d="M1460.527,290.431
			c0.055-2.251-1.079,15.441,21.322,17.36"/>
	</g>
	<g>
		<rect x="1489.135" y="289.012" fill="#231815" width="2.444" height="19.42"/>
		<path fill="none" stroke="#231815" stroke-width="0.95" stroke-miterlimit="10" d="M1510.874,290.431
			c-0.055-2.251,1.079,15.441-21.321,17.36"/>
	</g>
	<g>
		<rect x="1074.248" y="289.012" fill="#231815" width="2.443" height="19.42"/>
		<path fill="none" stroke="#231815" stroke-width="0.95" stroke-miterlimit="10" d="M1054.953,290.431
			c0.055-2.251-1.08,15.441,21.321,17.36"/>
	</g>
	<g>
		<rect x="991.353" y="289.012" fill="#231815" width="2.444" height="19.42"/>
		<path fill="none" stroke="#231815" stroke-width="0.95" stroke-miterlimit="10" d="M972.058,290.431
			c0.055-2.251-1.079,15.441,21.321,17.36"/>
	</g>
	<g>
		<rect x="1083.518" y="289.012" fill="#231815" width="2.443" height="19.42"/>
		<path fill="none" stroke="#231815" stroke-width="0.95" stroke-miterlimit="10" d="M1105.256,290.431
			c-0.055-2.251,1.08,15.441-21.32,17.36"/>
	</g>
	<g>
		<rect x="569.023" y="289.012" fill="#231815" width="2.443" height="19.42"/>
		<path fill="none" stroke="#231815" stroke-width="0.95" stroke-miterlimit="10" d="M549.729,290.431
			c0.055-2.251-1.08,15.441,21.321,17.36"/>
	</g>
	<g>
		<rect x="578.245" y="289.012" fill="#231815" width="2.443" height="19.42"/>
		<path fill="none" stroke="#231815" stroke-width="0.95" stroke-miterlimit="10" d="M599.983,290.431
			c-0.055-2.251,1.08,15.441-21.321,17.36"/>
	</g>
	<g>
		<rect x="128.855" y="288.049" fill="#231815" width="2.443" height="19.42"/>
		<path fill="none" stroke="#231815" stroke-width="0.95" stroke-miterlimit="10" d="M109.56,289.468
			c0.055-2.251-1.079,15.441,21.321,17.36"/>
	</g>
	<g>
		<rect x="138.298" y="288.049" fill="#231815" width="2.443" height="19.42"/>
		<path fill="none" stroke="#231815" stroke-width="0.95" stroke-miterlimit="10" d="M160.037,289.468
			c-0.055-2.251,1.079,15.441-21.321,17.36"/>
	</g>
	<g>
		<rect x="750.629" y="288.652" fill="#231815" width="2.444" height="19.419"/>
		<path fill="none" stroke="#231815" stroke-width="0.95" stroke-miterlimit="10" d="M772.368,290.07
			c-0.055-2.25,1.079,15.441-21.321,17.36"/>
	</g>
	<g>
		<rect x="828.229" y="522.126" fill="#231815" width="19.428" height="2.442"/>
		<path fill="none" stroke="#231815" stroke-width="0.95" stroke-miterlimit="10" d="M846.238,502.839
			c2.252,0.055-15.448-1.078-17.368,21.313"/>
	</g>
	<g>
		<rect x="828.229" y="452.266" fill="#231815" width="19.428" height="2.443"/>
		<path fill="none" stroke="#231815" stroke-width="0.95" stroke-miterlimit="10" d="M846.238,432.979
			c2.252,0.055-15.448-1.079-17.368,21.312"/>
	</g>
	<g>
		<rect x="577.506" y="226.554" fill="#231815" width="19.428" height="2.442"/>
		<path fill="none" stroke="#231815" stroke-width="0.95" stroke-miterlimit="10" d="M578.925,207.267
			c-2.252,0.055,15.448-1.079,17.367,21.312"/>
	</g>
	<g>
		<rect x="1051.864" y="226.554" fill="#231815" width="19.428" height="2.442"/>
		<path fill="none" stroke="#231815" stroke-width="0.95" stroke-miterlimit="10" d="M1069.873,207.267
			c2.252,0.055-15.448-1.079-17.367,21.312"/>
	</g>
	<g>
		<g>
			<rect x="1377.235" y="318.854" fill="#231815" width="1.379" height="11.062"/>
			<path fill="none" stroke="#231815" stroke-width="0.95" stroke-miterlimit="10" d="M1366.344,319.662
				c0.031-1.282-0.609,8.797,12.034,9.889"/>
		</g>
		<g>
			<rect x="1353.74" y="318.854" fill="#231815" width="1.379" height="11.062"/>
			<path fill="none" stroke="#231815" stroke-width="0.95" stroke-miterlimit="10" d="M1366.011,319.662
				c-0.03-1.282,0.609,8.797-12.035,9.889"/>
		</g>
	</g>
	<g>
		<g>
			<rect x="1377.235" y="400.485" fill="#231815" width="1.379" height="11.062"/>
			<path fill="none" stroke="#231815" stroke-width="0.95" stroke-miterlimit="10" d="M1366.344,401.293
				c0.031-1.281-0.609,8.797,12.034,9.89"/>
		</g>
		<g>
			<rect x="1353.74" y="400.485" fill="#231815" width="1.379" height="11.062"/>
			<path fill="none" stroke="#231815" stroke-width="0.95" stroke-miterlimit="10" d="M1366.011,401.293
				c-0.03-1.281,0.609,8.797-12.035,9.89"/>
		</g>
	</g>
	<rect x="29.533" y="124.903" fill="#46484B" width="6.17" height="106.848"/>
	<rect x="215.555" y="331.313" fill="#46484B" width="6.17" height="81.64"/>
	<rect x="215.555" y="331.313" fill="#46484B" width="22.575" height="6.167"/>
	<rect x="218.64" y="400.485" fill="#46484B" width="22.574" height="6.167"/>
	<rect x="266.605" y="400.485" fill="#46484B" width="61.992" height="6.167"/>
	<rect x="366.787" y="400.485" fill="#46484B" width="42.257" height="6.167"/>
	<rect x="1295.396" y="400.485" fill="#46484B" width="58.293" height="6.167"/>
	<rect x="1378.614" y="400.485" fill="#46484B" width="37.575" height="6.167"/>
	<rect x="1394.468" y="454.425" fill="#46484B" width="21.722" height="6.167"/>
	<rect x="1240.887" y="454.425" fill="#46484B" width="21.722" height="6.167"/>
	<rect x="353.332" y="330.699" fill="#46484B" width="55.712" height="6.167"/>
	<rect x="1237.803" y="318.854" fill="#46484B" width="94.442" height="6.167"/>
	<rect x="218.64" y="454.425" fill="#46484B" width="22.574" height="6.167"/>
	<rect x="386.469" y="454.425" fill="#46484B" width="22.575" height="6.167"/>
	<rect x="215.555" y="438.027" fill="#46484B" width="6.17" height="22.564"/>
	<rect x="402.874" y="406.651" fill="#46484B" width="6.17" height="53.939"/>
	<rect x="402.874" y="330.699" fill="#46484B" width="6.17" height="22.564"/>
	<rect x="402.874" y="377.921" fill="#46484B" width="6.17" height="22.564"/>
	<rect x="573.688" y="123.199" fill="#46484B" width="6.17" height="41.502"/>
	<rect x="1068.987" y="124.095" fill="#46484B" width="6.17" height="40.606"/>
	<rect x="1237.803" y="382.783" fill="#46484B" width="6.169" height="77.809"/>
	<rect x="1410.02" y="441.608" fill="#46484B" width="6.17" height="18.983"/>
	<rect x="1410.02" y="321.938" fill="#46484B" width="6.17" height="84.715"/>
	<rect x="1567.576" y="121.806" fill="#46484B" width="6.17" height="122.383"/>
	<rect x="1377.707" y="318.854" fill="#46484B" width="38.482" height="6.167"/>
	<rect x="1559.547" y="112.371" fill="#46484B" width="14.199" height="14.193"/>
	<rect x="1068.987" y="112.371" fill="#46484B" width="14.199" height="14.193"/>
	<rect x="1068.987" y="229.995" fill="#46484B" width="14.199" height="14.193"/>
	<rect x="908.597" y="229.995" fill="#46484B" width="14.199" height="14.193"/>
	<rect x="738.214" y="229.995" fill="#46484B" width="14.199" height="14.193"/>
	<rect x="738.214" y="112.371" fill="#46484B" width="14.199" height="14.193"/>
	<rect x="565.658" y="112.371" fill="#46484B" width="14.199" height="14.193"/>
	<rect x="389.838" y="112.371" fill="#46484B" width="14.199" height="14.193"/>
	<rect x="209.997" y="112.371" fill="#46484B" width="14.199" height="14.193"/>
	<rect x="29.533" y="112.371" fill="#46484B" width="14.199" height="14.193"/>
	<rect x="29.533" y="229.995" fill="#46484B" width="14.199" height="14.193"/>
	<rect x="29.533" y="392.459" fill="#46484B" width="14.199" height="14.193"/>
	<rect x="215.728" y="392.459" fill="#46484B" width="14.199" height="14.193"/>
	<rect x="394.845" y="392.459" fill="#46484B" width="14.199" height="14.193"/>
	<rect x="568.743" y="392.459" fill="#46484B" width="14.199" height="14.193"/>
	<rect x="738.214" y="392.459" fill="#46484B" width="14.199" height="14.193"/>
	<rect x="738.214" y="513.582" fill="#46484B" width="14.199" height="14.193"/>
	<rect x="738.214" y="533.184" fill="#46484B" width="14.199" height="14.192"/>
	<rect x="908.597" y="533.184" fill="#46484B" width="14.199" height="14.192"/>
	<rect x="908.597" y="513.582" fill="#46484B" width="14.199" height="14.193"/>
	<rect x="908.597" y="392.459" fill="#46484B" width="14.199" height="14.193"/>
	<rect x="1073.002" y="392.459" fill="#46484B" width="14.199" height="14.193"/>
	<rect x="1237.803" y="392.459" fill="#46484B" width="14.199" height="14.193"/>
	<rect x="1557.549" y="392.459" fill="#46484B" width="14.199" height="14.193"/>
	<rect x="1401.99" y="392.459" fill="#46484B" width="14.199" height="14.193"/>
	<rect x="209.997" y="229.995" fill="#46484B" width="14.199" height="14.193"/>
	<rect x="389.838" y="229.995" fill="#46484B" width="14.199" height="14.193"/>
	<rect x="565.658" y="229.995" fill="#46484B" width="14.199" height="14.193"/>
	<rect x="908.597" y="112.371" fill="#46484B" width="14.199" height="14.193"/>
	<g>
		<rect x="1191.627" y="112.371" fill="#46484B" width="14.199" height="14.193"/>
		<rect x="1191.627" y="229.995" fill="#46484B" width="14.199" height="14.193"/>
	</g>
	<g>
		<rect x="1314.268" y="112.371" fill="#46484B" width="14.199" height="14.193"/>
		<rect x="1314.268" y="229.995" fill="#46484B" width="14.199" height="14.193"/>
	</g>
	<g>
		<rect x="1436.907" y="112.371" fill="#46484B" width="14.199" height="14.193"/>
		<rect x="1436.907" y="229.995" fill="#46484B" width="14.199" height="14.193"/>
	</g>
	<rect x="1557.549" y="229.995" fill="#46484B" width="14.199" height="14.193"/>
	<text transform="matrix(1.0004 0 0 1 1558.4814 13.7031)" fill="#BC0000" font-family="'MicrosoftYaHei'" font-size="15.9821">北</text>
	<ellipse fill="none" stroke="#BC0000" stroke-miterlimit="10" cx="1566.477" cy="40.341" rx="23.523" ry="9.88"/>
	<polygon fill="none" stroke="#BC0000" stroke-linejoin="round" stroke-miterlimit="10" points="1552.712,58.979 1567.227,21.458 
		1580.24,58.979 1566.476,40.341 	"/>
</g>
</svg>
