<?xml version="1.0" encoding="utf-8"?>
<!-- Generator: Adobe Illustrator 16.0.0, SVG Export Plug-In . SVG Version: 6.00 Build 0)  -->
<!DOCTYPE svg PUBLIC "-//W3C//DTD SVG 1.1//EN" "http://www.w3.org/Graphics/SVG/1.1/DTD/svg11.dtd">
<svg version="1.1" xmlns="http://www.w3.org/2000/svg" xmlns:xlink="http://www.w3.org/1999/xlink" x="0px" y="0px" width="1920px"
	 height="1080px" viewBox="0 0 1920 1080" enable-background="new 0 0 1920 1080" xml:space="preserve">
<g id="org">
	<linearGradient id="SVGID_1_" gradientUnits="userSpaceOnUse" x1="959.9956" y1="-0.2764" x2="959.9955" y2="1079.7241">
		<stop  offset="0" style="stop-color:#4586BC"/>
		<stop  offset="1" style="stop-color:#FFFFFF"/>
	</linearGradient>
	<rect x="-0.004" y="-0.276" fill="url(#SVGID_1_)" width="1920" height="1080"/>
	<path fill="#FFFFFF" d="M1596.059,114.445c0,20.084-12.65,36.366-28.254,36.366H352.188c-15.605,0-28.254-16.281-28.254-36.366l0,0
		c0-20.083,12.648-36.365,28.254-36.365h1215.617C1583.408,78.081,1596.059,94.362,1596.059,114.445L1596.059,114.445z"/>
	<g>
		<g>
			<path fill="#103E61" d="M529.873,116.107v-5.234h39.165v5.234h-15.521v14.258c0.84,3.127-2.527,4.692-10.107,4.692
				c-0.243-1.926-0.902-4.033-1.985-6.317h4.332c0.961,0.122,1.382-0.42,1.263-1.624v-11.01H529.873z M546.297,98.419
				c-0.122-1.083-0.423-2.405-0.902-3.971l-0.181-1.263c0.24-0.119,1.503-0.181,3.79-0.181c2.406,0,3.669,0.062,3.791,0.181
				c0.118,0.121,0.239,1.204,0.361,3.249c0.118,0.964,0.18,1.625,0.18,1.985h14.62v10.288h-6.317v-5.415h-24.727v5.595h-5.956
				V98.419H546.297z"/>
			<path fill="#103E61" d="M599.973,118.092v-17.507h9.385l0.542-1.625h-15.341v-4.692h39.165v4.692h-16.604l-0.542,1.625h12.093
				v17.507h-16.244c-0.243,0.243-0.663,0.722-1.264,1.444h17.688c-1.686,2.77-4.033,5.657-7.039,8.663
				c3.971,0.965,8.24,1.444,12.814,1.444c-1.083,1.923-1.805,3.791-2.166,5.595c-6.858-0.722-12.936-1.985-18.229-3.79
				c-5.054,2.044-11.009,3.187-17.868,3.429c-0.482-1.083-1.205-2.408-2.166-3.971c-0.361-0.482-0.542-0.781-0.542-0.902
				c6.737-0.119,11.61-0.66,14.619-1.625c-1.325-0.961-2.527-1.985-3.609-3.068c-1.444,1.204-3.249,2.347-5.415,3.429
				c-1.083-1.083-2.589-2.346-4.512-3.79c3.849-1.563,7.039-3.85,9.565-6.858H599.973z M605.749,104.015v1.624h16.966v-1.624
				H605.749z M605.749,108.346v1.625h16.966v-1.625H605.749z M622.714,114.482v-1.624h-16.966v1.624H622.714z M610.441,123.326
				c0.722,0.604,2.104,1.687,4.151,3.249c1.444-0.962,2.767-2.045,3.971-3.249H610.441z"/>
			<path fill="#103E61" d="M669.171,109.068h-9.927v-5.234h15.883c0.479,9.868-3.55,18.652-12.092,26.351
				c-2.166-1.562-4.092-2.645-5.776-3.249C663.396,122.847,667.366,116.891,669.171,109.068z M676.39,127.658V93.186h2.527
				c3.127,0,4.512,0.121,4.151,0.361c0,0.243-0.062,0.604-0.181,1.083c-0.121,0.843-0.181,1.565-0.181,2.166v2.166
				c0.722,3.009,1.563,6.018,2.527,9.024c1.923-1.563,4.03-3.909,6.317-7.039c0.361-0.479,0.601-0.781,0.722-0.902
				c0.84,0.121,2.527,1.506,5.054,4.151c0.84,0.843,0.601,1.565-0.722,2.166c-0.243,0.121-0.423,0.243-0.542,0.361
				c-0.482,0.361-1.444,1.083-2.888,2.166c-2.287,1.805-4.092,3.189-5.415,4.151c2.284,4.213,6.498,8.243,12.634,12.093
				c-0.604,0.604-1.805,1.985-3.609,4.151c-0.604,0.722-1.083,1.264-1.444,1.625c-5.415-4.45-9.628-9.927-12.634-16.424v15.522
				c0.962,3.728-2.287,5.353-9.746,4.873c-0.361-1.565-0.964-3.429-1.805-5.595C675.245,129.525,676.991,128.983,676.39,127.658z"/>
			<path fill="#103E61" d="M725.194,106.902c3.849-3.367,7.4-8.181,10.648-14.439c1.323,0.122,3.488,0.482,6.498,1.083l0.18,0.181
				c-0.361,0.604-0.843,1.384-1.444,2.346h16.605l0.18,0.181c-0.964,3.97-3.61,8.122-7.941,12.453
				c3.61,1.805,8.723,2.829,15.341,3.068c-2.047,4.453-3.068,6.799-3.068,7.039c-6.619-1.323-12.634-3.489-18.048-6.498
				c-1.083,0.722-2.346,1.385-3.79,1.985c2.888,0.361,4.873,0.604,5.956,0.722l0.18,0.181c-0.361,0.843-0.722,1.805-1.083,2.888
				h12.273c0,0.243,0,0.604,0,1.083c-0.361,7.34-0.784,11.551-1.264,12.634c0.24,2.284-2.888,3.367-9.385,3.249
				c-0.482-2.287-1.204-4.213-2.166-5.775c4.332,0,6.317-0.299,5.956-0.902c0.24-1.805,0.361-3.61,0.361-5.415h-6.858
				c-1.926,6.858-7.761,11.01-17.507,12.454c-0.604-0.722-1.384-1.867-2.346-3.429c-0.482-0.843-0.843-1.385-1.083-1.625
				c7.82-0.361,12.634-2.826,14.439-7.4h-6.858v-4.873h8.122l0.361-3.429c-2.047,0.964-6.137,2.287-12.273,3.971
				c-0.965,0.361-1.506,0.542-1.625,0.542c-0.964-1.684-1.985-3.367-3.068-5.054c7.581-1.323,13.175-3.127,16.785-5.415
				c-1.444-1.444-2.707-2.947-3.79-4.512c-1.444,1.805-3.068,3.61-4.873,5.415C729.404,108.769,727.599,107.867,725.194,106.902z
				 M747.935,100.946h-7.761c0.722,1.565,2.104,3.13,4.151,4.692C746.009,103.955,747.213,102.39,747.935,100.946z"/>
			<path fill="#103E61" d="M787.713,101.849h6.317v-8.663h1.625c3.249,0,4.752,0.121,4.512,0.361c0,0.121-0.062,0.243-0.181,0.361
				c-0.243,0.722-0.361,1.625-0.361,2.708v5.234h4.512v5.054h-4.512v4.692l3.429-1.083c-0.121,1.444-0.121,3.009,0,4.693
				l-3.429,1.263v13.897c0.361,2.767-2.468,4.151-8.483,4.151c-0.361-2.648-0.843-4.45-1.444-5.415
				c3.367,0.242,4.811-0.299,4.332-1.625v-8.844c-1.565,0.482-3.009,1.023-4.332,1.625c-0.482,0.242-0.784,0.361-0.902,0.361
				c-0.843-2.166-1.385-4.089-1.625-5.775c0.119,0,0.542-0.119,1.264-0.361c1.684-0.361,3.547-0.84,5.595-1.444v-6.317h-6.317
				V101.849z M802.513,108.346c3.61-1.563,5.353-4.332,5.234-8.302v-5.415h14.8v7.761c-0.121,1.565,0.42,2.287,1.625,2.166h5.595
				c-0.482,0.843-0.964,2.346-1.444,4.512c-0.121,0.243-0.18,0.423-0.18,0.542h-7.4c-2.527,0-3.79-1.444-3.79-4.332v-5.775h-3.971
				v2.346c0,3.852-1.625,6.979-4.873,9.385h17.507c-1.326,5.775-3.37,10.589-6.137,14.439c2.285,1.325,5.595,2.346,9.927,3.068
				c-1.325,1.565-2.467,3.61-3.429,6.137c-4.453-1.687-8.122-3.429-11.009-5.234c-3.971,2.285-7.941,4.089-11.912,5.415
				c-0.604-2.408-1.444-4.151-2.527-5.234c4.21-0.722,7.699-2.104,10.468-4.151c-1.565-1.923-3.068-5.054-4.512-9.385h-1.264v-4.332
				c-0.482-1.202-1.263-2.285-2.346-3.249C802.513,108.467,802.392,108.346,802.513,108.346z M811.898,116.288
				c1.083,2.527,2.166,4.453,3.249,5.775c1.083-1.201,2.104-3.127,3.068-5.775H811.898z"/>
			<path fill="#103E61" d="M865.033,103.834c2.045-2.527,3.669-6.196,4.873-11.01c2.767,0.243,4.811,0.604,6.137,1.083
				c0,0.122-0.121,0.423-0.361,0.902c-0.482,0.722-0.843,1.385-1.083,1.985h17.688c-0.482,3.37-1.024,6.317-1.625,8.844
				c-2.166-0.722-4.151-1.083-5.956-1.083c0.119-0.841,0.299-1.923,0.542-3.249h-4.151c0.479,3.853,4.873,6.438,13.175,7.761
				c-0.122,0.122-0.243,0.361-0.361,0.722c-1.326,2.166-2.287,3.971-2.888,5.415c-0.242,0-1.624-0.542-4.151-1.625v13.897h-3.249
				c1.563,0.361,3.791,1.204,6.678,2.527c0.361,0.121,0.66,0.242,0.902,0.361c-1.805,1.444-3.429,3.068-4.873,4.873l-1.263-0.722
				c-5.054-2.77-9.326-4.572-12.814-5.415c-3.37,2.766-8.726,4.811-16.063,6.136c-0.604-1.805-1.565-3.55-2.888-5.234
				c3.85-0.361,7.4-1.083,10.649-2.166h-5.054v-14.8h7.4c-0.243-0.84-0.902-1.805-1.985-2.888c-0.122-0.118-0.243-0.24-0.361-0.361
				c6.255-0.962,10.107-3.79,11.551-8.483h-2.888c-0.361,0.843-1.204,2.346-2.527,4.512c-0.604-0.24-1.746-0.542-3.429-0.902
				c-0.604-0.119-1.023-0.24-1.263-0.361c0.722,1.325,1.263,2.228,1.624,2.707c-4.332,2.648-7.823,5.054-10.468,7.219
				c-0.722,0.604-1.145,0.903-1.264,0.903c-0.964-1.444-1.985-3.367-3.068-5.776c0-0.118,0.361-0.299,1.083-0.542
				c3.367-1.444,7.158-3.488,11.371-6.136L865.033,103.834z M859.077,103.473c-1.205-2.044-2.589-3.909-4.151-5.595
				c-0.482-0.601-0.722-0.961-0.722-1.083c1.684-1.562,3.308-2.766,4.874-3.609c3.367,3.971,5.053,6.258,5.053,6.858
				C861.122,102.209,859.438,103.354,859.077,103.473z M874.779,124.229c2.166,0.722,4.27,1.444,6.317,2.166v-8.663h-16.785v9.927
				c3.006-1.563,4.692-4.332,5.054-8.303c2.888,0,5.113,0.181,6.678,0.542c0.24,0.243,0.119,0.902-0.361,1.985
				C875.199,122.847,874.897,123.628,874.779,124.229z M870.809,113.039h14.799c-3.609-2.166-6.018-4.21-7.219-6.136
				C876.824,109.429,874.297,111.477,870.809,113.039z"/>
			<path fill="#103E61" d="M916.001,106.542c3.006-3.006,6.015-7.158,9.024-12.454c0.601-1.201,0.961-1.805,1.083-1.805
				c2.405,0.604,4.151,1.263,5.234,1.985c0,0.242-0.181,0.482-0.542,0.722c-0.361,0.361-0.604,0.663-0.722,0.902
				c-0.361,0.604-0.722,1.083-1.083,1.444h8.302c-0.243-1.322-0.663-2.707-1.264-4.151c0-0.119,0.903-0.24,2.708-0.361
				c0.722-0.118,1.263-0.18,1.625-0.18c0.24,0,0.542-0.059,0.902-0.181c0.84-0.118,1.201-0.059,1.083,0.181
				c0.24,0.361,0.42,1.565,0.542,3.61c0.118,0.482,0.18,0.843,0.18,1.083h12.273v4.151h-12.814v1.625h11.19v3.79h-11.19v1.624h11.19
				v3.61h-11.19v1.805h12.995v3.971h-14.8v2.347h16.785v4.332h-12.634c3.85,2.888,8.362,4.453,13.537,4.692
				c-1.326,1.444-2.468,3.249-3.429,5.415c-0.722-0.121-1.805-0.482-3.249-1.083c-0.361-0.121-0.604-0.242-0.722-0.361
				c-3.731-1.565-7.16-3.669-10.288-6.317v8.122h-5.595v-7.58c-3.852,2.769-8.482,5.234-13.897,7.4
				c-0.965-1.444-2.347-2.95-4.151-4.512c6.015-1.323,10.648-3.249,13.897-5.775h-13.356v-4.332h17.507v-2.347h-6.497v1.083h-5.595
				v-13.356c-1.805,2.287-3.068,3.672-3.79,4.151c-0.482-0.84-1.385-1.805-2.708-2.888
				C916.301,106.784,916.12,106.663,916.001,106.542z M928.636,103.112h8.482v-1.625h-8.482V103.112z M937.118,108.526v-1.624
				h-8.482v1.624H937.118z M928.636,112.136v1.805h8.482v-1.805H928.636z"/>
			<path fill="#103E61" d="M983.756,134.517V94.99h36.819v39.707h-5.956v-2.166h-25.269v1.985H983.756z M990.795,104.736h11.912
				v-5.053h-13.356v28.516h11.01c-0.242-2.044-0.722-3.669-1.443-4.873c3.006,0.243,4.27-0.299,3.79-1.624v-7.761
				c-2.048,3.853-5.054,7.581-9.024,11.19c-0.844-1.444-1.985-2.826-3.43-4.151c3.61-2.645,6.616-6.498,9.024-11.551h-8.482V104.736
				z M1014.799,99.683h-6.316v5.053h4.873v4.693h-4.873v14.258c0.239,2.526-1.023,4.033-3.79,4.512h10.106V99.683z"/>
			<path fill="#103E61" d="M1046.637,97.878h14.258c0.479-0.961,0.902-2.527,1.264-4.692c0.118-0.119,0.181-0.24,0.181-0.361
				c1.805,0,3.85,0.181,6.137,0.542c1.443,0.243,1.863,0.784,1.263,1.625c-0.121,0.243-0.242,0.423-0.36,0.542
				c-0.361,0.843-0.784,1.625-1.264,2.346h19.492v5.054h-21.839c-0.722,0.964-1.443,1.985-2.165,3.068h18.048v24.004
				c0.841,3.367-2.287,5.053-9.385,5.053c-0.965-3.13-1.625-5.113-1.985-5.956c3.971,0.361,5.654-0.119,5.054-1.444v-1.985h-12.995
				v8.663h-5.775v-18.951c-0.243,0.242-0.542,0.541-0.902,0.902c-1.687,1.686-3.37,3.189-5.054,4.512
				c-0.722-0.84-2.166-2.225-4.332-4.151c1.684,1.325,1.503,1.145-0.541-0.542c5.775-3.61,10.045-8,12.814-13.175h-11.912V97.878z
				 M1062.339,113.761h12.995v-2.888h-12.995V113.761z M1075.334,118.092h-12.995v3.068h12.995V118.092z"/>
			<path fill="#103E61" d="M1112.586,133.975V94.449h14.619c-0.361,4.453-1.385,9.267-3.068,14.439
				c2.044,3.852,3.006,7.101,2.888,9.746c0.601,4.692-1.805,7.341-7.22,7.941c-0.482-1.805-1.145-3.249-1.985-4.332v11.731H1112.586
				z M1117.819,99.142v21.478c4.571,0.121,4.812-3.669,0.723-11.371c1.322-3.127,2.165-6.498,2.526-10.107H1117.819z
				 M1125.941,129.463c0-0.119,0.118-0.24,0.361-0.361c1.322-1.083,1.985-2.347,1.985-3.791V94.629h20.575v19.853h-1.264
				c2.646,2.287,3.971,3.551,3.971,3.791c0,0.121-0.784,0.604-2.347,1.444c-2.047,1.083-3.73,2.047-5.054,2.888
				c2.045,2.648,5.113,4.692,9.205,6.136c-2.047,1.444-3.609,3.249-4.692,5.415c-8.303-4.45-12.696-11.009-13.176-19.673h-1.624
				v11.912l3.068-1.805c0.36,1.565,1.021,3.189,1.985,4.873c-2.888,1.201-5.775,2.767-8.663,4.692
				c-0.604,0.479-0.965,0.722-1.083,0.722C1129.068,134.756,1127.986,132.951,1125.941,129.463z M1134.063,99.322v2.888h8.663
				v-2.888H1134.063z M1134.063,106.361v3.429h8.663v-3.429H1134.063z M1146.336,114.482h-5.414c0,0.122,0.059,0.302,0.181,0.542
				c0.118,1.444,0.42,2.527,0.902,3.249C1143.81,117.071,1145.253,115.808,1146.336,114.482z"/>
			<path fill="#103E61" d="M1174.563,114.663c7.099-6.616,11.069-12.814,11.912-18.59c3.367,0.964,5.714,1.625,7.039,1.985
				c0.479,0.243,0.541,0.542,0.181,0.902c-5.054,8.184-9.565,14.8-13.536,19.854
				C1178.715,117.252,1176.848,115.867,1174.563,114.663z M1181.242,127.297l0.36-0.18c3.971-1.202,7.519-7.158,10.648-17.868
				c0.723,0,3.007,0.604,6.858,1.805c0.24,0.243,0.299,0.482,0.181,0.722c-2.647,3.852-5.536,8.725-8.663,14.619
				c0.361,0.121,2.826,0,7.399-0.361c2.045-0.119,3.489-0.181,4.332-0.181c-1.325-1.923-2.828-3.728-4.512-5.415l5.233-3.249
				c4.332,5.415,7.699,10.229,10.107,14.438l-6.678,2.888c-0.243-1.205-0.902-2.589-1.985-4.151
				c-7.941,0.361-14.561,1.142-19.854,2.346c-0.843,0.119-1.325,0.181-1.443,0.181c-0.243-0.121-0.844-1.746-1.806-4.873
				C1181.301,127.658,1181.242,127.418,1181.242,127.297z M1212.826,118.814c-6.497-4.572-11.433-11.551-14.8-20.937
				c-0.36-1.323-0.662-2.166-0.902-2.527c1.444-0.722,3.489-1.201,6.137-1.444c1.083,6.379,5.895,12.575,14.438,18.59
				C1216.014,114.184,1214.389,116.288,1212.826,118.814z"/>
			<path fill="#103E61" d="M1270.293,104.195v4.873h-27.795v-4.873H1270.293z M1272.459,100.946h-27.795v-5.415h34.111v32.848
				c1.083,5.054-2.347,7.279-10.287,6.678c-0.243-2.047-0.604-3.852-1.083-5.415c3.728,0.243,5.414-0.601,5.054-2.526V100.946z
				 M1261.63,129.463v-2.708h-9.927v3.429h-5.775v-18.048h21.838v17.327H1261.63z M1261.63,117.009h-9.927v5.054h9.927V117.009z"/>
		</g>
	</g>
	<g>
		<path fill="#FFFFFF" stroke="#009FE8" stroke-miterlimit="10" d="M360.67,170.695c0,3.971-3.219,7.189-7.19,7.189l0,0
			c-3.971,0-7.19-3.219-7.19-7.189l0,0c0-3.972,3.219-7.191,7.19-7.191l0,0C357.451,163.504,360.67,166.724,360.67,170.695
			L360.67,170.695z"/>
		<line fill="none" stroke="#FFFFFF" stroke-width="2" stroke-miterlimit="10" x1="353.48" y1="177.885" x2="353.48" y2="239.927"/>
		
			<line fill="none" stroke="#FFFFFF" stroke-width="2" stroke-miterlimit="10" x1="354.081" y1="238.992" x2="226.859" y2="302.668"/>
	</g>
	<g>
		<path fill="#FFFFFF" stroke="#009FE8" stroke-miterlimit="10" d="M451.02,170.695c0,3.971-3.22,7.189-7.19,7.189l0,0
			c-3.971,0-7.19-3.219-7.19-7.189l0,0c0-3.972,3.22-7.191,7.19-7.191l0,0C447.8,163.504,451.02,166.724,451.02,170.695
			L451.02,170.695z"/>
		
			<line fill="none" stroke="#FFFFFF" stroke-width="2" stroke-miterlimit="10" x1="443.829" y1="177.885" x2="443.829" y2="293.047"/>
	</g>
	<g>
		<path fill="#FFFFFF" stroke="#009FE8" stroke-miterlimit="10" d="M763.838,170.695c0,3.971-3.22,7.189-7.19,7.189l0,0
			c-3.971,0-7.19-3.219-7.19-7.189l0,0c0-3.972,3.22-7.191,7.19-7.191l0,0C760.619,163.504,763.838,166.724,763.838,170.695
			L763.838,170.695z"/>
		
			<line fill="none" stroke="#FFFFFF" stroke-width="2" stroke-miterlimit="10" x1="756.648" y1="177.885" x2="756.648" y2="293.047"/>
	</g>
	<g>
		<path fill="#FFFFFF" stroke="#009FE8" stroke-miterlimit="10" d="M1105.549,170.695c0,3.971-3.22,7.189-7.19,7.189l0,0
			c-3.971,0-7.19-3.219-7.19-7.189l0,0c0-3.972,3.22-7.191,7.19-7.191l0,0C1102.329,163.504,1105.549,166.724,1105.549,170.695
			L1105.549,170.695z"/>
		
			<line fill="none" stroke="#FFFFFF" stroke-width="2" stroke-miterlimit="10" x1="1098.358" y1="177.885" x2="1098.358" y2="293.047"/>
	</g>
	<g>
		<path fill="#FFFFFF" stroke="#009FE8" stroke-miterlimit="10" d="M1411.385,170.695c0,3.971-3.221,7.189-7.191,7.189l0,0
			c-3.971,0-7.189-3.219-7.189-7.189l0,0c0-3.972,3.219-7.191,7.189-7.191l0,0C1408.164,163.504,1411.385,166.724,1411.385,170.695
			L1411.385,170.695z"/>
		
			<line fill="none" stroke="#FFFFFF" stroke-width="2" stroke-miterlimit="10" x1="1404.193" y1="177.885" x2="1404.193" y2="293.047"/>
	</g>
	<path fill="none" stroke="#FFFFFF" stroke-width="2" stroke-miterlimit="10" d="M229.576,455.871
		c0,13.121-8.146,23.755-18.194,23.755h-18.097c-10.049,0-18.194-10.635-18.194-23.755v-129.38c0-13.121,8.146-23.755,18.194-23.755
		h18.097c10.049,0,18.194,10.635,18.194,23.755V455.871z"/>
	
		<line fill="none" stroke="#FFFFFF" stroke-width="2" stroke-miterlimit="10" x1="202.333" y1="479.369" x2="202.333" y2="553.434"/>
	<g>
		<circle fill="#FFFFFF" stroke="#009FE8" stroke-width="2" stroke-miterlimit="10" cx="202.333" cy="312.476" r="28.177"/>
		<path fill="#009FE8" d="M212.383,310.713c-1.874-5.226-5.846-9.921-10.049-13.483c-4.204,3.563-8.174,8.257-10.049,13.483
			c-1.158,3.233-1.272,6.743,0.359,9.843c1.877,3.566,5.66,5.854,9.688,5.854c4.029,0,7.814-2.288,9.689-5.854
			c1.633-3.1,1.518-6.61,0.358-9.843H212.383z"/>
		<path fill="none" stroke="#FFFFFF" stroke-miterlimit="10" d="M197.007,315.327c0,0-0.696,2.594,0.627,4.094
			c1.699,1.927,3.202,2.072,3.202,2.072"/>
	</g>
	<g>
		<g>
			
				<path fill="#FFFFFF" stroke="#231815" stroke-width="4" stroke-linecap="round" stroke-linejoin="round" stroke-miterlimit="10" d="
				M193.427,369.657v-12.469h-1.594v-2.531h10.781v2.531h-1.125v10.875l1.406-0.281c-0.063,0.501-0.094,1.345-0.094,2.531
				l-1.313,0.375v3.094c1.374-1.937,2.405-4.25,3.094-6.938l2.719,0.844c-1.375,3.625-2.563,6.125-3.563,7.5
				c-0.25-0.126-0.625-0.281-1.125-0.469c-0.501-0.25-0.876-0.438-1.125-0.563v1.219h-2.813v-4.125
				c-2.125,0.501-4.313,1.094-6.563,1.781l-0.844-3.094L193.427,369.657z M196.052,359.625h2.625v-2.438h-2.625V359.625z
				 M196.052,361.875v2.531h2.625v-2.531H196.052z M198.677,368.719v-2.063h-2.625v2.625c0.375-0.125,0.938-0.249,1.688-0.375
				C198.176,368.845,198.49,368.782,198.677,368.719z M203.365,366.188v-11.531h8.531v11.531H203.365z M205.99,363.75h2.906v-6.563
				h-2.906V363.75z M210.865,375.282c-0.75-2.687-1.688-5.156-2.813-7.406l2.625-1.031c0.375,0.75,0.905,1.938,1.594,3.563
				c0.687,1.626,1.187,2.813,1.5,3.563L210.865,375.282z"/>
			
				<path fill="#FFFFFF" stroke="#231815" stroke-width="4" stroke-linecap="round" stroke-linejoin="round" stroke-miterlimit="10" d="
				M192.302,387.863c0.812-0.188,1.406-0.624,1.781-1.313c1.187-2.063,1.875-3.469,2.063-4.219c2.25,0.501,3.375,0.813,3.375,0.938
				c-1.188,1.313-2.313,2.813-3.375,4.5l3.375-0.094c-0.501-0.875-0.97-1.625-1.406-2.25c0.687-0.312,1.5-0.656,2.438-1.031
				c1.562,2.376,2.499,3.938,2.813,4.688c-0.438,0.375-1.219,0.844-2.344,1.406c-0.063,0-0.188-0.312-0.375-0.938
				c-2.376,0.188-4.532,0.407-6.469,0.656c-0.625,0.063-1.063,0.094-1.313,0.094C192.49,389.489,192.302,388.676,192.302,387.863z
				 M193.146,404.082v-12.938h8.906v10.781c0.188,1.749-1.157,2.499-4.031,2.25c-0.126-0.876-0.344-1.688-0.656-2.438h0.844
				c0.563,0,0.844-0.249,0.844-0.75v-1.125h-3.094v4.219H193.146z M195.958,393.582v1.125h3.188v-1.125H195.958z M195.958,397.8
				h3.188v-1.125h-3.188V397.8z M213.021,399.769c0,3.125-1.063,4.562-3.188,4.313h-4.219c-1.438,0.062-2.125-0.656-2.063-2.156
				v-8.531h0.563c1.812,0,2.687,0.126,2.625,0.375c0,0.063-0.032,0.22-0.094,0.469c-0.063,0.313-0.094,0.595-0.094,0.844v1.031
				c0.999-0.437,2.156-1.25,3.469-2.438c1.749,1.5,2.625,2.313,2.625,2.438c-0.438,0.188-1.5,0.656-3.188,1.406
				c-1.313,0.625-2.282,1.063-2.906,1.313v1.875c0,0.501,0.249,0.75,0.75,0.75h1.688c0.75,0.126,1.062-0.75,0.938-2.625
				C210.739,399.207,211.77,399.52,213.021,399.769z M204.771,382.613c1.437-0.062,2.093,0.032,1.969,0.281
				c0,0.063-0.032,0.157-0.094,0.281c-0.063,0.375-0.094,0.75-0.094,1.125v1.781c1.25-0.624,2.375-1.28,3.375-1.969l0.188-0.188
				c1.562,1.5,2.344,2.313,2.344,2.438c-1.75,0.501-3.719,1.219-5.906,2.156v1.031c-0.063,0.563,0.218,0.813,0.844,0.75h1.5
				c0.75,0.063,1.093-0.563,1.031-1.875c1.062,0.438,2,0.813,2.813,1.125c-0.25,2.5-1.251,3.595-3,3.281h-3.188
				c-2.063,0.126-3.063-0.53-3-1.969v-8.25H204.771z"/>
			
				<path fill="#FFFFFF" stroke="#231815" stroke-width="4" stroke-linecap="round" stroke-linejoin="round" stroke-miterlimit="10" d="
				M199.896,416.476c1.875,0.438,2.906,0.719,3.094,0.844c0,0.063-0.063,0.188-0.188,0.375c-0.438,0.625-0.876,1.438-1.313,2.438
				h2.438v2.344h-12v-2.344h3.281c-0.25-0.624-0.656-1.5-1.219-2.625l2.719-0.938l1.219,2.813l-1.969,0.75h2.625
				C199.02,419.133,199.458,417.914,199.896,416.476z M197.177,413.944c-0.126-0.375-0.281-0.905-0.469-1.594
				c-0.063-0.375-0.126-0.656-0.188-0.844c0.375-0.062,0.968-0.125,1.781-0.188c0.75-0.125,1.313-0.188,1.688-0.188
				c0.125,0.813,0.218,1.75,0.281,2.813h3.563v2.344h-11.063v-2.344H197.177z M193.708,432.038v-8.25h9.188v8.156h-2.906v-1.219
				h-3.563v1.313H193.708z M196.427,426.038v2.531h3.563v-2.531H196.427z M204.677,433.257v-20.438h8.438
				c-0.25,1.125-0.688,3.157-1.313,6.094l-0.469,1.969c2.187,4.063,2.375,7,0.563,8.813c-0.313,0.188-0.813,0.344-1.5,0.469
				c-1,0.126-1.688,0.157-2.063,0.094c0-1.313-0.188-2.344-0.563-3.094c0.875,0,1.406-0.062,1.594-0.188
				c1.187-0.938,0.875-2.78-0.938-5.531c0-0.062,0.155-0.875,0.469-2.438c0.375-1.875,0.624-3.125,0.75-3.75h-2.156v18H204.677z"/>
			
				<path fill="#FFFFFF" stroke="#231815" stroke-width="4" stroke-linecap="round" stroke-linejoin="round" stroke-miterlimit="10" d="
				M193.333,461.119v-17.625h1.125c1.374,0,2,0.032,1.875,0.094c0.062,0.063,0.062,0.25,0,0.563
				c-0.188,0.563-0.281,1.157-0.281,1.781v15.188H193.333z M197.177,445.369c-0.188-1.749-0.563-3.218-1.125-4.406
				c1.437-0.437,2.405-0.687,2.906-0.75c0.5,1.063,0.905,2.594,1.219,4.594C199.427,444.87,198.427,445.057,197.177,445.369z
				 M208.427,457.838v-13.313h-7.5v-2.531h10.594v16.219c0.375,2.687-1.219,3.875-4.781,3.563c-0.063,0-0.094-0.157-0.094-0.469
				c-0.126-1-0.407-1.812-0.844-2.438C207.865,458.869,208.739,458.526,208.427,457.838z"/>
		</g>
		<g>
			<path fill="#FFFFFF" d="M193.427,369.657v-12.469h-1.594v-2.531h10.781v2.531h-1.125v10.875l1.406-0.281
				c-0.063,0.501-0.094,1.345-0.094,2.531l-1.313,0.375v3.094c1.374-1.937,2.405-4.25,3.094-6.938l2.719,0.844
				c-1.375,3.625-2.563,6.125-3.563,7.5c-0.25-0.126-0.625-0.281-1.125-0.469c-0.501-0.25-0.876-0.438-1.125-0.563v1.219h-2.813
				v-4.125c-2.125,0.501-4.313,1.094-6.563,1.781l-0.844-3.094L193.427,369.657z M196.052,359.625h2.625v-2.438h-2.625V359.625z
				 M196.052,361.875v2.531h2.625v-2.531H196.052z M198.677,368.719v-2.063h-2.625v2.625c0.375-0.125,0.938-0.249,1.688-0.375
				C198.176,368.845,198.49,368.782,198.677,368.719z M203.365,366.188v-11.531h8.531v11.531H203.365z M205.99,363.75h2.906v-6.563
				h-2.906V363.75z M210.865,375.282c-0.75-2.687-1.688-5.156-2.813-7.406l2.625-1.031c0.375,0.75,0.905,1.938,1.594,3.563
				c0.687,1.626,1.187,2.813,1.5,3.563L210.865,375.282z"/>
			<path fill="#FFFFFF" d="M192.302,387.863c0.812-0.188,1.406-0.624,1.781-1.313c1.187-2.063,1.875-3.469,2.063-4.219
				c2.25,0.501,3.375,0.813,3.375,0.938c-1.188,1.313-2.313,2.813-3.375,4.5l3.375-0.094c-0.501-0.875-0.97-1.625-1.406-2.25
				c0.687-0.312,1.5-0.656,2.438-1.031c1.562,2.376,2.499,3.938,2.813,4.688c-0.438,0.375-1.219,0.844-2.344,1.406
				c-0.063,0-0.188-0.312-0.375-0.938c-2.376,0.188-4.532,0.407-6.469,0.656c-0.625,0.063-1.063,0.094-1.313,0.094
				C192.49,389.489,192.302,388.676,192.302,387.863z M193.146,404.082v-12.938h8.906v10.781c0.188,1.749-1.157,2.499-4.031,2.25
				c-0.126-0.876-0.344-1.688-0.656-2.438h0.844c0.563,0,0.844-0.249,0.844-0.75v-1.125h-3.094v4.219H193.146z M195.958,393.582
				v1.125h3.188v-1.125H195.958z M195.958,397.8h3.188v-1.125h-3.188V397.8z M213.021,399.769c0,3.125-1.063,4.562-3.188,4.313
				h-4.219c-1.438,0.062-2.125-0.656-2.063-2.156v-8.531h0.563c1.812,0,2.687,0.126,2.625,0.375c0,0.063-0.032,0.22-0.094,0.469
				c-0.063,0.313-0.094,0.595-0.094,0.844v1.031c0.999-0.437,2.156-1.25,3.469-2.438c1.749,1.5,2.625,2.313,2.625,2.438
				c-0.438,0.188-1.5,0.656-3.188,1.406c-1.313,0.625-2.282,1.063-2.906,1.313v1.875c0,0.501,0.249,0.75,0.75,0.75h1.688
				c0.75,0.126,1.062-0.75,0.938-2.625C210.739,399.207,211.77,399.52,213.021,399.769z M204.771,382.613
				c1.437-0.062,2.093,0.032,1.969,0.281c0,0.063-0.032,0.157-0.094,0.281c-0.063,0.375-0.094,0.75-0.094,1.125v1.781
				c1.25-0.624,2.375-1.28,3.375-1.969l0.188-0.188c1.562,1.5,2.344,2.313,2.344,2.438c-1.75,0.501-3.719,1.219-5.906,2.156v1.031
				c-0.063,0.563,0.218,0.813,0.844,0.75h1.5c0.75,0.063,1.093-0.563,1.031-1.875c1.062,0.438,2,0.813,2.813,1.125
				c-0.25,2.5-1.251,3.595-3,3.281h-3.188c-2.063,0.126-3.063-0.53-3-1.969v-8.25H204.771z"/>
			<path fill="#FFFFFF" d="M199.896,416.476c1.875,0.438,2.906,0.719,3.094,0.844c0,0.063-0.063,0.188-0.188,0.375
				c-0.438,0.625-0.876,1.438-1.313,2.438h2.438v2.344h-12v-2.344h3.281c-0.25-0.624-0.656-1.5-1.219-2.625l2.719-0.938l1.219,2.813
				l-1.969,0.75h2.625C199.02,419.133,199.458,417.914,199.896,416.476z M197.177,413.944c-0.126-0.375-0.281-0.905-0.469-1.594
				c-0.063-0.375-0.126-0.656-0.188-0.844c0.375-0.062,0.968-0.125,1.781-0.188c0.75-0.125,1.313-0.188,1.688-0.188
				c0.125,0.813,0.218,1.75,0.281,2.813h3.563v2.344h-11.063v-2.344H197.177z M193.708,432.038v-8.25h9.188v8.156h-2.906v-1.219
				h-3.563v1.313H193.708z M196.427,426.038v2.531h3.563v-2.531H196.427z M204.677,433.257v-20.438h8.438
				c-0.25,1.125-0.688,3.157-1.313,6.094l-0.469,1.969c2.187,4.063,2.375,7,0.563,8.813c-0.313,0.188-0.813,0.344-1.5,0.469
				c-1,0.126-1.688,0.157-2.063,0.094c0-1.313-0.188-2.344-0.563-3.094c0.875,0,1.406-0.062,1.594-0.188
				c1.187-0.938,0.875-2.78-0.938-5.531c0-0.062,0.155-0.875,0.469-2.438c0.375-1.875,0.624-3.125,0.75-3.75h-2.156v18H204.677z"/>
			<path fill="#FFFFFF" d="M193.333,461.119v-17.625h1.125c1.374,0,2,0.032,1.875,0.094c0.062,0.063,0.062,0.25,0,0.563
				c-0.188,0.563-0.281,1.157-0.281,1.781v15.188H193.333z M197.177,445.369c-0.188-1.749-0.563-3.218-1.125-4.406
				c1.437-0.437,2.405-0.687,2.906-0.75c0.5,1.063,0.905,2.594,1.219,4.594C199.427,444.87,198.427,445.057,197.177,445.369z
				 M208.427,457.838v-13.313h-7.5v-2.531h10.594v16.219c0.375,2.687-1.219,3.875-4.781,3.563c-0.063,0-0.094-0.157-0.094-0.469
				c-0.126-1-0.407-1.812-0.844-2.438C207.865,458.869,208.739,458.526,208.427,457.838z"/>
		</g>
	</g>
	<path fill="none" stroke="#FFFFFF" stroke-width="2" stroke-miterlimit="10" d="M471.072,455.871
		c0,13.121-8.146,23.755-18.194,23.755h-18.097c-10.049,0-18.194-10.635-18.194-23.755v-129.38c0-13.121,8.146-23.755,18.194-23.755
		h18.097c10.049,0,18.194,10.635,18.194,23.755V455.871z"/>
	
		<line fill="none" stroke="#FFFFFF" stroke-width="2" stroke-miterlimit="10" x1="443.829" y1="479.369" x2="443.829" y2="553.434"/>
	<g>
		<circle fill="#FFFFFF" stroke="#009FE8" stroke-width="2" stroke-miterlimit="10" cx="443.829" cy="312.476" r="28.177"/>
		<path fill="#009FE8" d="M453.879,310.713c-1.874-5.226-5.846-9.921-10.049-13.483c-4.204,3.563-8.174,8.257-10.049,13.483
			c-1.158,3.233-1.272,6.743,0.359,9.843c1.877,3.566,5.66,5.854,9.688,5.854c4.029,0,7.814-2.288,9.689-5.854
			c1.633-3.1,1.518-6.61,0.358-9.843H453.879z"/>
		<path fill="none" stroke="#FFFFFF" stroke-miterlimit="10" d="M438.503,315.327c0,0-0.696,2.594,0.627,4.094
			c1.699,1.927,3.202,2.072,3.202,2.072"/>
	</g>
	<g>
		<g>
			
				<path fill="#FFFFFF" stroke="#231815" stroke-width="4" stroke-linecap="round" stroke-linejoin="round" stroke-miterlimit="10" d="
				M432.861,363.024c5.124-2.687,8.281-5.813,9.469-9.375c2.687,0.625,4.031,1,4.031,1.125c0,0.126-0.094,0.25-0.281,0.375
				c-0.126,0.126-0.22,0.25-0.281,0.375c2,3.126,5.124,5.313,9.375,6.563c-0.625,0.813-1.251,1.844-1.875,3.094
				c-0.188-0.062-0.438-0.188-0.75-0.375c-0.876-0.375-1.5-0.687-1.875-0.938v0.938h-4.969v2.344h6.094v2.531h-6.094v2.719h7.969
				v2.438h-19.313v-2.438h7.969v-2.719h-6v-2.531h6v-2.344h-4.969v-1.031c-0.75,0.563-1.563,1.063-2.438,1.5
				C434.235,364.4,433.548,363.65,432.861,363.024z M448.236,362.181c-1.626-1.25-3.032-2.719-4.219-4.406
				c-1.063,1.5-2.47,2.969-4.219,4.406H448.236z"/>
			
				<path fill="#FFFFFF" stroke="#231815" stroke-width="4" stroke-linecap="round" stroke-linejoin="round" stroke-miterlimit="10" d="
				M439.892,388.168c1.062-1.313,1.906-3.218,2.531-5.719c1.437,0.126,2.499,0.313,3.188,0.563c0,0.063-0.063,0.22-0.188,0.469
				c-0.25,0.375-0.438,0.719-0.563,1.031h9.188c-0.25,1.75-0.532,3.281-0.844,4.594c-1.125-0.375-2.156-0.563-3.094-0.563
				c0.062-0.437,0.155-0.999,0.281-1.688h-2.156c0.249,2.001,2.531,3.344,6.844,4.031c-0.063,0.063-0.126,0.188-0.188,0.375
				c-0.688,1.125-1.188,2.063-1.5,2.813c-0.126,0-0.844-0.281-2.156-0.844v7.219h-1.688c0.812,0.188,1.969,0.625,3.469,1.313
				c0.188,0.063,0.343,0.126,0.469,0.188c-0.938,0.75-1.781,1.594-2.531,2.531l-0.656-0.375c-2.625-1.438-4.844-2.375-6.656-2.813
				c-1.75,1.437-4.532,2.499-8.344,3.188c-0.313-0.938-0.813-1.844-1.5-2.719c2-0.188,3.844-0.563,5.531-1.125h-2.625v-7.688h3.844
				c-0.126-0.437-0.469-0.938-1.031-1.5c-0.063-0.062-0.126-0.125-0.188-0.188c3.249-0.5,5.25-1.969,6-4.406h-1.5
				c-0.188,0.438-0.625,1.219-1.313,2.344c-0.313-0.125-0.907-0.281-1.781-0.469c-0.313-0.062-0.532-0.125-0.656-0.188
				c0.375,0.688,0.656,1.157,0.844,1.406c-2.25,1.375-4.063,2.625-5.438,3.75c-0.375,0.313-0.595,0.469-0.656,0.469
				c-0.501-0.75-1.031-1.749-1.594-3c0-0.062,0.188-0.155,0.563-0.281c1.749-0.75,3.718-1.812,5.906-3.188L439.892,388.168z
				 M436.798,387.98c-0.625-1.062-1.345-2.03-2.156-2.906c-0.25-0.312-0.375-0.5-0.375-0.563c0.875-0.812,1.718-1.437,2.531-1.875
				c1.749,2.063,2.625,3.25,2.625,3.563C437.86,387.324,436.986,387.919,436.798,387.98z M444.955,398.762
				c1.125,0.375,2.218,0.75,3.281,1.125v-4.5h-8.719v5.156c1.562-0.812,2.438-2.25,2.625-4.313c1.5,0,2.656,0.094,3.469,0.281
				c0.125,0.126,0.062,0.469-0.188,1.031C445.173,398.044,445.016,398.45,444.955,398.762z M442.892,392.949h7.688
				c-1.875-1.125-3.126-2.187-3.75-3.188C446.017,391.074,444.704,392.138,442.892,392.949z"/>
			
				<path fill="#FFFFFF" stroke="#231815" stroke-width="4" stroke-linecap="round" stroke-linejoin="round" stroke-miterlimit="10" d="
				M432.673,422.569c3.687-3.437,5.75-6.656,6.188-9.656c1.749,0.501,2.968,0.844,3.656,1.031c0.249,0.126,0.281,0.281,0.094,0.469
				c-2.625,4.251-4.969,7.688-7.031,10.313C434.83,423.914,433.86,423.195,432.673,422.569z M436.142,429.132l0.188-0.094
				c2.063-0.624,3.905-3.718,5.531-9.281c0.375,0,1.562,0.313,3.563,0.938c0.125,0.126,0.155,0.25,0.094,0.375
				c-1.375,2.001-2.875,4.532-4.5,7.594c0.188,0.063,1.468,0,3.844-0.188c1.062-0.062,1.812-0.094,2.25-0.094
				c-0.688-0.999-1.469-1.937-2.344-2.813l2.719-1.688c2.25,2.813,3.999,5.313,5.25,7.5l-3.469,1.5
				c-0.126-0.625-0.469-1.345-1.031-2.156c-4.125,0.188-7.563,0.593-10.313,1.219c-0.438,0.062-0.688,0.094-0.75,0.094
				c-0.126-0.063-0.438-0.907-0.938-2.531C436.173,429.319,436.142,429.195,436.142,429.132z M452.548,424.726
				c-3.375-2.375-5.938-6-7.688-10.875c-0.188-0.687-0.344-1.125-0.469-1.313c0.75-0.375,1.812-0.624,3.188-0.75
				c0.563,3.313,3.062,6.532,7.5,9.656C454.204,422.32,453.36,423.413,452.548,424.726z"/>
			
				<path fill="#FFFFFF" stroke="#231815" stroke-width="4" stroke-linecap="round" stroke-linejoin="round" stroke-miterlimit="10" d="
				M448.798,445.932v2.531h-14.438v-2.531H448.798z M449.923,444.244h-14.438v-2.813h17.719v17.063
				c0.563,2.625-1.219,3.781-5.344,3.469c-0.126-1.063-0.313-2.001-0.563-2.813c1.937,0.126,2.813-0.312,2.625-1.313V444.244z
				 M444.298,459.057v-1.406h-5.156v1.781h-3v-9.375h11.344v9H444.298z M444.298,452.588h-5.156v2.625h5.156V452.588z"/>
		</g>
		<g>
			<path fill="#FFFFFF" d="M432.861,363.024c5.124-2.687,8.281-5.813,9.469-9.375c2.687,0.625,4.031,1,4.031,1.125
				c0,0.126-0.094,0.25-0.281,0.375c-0.126,0.126-0.22,0.25-0.281,0.375c2,3.126,5.124,5.313,9.375,6.563
				c-0.625,0.813-1.251,1.844-1.875,3.094c-0.188-0.062-0.438-0.188-0.75-0.375c-0.876-0.375-1.5-0.687-1.875-0.938v0.938h-4.969
				v2.344h6.094v2.531h-6.094v2.719h7.969v2.438h-19.313v-2.438h7.969v-2.719h-6v-2.531h6v-2.344h-4.969v-1.031
				c-0.75,0.563-1.563,1.063-2.438,1.5C434.235,364.4,433.548,363.65,432.861,363.024z M448.236,362.181
				c-1.626-1.25-3.032-2.719-4.219-4.406c-1.063,1.5-2.47,2.969-4.219,4.406H448.236z"/>
			<path fill="#FFFFFF" d="M439.892,388.168c1.062-1.313,1.906-3.218,2.531-5.719c1.437,0.126,2.499,0.313,3.188,0.563
				c0,0.063-0.063,0.22-0.188,0.469c-0.25,0.375-0.438,0.719-0.563,1.031h9.188c-0.25,1.75-0.532,3.281-0.844,4.594
				c-1.125-0.375-2.156-0.563-3.094-0.563c0.062-0.437,0.155-0.999,0.281-1.688h-2.156c0.249,2.001,2.531,3.344,6.844,4.031
				c-0.063,0.063-0.126,0.188-0.188,0.375c-0.688,1.125-1.188,2.063-1.5,2.813c-0.126,0-0.844-0.281-2.156-0.844v7.219h-1.688
				c0.812,0.188,1.969,0.625,3.469,1.313c0.188,0.063,0.343,0.126,0.469,0.188c-0.938,0.75-1.781,1.594-2.531,2.531l-0.656-0.375
				c-2.625-1.438-4.844-2.375-6.656-2.813c-1.75,1.437-4.532,2.499-8.344,3.188c-0.313-0.938-0.813-1.844-1.5-2.719
				c2-0.188,3.844-0.563,5.531-1.125h-2.625v-7.688h3.844c-0.126-0.437-0.469-0.938-1.031-1.5c-0.063-0.062-0.126-0.125-0.188-0.188
				c3.249-0.5,5.25-1.969,6-4.406h-1.5c-0.188,0.438-0.625,1.219-1.313,2.344c-0.313-0.125-0.907-0.281-1.781-0.469
				c-0.313-0.062-0.532-0.125-0.656-0.188c0.375,0.688,0.656,1.157,0.844,1.406c-2.25,1.375-4.063,2.625-5.438,3.75
				c-0.375,0.313-0.595,0.469-0.656,0.469c-0.501-0.75-1.031-1.749-1.594-3c0-0.062,0.188-0.155,0.563-0.281
				c1.749-0.75,3.718-1.812,5.906-3.188L439.892,388.168z M436.798,387.98c-0.625-1.062-1.345-2.03-2.156-2.906
				c-0.25-0.312-0.375-0.5-0.375-0.563c0.875-0.812,1.718-1.437,2.531-1.875c1.749,2.063,2.625,3.25,2.625,3.563
				C437.86,387.324,436.986,387.919,436.798,387.98z M444.955,398.762c1.125,0.375,2.218,0.75,3.281,1.125v-4.5h-8.719v5.156
				c1.562-0.812,2.438-2.25,2.625-4.313c1.5,0,2.656,0.094,3.469,0.281c0.125,0.126,0.062,0.469-0.188,1.031
				C445.173,398.044,445.016,398.45,444.955,398.762z M442.892,392.949h7.688c-1.875-1.125-3.126-2.187-3.75-3.188
				C446.017,391.074,444.704,392.138,442.892,392.949z"/>
			<path fill="#FFFFFF" d="M432.673,422.569c3.687-3.437,5.75-6.656,6.188-9.656c1.749,0.501,2.968,0.844,3.656,1.031
				c0.249,0.126,0.281,0.281,0.094,0.469c-2.625,4.251-4.969,7.688-7.031,10.313C434.83,423.914,433.86,423.195,432.673,422.569z
				 M436.142,429.132l0.188-0.094c2.063-0.624,3.905-3.718,5.531-9.281c0.375,0,1.562,0.313,3.563,0.938
				c0.125,0.126,0.155,0.25,0.094,0.375c-1.375,2.001-2.875,4.532-4.5,7.594c0.188,0.063,1.468,0,3.844-0.188
				c1.062-0.062,1.812-0.094,2.25-0.094c-0.688-0.999-1.469-1.937-2.344-2.813l2.719-1.688c2.25,2.813,3.999,5.313,5.25,7.5
				l-3.469,1.5c-0.126-0.625-0.469-1.345-1.031-2.156c-4.125,0.188-7.563,0.593-10.313,1.219c-0.438,0.062-0.688,0.094-0.75,0.094
				c-0.126-0.063-0.438-0.907-0.938-2.531C436.173,429.319,436.142,429.195,436.142,429.132z M452.548,424.726
				c-3.375-2.375-5.938-6-7.688-10.875c-0.188-0.687-0.344-1.125-0.469-1.313c0.75-0.375,1.812-0.624,3.188-0.75
				c0.563,3.313,3.062,6.532,7.5,9.656C454.204,422.32,453.36,423.413,452.548,424.726z"/>
			<path fill="#FFFFFF" d="M448.798,445.932v2.531h-14.438v-2.531H448.798z M449.923,444.244h-14.438v-2.813h17.719v17.063
				c0.563,2.625-1.219,3.781-5.344,3.469c-0.126-1.063-0.313-2.001-0.563-2.813c1.937,0.126,2.813-0.312,2.625-1.313V444.244z
				 M444.298,459.057v-1.406h-5.156v1.781h-3v-9.375h11.344v9H444.298z M444.298,452.588h-5.156v2.625h5.156V452.588z"/>
		</g>
	</g>
	<path fill="none" stroke="#FFFFFF" stroke-width="2" stroke-miterlimit="10" d="M783.891,455.871
		c0,13.121-8.146,23.755-18.195,23.755H747.6c-10.049,0-18.195-10.635-18.195-23.755v-129.38c0-13.121,8.146-23.755,18.195-23.755
		h18.096c10.049,0,18.195,10.635,18.195,23.755V455.871z"/>
	
		<line fill="none" stroke="#FFFFFF" stroke-width="2" stroke-miterlimit="10" x1="756.648" y1="479.369" x2="756.648" y2="553.434"/>
	<g>
		<circle fill="#FFFFFF" stroke="#009FE8" stroke-width="2" stroke-miterlimit="10" cx="756.648" cy="312.476" r="28.177"/>
		<path fill="#009FE8" d="M766.698,310.713c-1.874-5.226-5.846-9.921-10.049-13.483c-4.204,3.563-8.174,8.257-10.049,13.483
			c-1.158,3.233-1.272,6.743,0.36,9.843c1.877,3.566,5.66,5.854,9.688,5.854c4.029,0,7.814-2.288,9.689-5.854
			c1.632-3.1,1.518-6.61,0.358-9.843H766.698z"/>
		<path fill="none" stroke="#FFFFFF" stroke-miterlimit="10" d="M751.321,315.327c0,0-0.696,2.594,0.627,4.094
			c1.7,1.927,3.203,2.072,3.203,2.072"/>
	</g>
	<g>
		<g>
			
				<path fill="#FFFFFF" stroke="#231815" stroke-width="4" stroke-linecap="round" stroke-linejoin="round" stroke-miterlimit="10" d="
				M766.774,366.024v2.531h-4.688v3.844h5.719v2.438h-14.25v-2.438h5.344v-3.844h-4.406v-2.625h0.656
				c0-0.062-0.032-0.094-0.094-0.094c-0.313-0.437-0.719-0.844-1.219-1.219c0,0.25,0,0.469,0,0.656c0.062,0.188,0.062,0.281,0,0.281
				l-2.063,0.844v6.844c0.125,1.062-0.375,1.655-1.5,1.781c-0.438,0.125-1.438,0.188-3,0.188c-0.188-1.313-0.438-2.187-0.75-2.625
				c1.937,0.126,2.719-0.125,2.344-0.75v-4.406c-0.25,0.126-0.656,0.313-1.219,0.563c-0.438,0.25-0.75,0.407-0.938,0.469h-0.188
				c-0.313-1.062-0.625-2-0.938-2.813c0-0.125,0.062-0.188,0.188-0.188c0.312-0.062,0.968-0.249,1.969-0.563
				c0.5-0.125,0.875-0.218,1.125-0.281v-3.938h-2.906v-2.531h2.906v-4.219h1.969c0.812,0,1.187,0.063,1.125,0.188
				c0,0.063-0.032,0.188-0.094,0.375c-0.063,0.375-0.094,0.813-0.094,1.313v2.344h1.594v2.531h-1.594v3.094
				c0.375-0.125,1.031-0.375,1.969-0.75v0.938c1.749-0.999,3.249-2.344,4.5-4.031c1.5,0.938,2.281,1.469,2.344,1.594
				c0.125,0.063,0.031,0.22-0.281,0.469c-2.001,1.813-3.532,3.157-4.594,4.031H766.774z M754.118,356.368h4.969l-0.563-2.438
				l3.656-0.281l0.375,2.719h4.781v4.406h-2.906v-1.875h-7.5v2.156h-2.813V356.368z M765.368,365.743
				c-1.313-1.374-2.751-2.78-4.313-4.219l1.781-1.875c1.062,0.876,2.625,2.25,4.688,4.125
				C766.898,364.149,766.179,364.806,765.368,365.743z"/>
			
				<path fill="#FFFFFF" stroke="#231815" stroke-width="4" stroke-linecap="round" stroke-linejoin="round" stroke-miterlimit="10" d="
				M754.868,401.925c0.062,1.062-1.188,1.655-3.75,1.781c-0.126-1-0.438-1.906-0.938-2.719c1.313,0.063,1.937-0.281,1.875-1.031
				v-3.75h-2.063c0,2.875-0.563,5.5-1.688,7.875c-0.625-0.501-1.469-1.031-2.531-1.594c0.999-2.25,1.5-4.313,1.5-6.188v-12.75h7.594
				V401.925z M752.055,388.707v-2.719h-2.063v2.719H752.055z M750.086,393.863h1.969v-2.719h-1.969V393.863z M755.243,401.925
				c1.625-0.563,2.968-1.374,4.031-2.438c-0.938-1.062-1.688-2.75-2.25-5.063h-1.313v-2.531h1.313c-0.375-0.563-1-1.219-1.875-1.969
				c1.313-1.187,2-2.344,2.063-3.469v-3.094h7.406v4.031c-0.25,0.938,0.781,1.251,3.094,0.938c0,0.126-0.032,0.281-0.094,0.469
				c-0.188,0.876-0.344,1.626-0.469,2.25h-3.469c-1.438,0.126-2.125-0.563-2.063-2.063v-3h-1.688
				c0.062,2.438-0.782,4.406-2.531,5.906h8.25c-0.25,2.813-1,5.282-2.25,7.406c1.437,0.876,2.968,1.469,4.594,1.781
				c-0.75,0.813-1.406,1.781-1.969,2.906c-1.375-0.438-2.969-1.219-4.781-2.344c-1.188,0.999-2.531,1.906-4.031,2.719
				c-0.063-0.126-0.188-0.313-0.375-0.563C756.148,402.863,755.618,402.237,755.243,401.925z M761.149,397.332
				c0.624-0.875,0.999-1.875,1.125-3h-2.625C760.024,395.707,760.523,396.708,761.149,397.332z"/>
			
				<path fill="#FFFFFF" stroke="#231815" stroke-width="4" stroke-linecap="round" stroke-linejoin="round" stroke-miterlimit="10" d="
				M745.493,422.569c3.687-3.437,5.75-6.656,6.188-9.656c1.749,0.501,2.968,0.844,3.656,1.031c0.249,0.126,0.281,0.281,0.094,0.469
				c-2.625,4.251-4.969,7.688-7.031,10.313C747.649,423.914,746.679,423.195,745.493,422.569z M748.961,429.132l0.188-0.094
				c2.063-0.624,3.905-3.718,5.531-9.281c0.375,0,1.562,0.313,3.563,0.938c0.125,0.126,0.155,0.25,0.094,0.375
				c-1.375,2.001-2.875,4.532-4.5,7.594c0.188,0.063,1.468,0,3.844-0.188c1.062-0.062,1.812-0.094,2.25-0.094
				c-0.688-0.999-1.469-1.937-2.344-2.813l2.719-1.688c2.25,2.813,3.999,5.313,5.25,7.5l-3.469,1.5
				c-0.126-0.625-0.469-1.345-1.031-2.156c-4.125,0.188-7.563,0.593-10.313,1.219c-0.438,0.062-0.688,0.094-0.75,0.094
				c-0.126-0.063-0.438-0.907-0.938-2.531C748.992,429.319,748.961,429.195,748.961,429.132z M765.368,424.726
				c-3.375-2.375-5.938-6-7.688-10.875c-0.188-0.687-0.344-1.125-0.469-1.313c0.75-0.375,1.812-0.624,3.188-0.75
				c0.563,3.313,3.062,6.532,7.5,9.656C767.023,422.32,766.179,423.413,765.368,424.726z"/>
			
				<path fill="#FFFFFF" stroke="#231815" stroke-width="4" stroke-linecap="round" stroke-linejoin="round" stroke-miterlimit="10" d="
				M761.618,445.932v2.531H747.18v-2.531H761.618z M762.743,444.244h-14.438v-2.813h17.719v17.063
				c0.563,2.625-1.219,3.781-5.344,3.469c-0.126-1.063-0.313-2.001-0.563-2.813c1.937,0.126,2.813-0.312,2.625-1.313V444.244z
				 M757.118,459.057v-1.406h-5.156v1.781h-3v-9.375h11.344v9H757.118z M757.118,452.588h-5.156v2.625h5.156V452.588z"/>
		</g>
		<g>
			<path fill="#FFFFFF" d="M766.774,366.024v2.531h-4.688v3.844h5.719v2.438h-14.25v-2.438h5.344v-3.844h-4.406v-2.625h0.656
				c0-0.062-0.032-0.094-0.094-0.094c-0.313-0.437-0.719-0.844-1.219-1.219c0,0.25,0,0.469,0,0.656c0.062,0.188,0.062,0.281,0,0.281
				l-2.063,0.844v6.844c0.125,1.062-0.375,1.655-1.5,1.781c-0.438,0.125-1.438,0.188-3,0.188c-0.188-1.313-0.438-2.187-0.75-2.625
				c1.937,0.126,2.719-0.125,2.344-0.75v-4.406c-0.25,0.126-0.656,0.313-1.219,0.563c-0.438,0.25-0.75,0.407-0.938,0.469h-0.188
				c-0.313-1.062-0.625-2-0.938-2.813c0-0.125,0.062-0.188,0.188-0.188c0.312-0.062,0.968-0.249,1.969-0.563
				c0.5-0.125,0.875-0.218,1.125-0.281v-3.938h-2.906v-2.531h2.906v-4.219h1.969c0.812,0,1.187,0.063,1.125,0.188
				c0,0.063-0.032,0.188-0.094,0.375c-0.063,0.375-0.094,0.813-0.094,1.313v2.344h1.594v2.531h-1.594v3.094
				c0.375-0.125,1.031-0.375,1.969-0.75v0.938c1.749-0.999,3.249-2.344,4.5-4.031c1.5,0.938,2.281,1.469,2.344,1.594
				c0.125,0.063,0.031,0.22-0.281,0.469c-2.001,1.813-3.532,3.157-4.594,4.031H766.774z M754.118,356.368h4.969l-0.563-2.438
				l3.656-0.281l0.375,2.719h4.781v4.406h-2.906v-1.875h-7.5v2.156h-2.813V356.368z M765.368,365.743
				c-1.313-1.374-2.751-2.78-4.313-4.219l1.781-1.875c1.062,0.876,2.625,2.25,4.688,4.125
				C766.898,364.149,766.179,364.806,765.368,365.743z"/>
			<path fill="#FFFFFF" d="M754.868,401.925c0.062,1.062-1.188,1.655-3.75,1.781c-0.126-1-0.438-1.906-0.938-2.719
				c1.313,0.063,1.937-0.281,1.875-1.031v-3.75h-2.063c0,2.875-0.563,5.5-1.688,7.875c-0.625-0.501-1.469-1.031-2.531-1.594
				c0.999-2.25,1.5-4.313,1.5-6.188v-12.75h7.594V401.925z M752.055,388.707v-2.719h-2.063v2.719H752.055z M750.086,393.863h1.969
				v-2.719h-1.969V393.863z M755.243,401.925c1.625-0.563,2.968-1.374,4.031-2.438c-0.938-1.062-1.688-2.75-2.25-5.063h-1.313
				v-2.531h1.313c-0.375-0.563-1-1.219-1.875-1.969c1.313-1.187,2-2.344,2.063-3.469v-3.094h7.406v4.031
				c-0.25,0.938,0.781,1.251,3.094,0.938c0,0.126-0.032,0.281-0.094,0.469c-0.188,0.876-0.344,1.626-0.469,2.25h-3.469
				c-1.438,0.126-2.125-0.563-2.063-2.063v-3h-1.688c0.062,2.438-0.782,4.406-2.531,5.906h8.25c-0.25,2.813-1,5.282-2.25,7.406
				c1.437,0.876,2.968,1.469,4.594,1.781c-0.75,0.813-1.406,1.781-1.969,2.906c-1.375-0.438-2.969-1.219-4.781-2.344
				c-1.188,0.999-2.531,1.906-4.031,2.719c-0.063-0.126-0.188-0.313-0.375-0.563C756.148,402.863,755.618,402.237,755.243,401.925z
				 M761.149,397.332c0.624-0.875,0.999-1.875,1.125-3h-2.625C760.024,395.707,760.523,396.708,761.149,397.332z"/>
			<path fill="#FFFFFF" d="M745.493,422.569c3.687-3.437,5.75-6.656,6.188-9.656c1.749,0.501,2.968,0.844,3.656,1.031
				c0.249,0.126,0.281,0.281,0.094,0.469c-2.625,4.251-4.969,7.688-7.031,10.313C747.649,423.914,746.679,423.195,745.493,422.569z
				 M748.961,429.132l0.188-0.094c2.063-0.624,3.905-3.718,5.531-9.281c0.375,0,1.562,0.313,3.563,0.938
				c0.125,0.126,0.155,0.25,0.094,0.375c-1.375,2.001-2.875,4.532-4.5,7.594c0.188,0.063,1.468,0,3.844-0.188
				c1.062-0.062,1.812-0.094,2.25-0.094c-0.688-0.999-1.469-1.937-2.344-2.813l2.719-1.688c2.25,2.813,3.999,5.313,5.25,7.5
				l-3.469,1.5c-0.126-0.625-0.469-1.345-1.031-2.156c-4.125,0.188-7.563,0.593-10.313,1.219c-0.438,0.062-0.688,0.094-0.75,0.094
				c-0.126-0.063-0.438-0.907-0.938-2.531C748.992,429.319,748.961,429.195,748.961,429.132z M765.368,424.726
				c-3.375-2.375-5.938-6-7.688-10.875c-0.188-0.687-0.344-1.125-0.469-1.313c0.75-0.375,1.812-0.624,3.188-0.75
				c0.563,3.313,3.062,6.532,7.5,9.656C767.023,422.32,766.179,423.413,765.368,424.726z"/>
			<path fill="#FFFFFF" d="M761.618,445.932v2.531H747.18v-2.531H761.618z M762.743,444.244h-14.438v-2.813h17.719v17.063
				c0.563,2.625-1.219,3.781-5.344,3.469c-0.126-1.063-0.313-2.001-0.563-2.813c1.937,0.126,2.813-0.312,2.625-1.313V444.244z
				 M757.118,459.057v-1.406h-5.156v1.781h-3v-9.375h11.344v9H757.118z M757.118,452.588h-5.156v2.625h5.156V452.588z"/>
		</g>
	</g>
	<path fill="none" stroke="#FFFFFF" stroke-width="2" stroke-miterlimit="10" d="M1125.602,455.871
		c0,13.121-8.146,23.755-18.194,23.755h-18.097c-10.049,0-18.194-10.635-18.194-23.755v-129.38c0-13.121,8.146-23.755,18.194-23.755
		h18.097c10.049,0,18.194,10.635,18.194,23.755V455.871z"/>
	
		<line fill="none" stroke="#FFFFFF" stroke-width="2" stroke-miterlimit="10" x1="1098.358" y1="479.369" x2="1098.358" y2="553.434"/>
	<g>
		<circle fill="#FFFFFF" stroke="#009FE8" stroke-width="2" stroke-miterlimit="10" cx="1098.358" cy="312.476" r="28.177"/>
		<path fill="#009FE8" d="M1108.408,310.713c-1.874-5.226-5.846-9.921-10.049-13.483c-4.204,3.563-8.175,8.257-10.05,13.483
			c-1.158,3.233-1.271,6.743,0.36,9.843c1.877,3.566,5.66,5.854,9.688,5.854c4.029,0,7.814-2.288,9.689-5.854
			c1.633-3.1,1.518-6.61,0.358-9.843H1108.408z"/>
		<path fill="none" stroke="#FFFFFF" stroke-miterlimit="10" d="M1093.032,315.327c0,0-0.697,2.594,0.627,4.094
			c1.699,1.927,3.202,2.072,3.202,2.072"/>
	</g>
	<g>
		<g>
			
				<path fill="#FFFFFF" stroke="#231815" stroke-width="4" stroke-linecap="round" stroke-linejoin="round" stroke-miterlimit="10" d="
				M1091.046,357.375h0.094c0.999-0.125,1.718-0.281,2.156-0.469c0.188-0.125,0.437-0.343,0.75-0.656
				c0.062-0.062,0.124-0.125,0.188-0.188c0.75-0.812,1.313-1.718,1.688-2.719c0.499,0.126,1.28,0.313,2.344,0.563
				c0.999,0.25,1.468,0.375,1.406,0.375l-0.281,0.375c-0.876,0.75-1.781,1.657-2.719,2.719c0.687,0,1.53-0.031,2.531-0.094
				c0.874,0,1.53,0,1.969,0c-0.438-0.437-0.938-0.844-1.5-1.219c0.75-0.563,1.468-1.125,2.156-1.688
				c2.374,1.813,4.062,3.22,5.063,4.219l-2.063,1.781c0,0.063-0.126-0.031-0.375-0.281c-0.375-0.249-0.72-0.5-1.031-0.75
				c-1.5,0.063-3,0.157-4.5,0.281c0,0.063-0.032,0.188-0.094,0.375c-0.126,0.25-0.22,0.469-0.281,0.656h10.406v2.438h-5.531
				c1.437,1.438,3.53,2.438,6.281,3c-0.688,0.938-1.282,1.969-1.781,3.094c-3.938-1.5-6.656-3.563-8.156-6.188h-2.625
				c-1.001,1.251-2.156,2.407-3.469,3.469c1.749-0.875,3.563-1.969,5.438-3.281c0.938,1.125,1.437,1.781,1.5,1.969
				c-2.188,1.5-4.626,2.906-7.313,4.219c-0.313-0.563-0.75-1.156-1.313-1.781c-0.813,0.563-1.688,1.125-2.625,1.688
				c-0.563-0.938-1.251-1.718-2.063-2.344c2.813-1.125,4.843-2.438,6.094-3.938h-5.438v-2.438h7.125l0.281-0.75h-1.688
				c-0.75,0-1.5,0.032-2.25,0.094c0-0.312-0.063-0.75-0.188-1.313C1091.17,358.032,1091.107,357.626,1091.046,357.375z
				 M1089.827,373.125c3.312,0,5.78-0.281,7.406-0.844c2.687-0.875,4.905-2.25,6.656-4.125c0.249,0.25,0.656,0.595,1.219,1.031
				c0.563,0.438,0.968,0.782,1.219,1.031v0.094c-2.501,1.875-4.907,3.188-7.219,3.938c-1.938,0.75-4.594,1.219-7.969,1.406
				c-0.063-0.438-0.345-1.031-0.844-1.781C1090.045,373.562,1089.889,373.313,1089.827,373.125z M1100.89,365.907
				c0.75,0.563,1.468,1.219,2.156,1.969c-2.563,2.313-6.22,3.876-10.969,4.688c-0.438-0.875-0.97-1.655-1.594-2.344
				C1095.42,369.72,1098.889,368.283,1100.89,365.907z"/>
			
				<path fill="#FFFFFF" stroke="#231815" stroke-width="4" stroke-linecap="round" stroke-linejoin="round" stroke-miterlimit="10" d="
				M1096.577,401.925c0.062,1.062-1.188,1.655-3.75,1.781c-0.126-1-0.438-1.906-0.938-2.719c1.313,0.063,1.937-0.281,1.875-1.031
				v-3.75h-2.063c0,2.875-0.563,5.5-1.688,7.875c-0.626-0.501-1.47-1.031-2.531-1.594c0.999-2.25,1.5-4.313,1.5-6.188v-12.75h7.594
				V401.925z M1093.765,388.707v-2.719h-2.063v2.719H1093.765z M1091.796,393.863h1.969v-2.719h-1.969V393.863z M1096.952,401.925
				c1.624-0.563,2.968-1.374,4.031-2.438c-0.938-1.062-1.688-2.75-2.25-5.063h-1.313v-2.531h1.313
				c-0.375-0.563-1.001-1.219-1.875-1.969c1.313-1.187,1.999-2.344,2.063-3.469v-3.094h7.406v4.031
				c-0.251,0.938,0.78,1.251,3.094,0.938c0,0.126-0.032,0.281-0.094,0.469c-0.188,0.876-0.345,1.626-0.469,2.25h-3.469
				c-1.438,0.126-2.126-0.563-2.063-2.063v-3h-1.688c0.062,2.438-0.782,4.406-2.531,5.906h8.25c-0.251,2.813-1.001,5.282-2.25,7.406
				c1.437,0.876,2.968,1.469,4.594,1.781c-0.75,0.813-1.406,1.781-1.969,2.906c-1.376-0.438-2.97-1.219-4.781-2.344
				c-1.188,0.999-2.531,1.906-4.031,2.719c-0.063-0.126-0.188-0.313-0.375-0.563
				C1097.857,402.863,1097.327,402.237,1096.952,401.925z M1102.858,397.332c0.624-0.875,0.999-1.875,1.125-3h-2.625
				C1101.733,395.707,1102.232,396.708,1102.858,397.332z"/>
			
				<path fill="#FFFFFF" stroke="#231815" stroke-width="4" stroke-linecap="round" stroke-linejoin="round" stroke-miterlimit="10" d="
				M1087.202,422.569c3.687-3.437,5.749-6.656,6.188-9.656c1.749,0.501,2.968,0.844,3.656,1.031
				c0.249,0.126,0.281,0.281,0.094,0.469c-2.625,4.251-4.969,7.688-7.031,10.313
				C1089.358,423.914,1088.389,423.195,1087.202,422.569z M1090.671,429.132l0.188-0.094c2.063-0.624,3.905-3.718,5.531-9.281
				c0.375,0,1.562,0.313,3.563,0.938c0.124,0.126,0.155,0.25,0.094,0.375c-1.376,2.001-2.876,4.532-4.5,7.594
				c0.188,0.063,1.468,0,3.844-0.188c1.062-0.062,1.812-0.094,2.25-0.094c-0.688-0.999-1.47-1.937-2.344-2.813l2.719-1.688
				c2.25,2.813,3.999,5.313,5.25,7.5l-3.469,1.5c-0.126-0.625-0.469-1.345-1.031-2.156c-4.125,0.188-7.563,0.593-10.313,1.219
				c-0.438,0.062-0.688,0.094-0.75,0.094c-0.126-0.063-0.438-0.907-0.938-2.531C1090.701,429.319,1090.671,429.195,1090.671,429.132
				z M1107.077,424.726c-3.375-2.375-5.938-6-7.688-10.875c-0.188-0.687-0.345-1.125-0.469-1.313c0.75-0.375,1.812-0.624,3.188-0.75
				c0.563,3.313,3.062,6.532,7.5,9.656C1108.732,422.32,1107.889,423.413,1107.077,424.726z"/>
			
				<path fill="#FFFFFF" stroke="#231815" stroke-width="4" stroke-linecap="round" stroke-linejoin="round" stroke-miterlimit="10" d="
				M1103.327,445.932v2.531h-14.438v-2.531H1103.327z M1104.452,444.244h-14.438v-2.813h17.719v17.063
				c0.563,2.625-1.219,3.781-5.344,3.469c-0.126-1.063-0.313-2.001-0.563-2.813c1.937,0.126,2.813-0.312,2.625-1.313V444.244z
				 M1098.827,459.057v-1.406h-5.156v1.781h-3v-9.375h11.344v9H1098.827z M1098.827,452.588h-5.156v2.625h5.156V452.588z"/>
		</g>
		<g>
			<path fill="#FFFFFF" d="M1091.046,357.375h0.094c0.999-0.125,1.718-0.281,2.156-0.469c0.188-0.125,0.437-0.343,0.75-0.656
				c0.062-0.062,0.124-0.125,0.188-0.188c0.75-0.812,1.313-1.718,1.688-2.719c0.499,0.126,1.28,0.313,2.344,0.563
				c0.999,0.25,1.468,0.375,1.406,0.375l-0.281,0.375c-0.876,0.75-1.781,1.657-2.719,2.719c0.687,0,1.53-0.031,2.531-0.094
				c0.874,0,1.53,0,1.969,0c-0.438-0.437-0.938-0.844-1.5-1.219c0.75-0.563,1.468-1.125,2.156-1.688
				c2.374,1.813,4.062,3.22,5.063,4.219l-2.063,1.781c0,0.063-0.126-0.031-0.375-0.281c-0.375-0.249-0.72-0.5-1.031-0.75
				c-1.5,0.063-3,0.157-4.5,0.281c0,0.063-0.032,0.188-0.094,0.375c-0.126,0.25-0.22,0.469-0.281,0.656h10.406v2.438h-5.531
				c1.437,1.438,3.53,2.438,6.281,3c-0.688,0.938-1.282,1.969-1.781,3.094c-3.938-1.5-6.656-3.563-8.156-6.188h-2.625
				c-1.001,1.251-2.156,2.407-3.469,3.469c1.749-0.875,3.563-1.969,5.438-3.281c0.938,1.125,1.437,1.781,1.5,1.969
				c-2.188,1.5-4.626,2.906-7.313,4.219c-0.313-0.563-0.75-1.156-1.313-1.781c-0.813,0.563-1.688,1.125-2.625,1.688
				c-0.563-0.938-1.251-1.718-2.063-2.344c2.813-1.125,4.843-2.438,6.094-3.938h-5.438v-2.438h7.125l0.281-0.75h-1.688
				c-0.75,0-1.5,0.032-2.25,0.094c0-0.312-0.063-0.75-0.188-1.313C1091.17,358.032,1091.107,357.626,1091.046,357.375z
				 M1089.827,373.125c3.312,0,5.78-0.281,7.406-0.844c2.687-0.875,4.905-2.25,6.656-4.125c0.249,0.25,0.656,0.595,1.219,1.031
				c0.563,0.438,0.968,0.782,1.219,1.031v0.094c-2.501,1.875-4.907,3.188-7.219,3.938c-1.938,0.75-4.594,1.219-7.969,1.406
				c-0.063-0.438-0.345-1.031-0.844-1.781C1090.045,373.562,1089.889,373.313,1089.827,373.125z M1100.89,365.907
				c0.75,0.563,1.468,1.219,2.156,1.969c-2.563,2.313-6.22,3.876-10.969,4.688c-0.438-0.875-0.97-1.655-1.594-2.344
				C1095.42,369.72,1098.889,368.283,1100.89,365.907z"/>
			<path fill="#FFFFFF" d="M1096.577,401.925c0.062,1.062-1.188,1.655-3.75,1.781c-0.126-1-0.438-1.906-0.938-2.719
				c1.313,0.063,1.937-0.281,1.875-1.031v-3.75h-2.063c0,2.875-0.563,5.5-1.688,7.875c-0.626-0.501-1.47-1.031-2.531-1.594
				c0.999-2.25,1.5-4.313,1.5-6.188v-12.75h7.594V401.925z M1093.765,388.707v-2.719h-2.063v2.719H1093.765z M1091.796,393.863
				h1.969v-2.719h-1.969V393.863z M1096.952,401.925c1.624-0.563,2.968-1.374,4.031-2.438c-0.938-1.062-1.688-2.75-2.25-5.063
				h-1.313v-2.531h1.313c-0.375-0.563-1.001-1.219-1.875-1.969c1.313-1.187,1.999-2.344,2.063-3.469v-3.094h7.406v4.031
				c-0.251,0.938,0.78,1.251,3.094,0.938c0,0.126-0.032,0.281-0.094,0.469c-0.188,0.876-0.345,1.626-0.469,2.25h-3.469
				c-1.438,0.126-2.126-0.563-2.063-2.063v-3h-1.688c0.062,2.438-0.782,4.406-2.531,5.906h8.25c-0.251,2.813-1.001,5.282-2.25,7.406
				c1.437,0.876,2.968,1.469,4.594,1.781c-0.75,0.813-1.406,1.781-1.969,2.906c-1.376-0.438-2.97-1.219-4.781-2.344
				c-1.188,0.999-2.531,1.906-4.031,2.719c-0.063-0.126-0.188-0.313-0.375-0.563
				C1097.857,402.863,1097.327,402.237,1096.952,401.925z M1102.858,397.332c0.624-0.875,0.999-1.875,1.125-3h-2.625
				C1101.733,395.707,1102.232,396.708,1102.858,397.332z"/>
			<path fill="#FFFFFF" d="M1087.202,422.569c3.687-3.437,5.749-6.656,6.188-9.656c1.749,0.501,2.968,0.844,3.656,1.031
				c0.249,0.126,0.281,0.281,0.094,0.469c-2.625,4.251-4.969,7.688-7.031,10.313
				C1089.358,423.914,1088.389,423.195,1087.202,422.569z M1090.671,429.132l0.188-0.094c2.063-0.624,3.905-3.718,5.531-9.281
				c0.375,0,1.562,0.313,3.563,0.938c0.124,0.126,0.155,0.25,0.094,0.375c-1.376,2.001-2.876,4.532-4.5,7.594
				c0.188,0.063,1.468,0,3.844-0.188c1.062-0.062,1.812-0.094,2.25-0.094c-0.688-0.999-1.47-1.937-2.344-2.813l2.719-1.688
				c2.25,2.813,3.999,5.313,5.25,7.5l-3.469,1.5c-0.126-0.625-0.469-1.345-1.031-2.156c-4.125,0.188-7.563,0.593-10.313,1.219
				c-0.438,0.062-0.688,0.094-0.75,0.094c-0.126-0.063-0.438-0.907-0.938-2.531C1090.701,429.319,1090.671,429.195,1090.671,429.132
				z M1107.077,424.726c-3.375-2.375-5.938-6-7.688-10.875c-0.188-0.687-0.345-1.125-0.469-1.313c0.75-0.375,1.812-0.624,3.188-0.75
				c0.563,3.313,3.062,6.532,7.5,9.656C1108.732,422.32,1107.889,423.413,1107.077,424.726z"/>
			<path fill="#FFFFFF" d="M1103.327,445.932v2.531h-14.438v-2.531H1103.327z M1104.452,444.244h-14.438v-2.813h17.719v17.063
				c0.563,2.625-1.219,3.781-5.344,3.469c-0.126-1.063-0.313-2.001-0.563-2.813c1.937,0.126,2.813-0.312,2.625-1.313V444.244z
				 M1098.827,459.057v-1.406h-5.156v1.781h-3v-9.375h11.344v9H1098.827z M1098.827,452.588h-5.156v2.625h5.156V452.588z"/>
		</g>
	</g>
	<path fill="none" stroke="#FFFFFF" stroke-width="2" stroke-miterlimit="10" d="M1431.438,455.871
		c0,13.121-8.146,23.755-18.194,23.755h-18.097c-10.049,0-18.194-10.635-18.194-23.755v-129.38c0-13.121,8.146-23.755,18.194-23.755
		h18.097c10.049,0,18.194,10.635,18.194,23.755V455.871z"/>
	
		<line fill="none" stroke="#FFFFFF" stroke-width="2" stroke-miterlimit="10" x1="1404.194" y1="479.369" x2="1404.194" y2="553.434"/>
	<g>
		<circle fill="#FFFFFF" stroke="#009FE8" stroke-width="2" stroke-miterlimit="10" cx="1404.194" cy="312.476" r="28.177"/>
		<path fill="#009FE8" d="M1414.244,310.713c-1.874-5.226-5.846-9.921-10.049-13.483c-4.204,3.563-8.175,8.257-10.05,13.483
			c-1.158,3.233-1.271,6.743,0.36,9.843c1.877,3.566,5.66,5.854,9.688,5.854c4.029,0,7.814-2.288,9.689-5.854
			c1.633-3.1,1.518-6.61,0.358-9.843H1414.244z"/>
		<path fill="none" stroke="#FFFFFF" stroke-miterlimit="10" d="M1398.868,315.327c0,0-0.697,2.594,0.627,4.094
			c1.699,1.927,3.202,2.072,3.202,2.072"/>
	</g>
	<g>
		<g>
			
				<path fill="#FFFFFF" stroke="#231815" stroke-width="4" stroke-linecap="round" stroke-linejoin="round" stroke-miterlimit="10" d="
				M1405.227,356.767c0-0.062,0.281-0.188,0.844-0.375c0.188,0,0.342-0.031,0.469-0.094c0.938-0.249,1.467-0.343,1.594-0.281
				c0,0.063,0.03,0.157,0.094,0.281c0.563,3.625,2.937,6.563,7.125,8.813c0,0.063-0.188,0.313-0.563,0.75
				c-0.314,0.375-0.563,0.688-0.75,0.938c-0.188,0.25-0.375,0.563-0.563,0.938l-0.188,0.281c-0.877-0.5-1.688-1.093-2.438-1.781
				c-0.127,3.438-0.251,6.25-0.375,8.438c0,1.937-1.908,2.843-5.719,2.719c0-0.063-0.033-0.25-0.094-0.563
				c-0.063-0.438-0.127-0.813-0.188-1.125c-0.063-0.437-0.251-0.905-0.563-1.406c0.061,0,0.188,0,0.375,0
				c1.999,0.126,3-0.281,3-1.219c0.248-2,0.342-3.905,0.281-5.719h-3.469c-0.063,5.188-2.658,8.593-7.781,10.219
				c-0.127,0-0.375-0.25-0.75-0.75c-0.127-0.188-0.221-0.313-0.281-0.375c-0.375-0.375-0.783-0.75-1.219-1.125
				c4.624-1.062,6.874-3.718,6.75-7.969h-2.813v-0.938c-0.438,0.501-1.219,1.313-2.344,2.438c-0.375-0.437-0.75-0.844-1.125-1.219
				c-0.314-0.249-0.656-0.5-1.031-0.75l-0.281-0.188c3.061-2.312,5.311-5.687,6.75-10.125l0.188-0.469
				c0.248,0.063,0.623,0.188,1.125,0.375c0.998,0.375,1.748,0.625,2.25,0.75c0.188,0.188,0.154,0.438-0.094,0.75l-0.094,0.094
				c-0.063,0.063-0.157,0.22-0.281,0.469c-1.125,2.188-2.407,4.219-3.844,6.094h9.844
				C1407.631,362.705,1406.352,360.08,1405.227,356.767z"/>
			
				<path fill="#FFFFFF" stroke="#231815" stroke-width="4" stroke-linecap="round" stroke-linejoin="round" stroke-miterlimit="10" d="
				M1393.039,407.411c3.687-3.437,5.749-6.656,6.188-9.656c1.748,0.501,2.967,0.844,3.656,1.031
				c0.248,0.126,0.281,0.281,0.094,0.469c-2.625,4.251-4.969,7.688-7.031,10.313
				C1395.195,408.756,1394.225,408.037,1393.039,407.411z M1396.508,413.974l0.188-0.094c2.063-0.624,3.904-3.718,5.531-9.281
				c0.375,0,1.561,0.313,3.563,0.938c0.124,0.126,0.154,0.25,0.094,0.375c-1.376,2.001-2.876,4.532-4.5,7.594
				c0.188,0.063,1.467,0,3.844-0.188c1.062-0.062,1.812-0.094,2.25-0.094c-0.689-0.999-1.47-1.937-2.344-2.813l2.719-1.688
				c2.25,2.813,3.998,5.313,5.25,7.5l-3.469,1.5c-0.127-0.625-0.469-1.345-1.031-2.156c-4.125,0.188-7.563,0.593-10.313,1.219
				c-0.438,0.062-0.689,0.094-0.75,0.094c-0.127-0.063-0.438-0.907-0.938-2.531C1396.538,414.161,1396.508,414.037,1396.508,413.974
				z M1412.914,409.567c-3.375-2.375-5.939-6-7.688-10.875c-0.188-0.687-0.345-1.125-0.469-1.313c0.75-0.375,1.812-0.624,3.188-0.75
				c0.563,3.313,3.061,6.532,7.5,9.656C1414.568,407.162,1413.725,408.255,1412.914,409.567z"/>
			
				<path fill="#FFFFFF" stroke="#231815" stroke-width="4" stroke-linecap="round" stroke-linejoin="round" stroke-miterlimit="10" d="
				M1409.164,442.23v2.531h-14.438v-2.531H1409.164z M1410.289,440.542h-14.438v-2.813h17.719v17.063
				c0.563,2.625-1.219,3.781-5.344,3.469c-0.127-1.063-0.314-2.001-0.563-2.813c1.936,0.126,2.813-0.312,2.625-1.313V440.542z
				 M1404.664,455.355v-1.406h-5.156v1.781h-3v-9.375h11.344v9H1404.664z M1404.664,448.886h-5.156v2.625h5.156V448.886z"/>
		</g>
		<g>
			<path fill="#FFFFFF" d="M1405.227,356.767c0-0.062,0.281-0.188,0.844-0.375c0.188,0,0.342-0.031,0.469-0.094
				c0.938-0.249,1.467-0.343,1.594-0.281c0,0.063,0.03,0.157,0.094,0.281c0.563,3.625,2.937,6.563,7.125,8.813
				c0,0.063-0.188,0.313-0.563,0.75c-0.314,0.375-0.563,0.688-0.75,0.938c-0.188,0.25-0.375,0.563-0.563,0.938l-0.188,0.281
				c-0.877-0.5-1.688-1.093-2.438-1.781c-0.127,3.438-0.251,6.25-0.375,8.438c0,1.937-1.908,2.843-5.719,2.719
				c0-0.063-0.033-0.25-0.094-0.563c-0.063-0.438-0.127-0.813-0.188-1.125c-0.063-0.437-0.251-0.905-0.563-1.406
				c0.061,0,0.188,0,0.375,0c1.999,0.126,3-0.281,3-1.219c0.248-2,0.342-3.905,0.281-5.719h-3.469
				c-0.063,5.188-2.658,8.593-7.781,10.219c-0.127,0-0.375-0.25-0.75-0.75c-0.127-0.188-0.221-0.313-0.281-0.375
				c-0.375-0.375-0.783-0.75-1.219-1.125c4.624-1.062,6.874-3.718,6.75-7.969h-2.813v-0.938c-0.438,0.501-1.219,1.313-2.344,2.438
				c-0.375-0.437-0.75-0.844-1.125-1.219c-0.314-0.249-0.656-0.5-1.031-0.75l-0.281-0.188c3.061-2.312,5.311-5.687,6.75-10.125
				l0.188-0.469c0.248,0.063,0.623,0.188,1.125,0.375c0.998,0.375,1.748,0.625,2.25,0.75c0.188,0.188,0.154,0.438-0.094,0.75
				l-0.094,0.094c-0.063,0.063-0.157,0.22-0.281,0.469c-1.125,2.188-2.407,4.219-3.844,6.094h9.844
				C1407.631,362.705,1406.352,360.08,1405.227,356.767z"/>
			<path fill="#FFFFFF" d="M1393.039,407.411c3.687-3.437,5.749-6.656,6.188-9.656c1.748,0.501,2.967,0.844,3.656,1.031
				c0.248,0.126,0.281,0.281,0.094,0.469c-2.625,4.251-4.969,7.688-7.031,10.313
				C1395.195,408.756,1394.225,408.037,1393.039,407.411z M1396.508,413.974l0.188-0.094c2.063-0.624,3.904-3.718,5.531-9.281
				c0.375,0,1.561,0.313,3.563,0.938c0.124,0.126,0.154,0.25,0.094,0.375c-1.376,2.001-2.876,4.532-4.5,7.594
				c0.188,0.063,1.467,0,3.844-0.188c1.062-0.062,1.812-0.094,2.25-0.094c-0.689-0.999-1.47-1.937-2.344-2.813l2.719-1.688
				c2.25,2.813,3.998,5.313,5.25,7.5l-3.469,1.5c-0.127-0.625-0.469-1.345-1.031-2.156c-4.125,0.188-7.563,0.593-10.313,1.219
				c-0.438,0.062-0.689,0.094-0.75,0.094c-0.127-0.063-0.438-0.907-0.938-2.531C1396.538,414.161,1396.508,414.037,1396.508,413.974
				z M1412.914,409.567c-3.375-2.375-5.939-6-7.688-10.875c-0.188-0.687-0.345-1.125-0.469-1.313c0.75-0.375,1.812-0.624,3.188-0.75
				c0.563,3.313,3.061,6.532,7.5,9.656C1414.568,407.162,1413.725,408.255,1412.914,409.567z"/>
			<path fill="#FFFFFF" d="M1409.164,442.23v2.531h-14.438v-2.531H1409.164z M1410.289,440.542h-14.438v-2.813h17.719v17.063
				c0.563,2.625-1.219,3.781-5.344,3.469c-0.127-1.063-0.314-2.001-0.563-2.813c1.936,0.126,2.813-0.312,2.625-1.313V440.542z
				 M1404.664,455.355v-1.406h-5.156v1.781h-3v-9.375h11.344v9H1404.664z M1404.664,448.886h-5.156v2.625h5.156V448.886z"/>
		</g>
	</g>
	<path fill="none" stroke="#103E61" stroke-miterlimit="10" d="M284.755,885.485c0,11.046-9.311,20-20.796,20H140.708
		c-11.486,0-20.796-8.954-20.796-20v-282c0-11.046,9.311-20,20.796-20h123.251c11.485,0,20.796,8.954,20.796,20V885.485z"/>
	<path fill="none" stroke="#103E61" stroke-miterlimit="10" d="M576.452,885.485c0,11.046-8.954,20-20,20H331.207
		c-11.046,0-20-8.954-20-20v-282c0-11.046,8.954-20,20-20h225.245c11.046,0,20,8.954,20,20V885.485z"/>
	<path fill="none" stroke="#103E61" stroke-miterlimit="10" d="M910.392,885.485c0,11.046-8.954,20-20,20H622.904
		c-11.046,0-20-8.954-20-20v-282c0-11.046,8.954-20,20-20h267.488c11.046,0,20,8.954,20,20V885.485z"/>
	<text transform="matrix(1 0 0 1 980.7578 713.3008)"><tspan x="0" y="0" fill="#103E61" font-family="'MicrosoftYaHei'" font-size="16"></tspan><tspan x="-8.399" y="36" fill="#103E61" font-family="'MicrosoftYaHei'" font-size="16"></tspan><tspan x="0" y="72" fill="#103E61" font-family="'MicrosoftYaHei'" font-size="16"></tspan></text>
	<path fill="none" stroke="#103E61" stroke-miterlimit="10" d="M1259.873,885.485c0,11.046-8.955,20-20,20H956.844
		c-11.045,0-20-8.954-20-20v-282c0-11.046,8.955-20,20-20h283.029c11.045,0,20,8.954,20,20V885.485z"/>
	<path fill="none" stroke="#103E61" stroke-miterlimit="10" d="M1522.064,885.485c0,11.046-8.955,20-20,20h-195.74
		c-11.047,0-20-8.954-20-20v-282c0-11.046,8.953-20,20-20h195.74c11.045,0,20,8.954,20,20V885.485z"/>
	<text transform="matrix(1 0 0 1 1580.6084 749.3018)"><tspan x="0" y="0" fill="#E50012" font-family="'MicrosoftYaHei'" font-size="16"> </tspan><tspan x="19.39" y="0" fill="#103E61" font-family="'MicrosoftYaHei'" font-size="16"></tspan></text>
	<path fill="none" stroke="#103E61" stroke-miterlimit="10" d="M1800.089,885.485c0,11.046-8.953,20-20,20h-211.572
		c-11.045,0-20-8.954-20-20v-282c0-11.046,8.955-20,20-20h211.572c11.047,0,20,8.954,20,20V885.485z"/>
	<g>
		<path fill="#FFFFFF" stroke="#009FE8" stroke-miterlimit="10" d="M1519.506,170.695c0,3.971,3.219,7.189,7.189,7.189l0,0
			c3.971,0,7.19-3.219,7.19-7.189l0,0c0-3.972-3.22-7.191-7.19-7.191l0,0C1522.725,163.504,1519.506,166.724,1519.506,170.695
			L1519.506,170.695z"/>
		
			<line fill="none" stroke="#FFFFFF" stroke-width="2" stroke-miterlimit="10" x1="1526.695" y1="177.885" x2="1526.695" y2="239.927"/>
		
			<line fill="none" stroke="#FFFFFF" stroke-width="2" stroke-miterlimit="10" x1="1526.096" y1="238.992" x2="1653.316" y2="302.668"/>
	</g>
	<path fill="none" stroke="#FFFFFF" stroke-width="2" stroke-miterlimit="10" d="M1701.546,455.871
		c0,13.121-8.146,23.755-18.194,23.755h-18.097c-10.049,0-18.194-10.635-18.194-23.755v-129.38c0-13.121,8.146-23.755,18.194-23.755
		h18.097c10.049,0,18.194,10.635,18.194,23.755V455.871z"/>
	
		<line fill="none" stroke="#FFFFFF" stroke-width="2" stroke-miterlimit="10" x1="1674.303" y1="479.369" x2="1674.303" y2="553.434"/>
	<g>
		<circle fill="#FFFFFF" stroke="#009FE8" stroke-width="2" stroke-miterlimit="10" cx="1674.303" cy="312.476" r="28.177"/>
		<path fill="#009FE8" d="M1684.353,310.713c-1.874-5.226-5.846-9.921-10.049-13.483c-4.204,3.563-8.175,8.257-10.05,13.483
			c-1.158,3.233-1.271,6.743,0.36,9.843c1.877,3.566,5.66,5.854,9.688,5.854c4.029,0,7.814-2.288,9.689-5.854
			c1.633-3.1,1.518-6.61,0.358-9.843H1684.353z"/>
		<path fill="none" stroke="#FFFFFF" stroke-miterlimit="10" d="M1668.977,315.327c0,0-0.697,2.594,0.627,4.094
			c1.699,1.927,3.202,2.072,3.202,2.072"/>
	</g>
	<g>
		<g>
			
				<path fill="#FFFFFF" stroke="#231815" stroke-width="4" stroke-linecap="round" stroke-linejoin="round" stroke-miterlimit="10" d="
				M1665.959,369.592v-8.625h-2.438v-2.531h7.688v-1.688h13.5v2.531h-5.156l-0.75,2.344h5.063v10.594h-3.188v-8.063h-5.344v8.25
				h-2.906V361.53h3.469l0.375-2.25h-4.688v1.688h-2.813v7.875c0.5-0.125,1.156-0.312,1.969-0.563
				c0.438-0.125,0.719-0.218,0.844-0.281c0,0.876,0.031,1.813,0.094,2.813c-3.063,0.876-5.531,1.813-7.406,2.813
				c-0.688-2.063-1.031-3.155-1.031-3.281C1664.053,370.155,1664.959,369.906,1665.959,369.592z M1685.459,375.217
				c-0.938,0.938-1.719,1.812-2.344,2.625c-1.563-1.5-3.219-2.874-4.969-4.125c-1.188,1.438-3.125,2.813-5.813,4.125
				c-0.063-0.063-0.156-0.188-0.281-0.375c-0.625-0.813-1.25-1.532-1.875-2.156c4.625-0.938,6.75-2.968,6.375-6.094v-4.406h0.469
				c1.875,0,2.781,0.126,2.719,0.375c0,0.063,0,0.22,0,0.469c-0.125,0.375-0.188,0.719-0.188,1.031v0.75
				c0,1.375-0.125,2.688-0.375,3.938c0.688,0.438,1.906,1.188,3.656,2.25C1684.146,374.437,1685.021,374.968,1685.459,375.217z"/>
			
				<path fill="#FFFFFF" stroke="#231815" stroke-width="4" stroke-linecap="round" stroke-linejoin="round" stroke-miterlimit="10" d="
				M1678.615,415.942h-8.063v1.594h-3.094v-20.25h14.344v20.25h-3.188V415.942z M1670.459,402.817h8.063v-2.813h-8.063V402.817z
				 M1670.459,405.255v2.906h8.156v-2.906H1670.459z M1670.553,410.599v3.094h8.063v-3.094H1670.553z"/>
			
				<path fill="#FFFFFF" stroke="#231815" stroke-width="4" stroke-linecap="round" stroke-linejoin="round" stroke-miterlimit="10" d="
				M1671.865,441.574c1.875,0.438,2.906,0.719,3.094,0.844c0,0.063-0.063,0.188-0.188,0.375c-0.438,0.625-0.875,1.438-1.313,2.438
				h2.438v2.344h-12v-2.344h3.281c-0.25-0.624-0.656-1.5-1.219-2.625l2.719-0.938l1.219,2.813l-1.969,0.75h2.625
				C1670.99,444.231,1671.428,443.012,1671.865,441.574z M1669.146,439.042c-0.125-0.375-0.281-0.905-0.469-1.594
				c-0.063-0.375-0.125-0.656-0.188-0.844c0.375-0.062,0.969-0.125,1.781-0.188c0.75-0.125,1.313-0.188,1.688-0.188
				c0.125,0.813,0.219,1.75,0.281,2.813h3.563v2.344h-11.063v-2.344H1669.146z M1665.678,457.136v-8.25h9.188v8.156h-2.906v-1.219
				h-3.563v1.313H1665.678z M1668.396,451.136v2.531h3.563v-2.531H1668.396z M1676.646,458.355v-20.438h8.438
				c-0.25,1.125-0.688,3.157-1.313,6.094l-0.469,1.969c2.188,4.063,2.375,7,0.563,8.813c-0.313,0.188-0.813,0.344-1.5,0.469
				c-1,0.126-1.688,0.157-2.063,0.094c0-1.313-0.188-2.344-0.563-3.094c0.875,0,1.406-0.062,1.594-0.188
				c1.188-0.938,0.875-2.78-0.938-5.531c0-0.062,0.156-0.875,0.469-2.438c0.375-1.875,0.625-3.125,0.75-3.75h-2.156v18H1676.646z"/>
		</g>
		<g>
			<path fill="#FFFFFF" d="M1665.959,369.592v-8.625h-2.438v-2.531h7.688v-1.688h13.5v2.531h-5.156l-0.75,2.344h5.063v10.594h-3.188
				v-8.063h-5.344v8.25h-2.906V361.53h3.469l0.375-2.25h-4.688v1.688h-2.813v7.875c0.5-0.125,1.156-0.312,1.969-0.563
				c0.438-0.125,0.719-0.218,0.844-0.281c0,0.876,0.031,1.813,0.094,2.813c-3.063,0.876-5.531,1.813-7.406,2.813
				c-0.688-2.063-1.031-3.155-1.031-3.281C1664.053,370.155,1664.959,369.906,1665.959,369.592z M1685.459,375.217
				c-0.938,0.938-1.719,1.812-2.344,2.625c-1.563-1.5-3.219-2.874-4.969-4.125c-1.188,1.438-3.125,2.813-5.813,4.125
				c-0.063-0.063-0.156-0.188-0.281-0.375c-0.625-0.813-1.25-1.532-1.875-2.156c4.625-0.938,6.75-2.968,6.375-6.094v-4.406h0.469
				c1.875,0,2.781,0.126,2.719,0.375c0,0.063,0,0.22,0,0.469c-0.125,0.375-0.188,0.719-0.188,1.031v0.75
				c0,1.375-0.125,2.688-0.375,3.938c0.688,0.438,1.906,1.188,3.656,2.25C1684.146,374.437,1685.021,374.968,1685.459,375.217z"/>
			<path fill="#FFFFFF" d="M1678.615,415.942h-8.063v1.594h-3.094v-20.25h14.344v20.25h-3.188V415.942z M1670.459,402.817h8.063
				v-2.813h-8.063V402.817z M1670.459,405.255v2.906h8.156v-2.906H1670.459z M1670.553,410.599v3.094h8.063v-3.094H1670.553z"/>
			<path fill="#FFFFFF" d="M1671.865,441.574c1.875,0.438,2.906,0.719,3.094,0.844c0,0.063-0.063,0.188-0.188,0.375
				c-0.438,0.625-0.875,1.438-1.313,2.438h2.438v2.344h-12v-2.344h3.281c-0.25-0.624-0.656-1.5-1.219-2.625l2.719-0.938l1.219,2.813
				l-1.969,0.75h2.625C1670.99,444.231,1671.428,443.012,1671.865,441.574z M1669.146,439.042c-0.125-0.375-0.281-0.905-0.469-1.594
				c-0.063-0.375-0.125-0.656-0.188-0.844c0.375-0.062,0.969-0.125,1.781-0.188c0.75-0.125,1.313-0.188,1.688-0.188
				c0.125,0.813,0.219,1.75,0.281,2.813h3.563v2.344h-11.063v-2.344H1669.146z M1665.678,457.136v-8.25h9.188v8.156h-2.906v-1.219
				h-3.563v1.313H1665.678z M1668.396,451.136v2.531h3.563v-2.531H1668.396z M1676.646,458.355v-20.438h8.438
				c-0.25,1.125-0.688,3.157-1.313,6.094l-0.469,1.969c2.188,4.063,2.375,7,0.563,8.813c-0.313,0.188-0.813,0.344-1.5,0.469
				c-1,0.126-1.688,0.157-2.063,0.094c0-1.313-0.188-2.344-0.563-3.094c0.875,0,1.406-0.062,1.594-0.188
				c1.188-0.938,0.875-2.78-0.938-5.531c0-0.062,0.156-0.875,0.469-2.438c0.375-1.875,0.625-3.125,0.75-3.75h-2.156v18H1676.646z"/>
		</g>
	</g>
	<path fill="#FFFFFF" stroke="#009FE8" stroke-miterlimit="10" d="M209.523,559.803c0,3.971-3.219,7.189-7.19,7.189l0,0
		c-3.971,0-7.189-3.219-7.189-7.189l0,0c0-3.972,3.219-7.191,7.189-7.191l0,0C206.305,552.611,209.523,555.831,209.523,559.803
		L209.523,559.803z"/>
	<path fill="#FFFFFF" stroke="#009FE8" stroke-miterlimit="10" d="M451.02,559.803c0,3.971-3.219,7.189-7.19,7.189l0,0
		c-3.971,0-7.189-3.219-7.189-7.189l0,0c0-3.972,3.219-7.191,7.189-7.191l0,0C447.801,552.611,451.02,555.831,451.02,559.803
		L451.02,559.803z"/>
	<path fill="#FFFFFF" stroke="#009FE8" stroke-miterlimit="10" d="M763.838,559.803c0,3.971-3.219,7.189-7.19,7.189l0,0
		c-3.971,0-7.19-3.219-7.19-7.189l0,0c0-3.972,3.219-7.191,7.19-7.191l0,0C760.619,552.611,763.838,555.831,763.838,559.803
		L763.838,559.803z"/>
	<path fill="#FFFFFF" stroke="#009FE8" stroke-miterlimit="10" d="M1105.549,559.803c0,3.971-3.22,7.189-7.19,7.189l0,0
		c-3.971,0-7.189-3.219-7.189-7.189l0,0c0-3.972,3.219-7.191,7.189-7.191l0,0C1102.329,552.611,1105.549,555.831,1105.549,559.803
		L1105.549,559.803z"/>
	<path fill="#FFFFFF" stroke="#009FE8" stroke-miterlimit="10" d="M1411.385,559.803c0,3.971-3.22,7.189-7.19,7.189l0,0
		c-3.971,0-7.189-3.219-7.189-7.189l0,0c0-3.972,3.219-7.191,7.189-7.191l0,0C1408.165,552.611,1411.385,555.831,1411.385,559.803
		L1411.385,559.803z"/>
	<path fill="#FFFFFF" stroke="#009FE8" stroke-miterlimit="10" d="M1681.493,559.803c0,3.971-3.22,7.189-7.19,7.189l0,0
		c-3.971,0-7.189-3.219-7.189-7.189l0,0c0-3.972,3.219-7.191,7.189-7.191l0,0C1678.273,552.611,1681.493,555.831,1681.493,559.803
		L1681.493,559.803z"/>
	
		<line fill="none" stroke="#103E61" stroke-width="0.5" stroke-miterlimit="10" stroke-dasharray="2,2,2,2,2,2" x1="129.714" y1="625.857" x2="274.952" y2="625.857"/>
	
		<line fill="none" stroke="#103E61" stroke-width="0.5" stroke-miterlimit="10" stroke-dasharray="2,2,2,2,2,2" x1="321.667" y1="688.667" x2="565.667" y2="688.667"/>
	
		<line fill="none" stroke="#103E61" stroke-width="0.5" stroke-miterlimit="10" stroke-dasharray="2,2,2,2,2,2" x1="321.667" y1="653.758" x2="565.667" y2="653.758"/>
	
		<line fill="none" stroke="#103E61" stroke-width="0.5" stroke-miterlimit="10" stroke-dasharray="2,2,2,2,2,2" x1="957.341" y1="726.334" x2="1239.376" y2="726.334"/>
	
		<line fill="none" stroke="#103E61" stroke-width="0.5" stroke-miterlimit="10" stroke-dasharray="2,2,2,2,2,2" x1="957.341" y1="762.097" x2="1239.376" y2="762.097"/>
	<text transform="matrix(1 0 0 1 646.1528 621.3018)"><tspan x="0" y="0" fill="#E50012" font-family="'MicrosoftYaHei'" font-size="16"> </tspan><tspan x="19.389" y="0" fill="#103E61" font-family="'MicrosoftYaHei'" font-size="16"></tspan><tspan x="0" y="36" fill="#E50012" font-family="'MicrosoftYaHei'" font-size="16"> </tspan><tspan x="19.389" y="36" fill="#103E61" font-family="'MicrosoftYaHei'" font-size="16"></tspan><tspan x="0" y="72" fill="#E50012" font-family="'MicrosoftYaHei'" font-size="16"> </tspan><tspan x="19.389" y="72" fill="#103E61" font-family="'MicrosoftYaHei'" font-size="16"></tspan><tspan x="0" y="108" fill="#E50012" font-family="'MicrosoftYaHei'" font-size="16"> </tspan><tspan x="19.389" y="108" fill="#103E61" font-family="'MicrosoftYaHei'" font-size="16"></tspan><tspan x="-8.4" y="144" fill="#E50012" font-family="'MicrosoftYaHei'" font-size="16"> </tspan><tspan x="10.989" y="144" fill="#103E61" font-family="'MicrosoftYaHei'" font-size="16"></tspan><tspan x="-25.2" y="180" fill="#E50012" font-family="'MicrosoftYaHei'" font-size="16"> </tspan><tspan x="-5.811" y="180" fill="#103E61" font-family="'MicrosoftYaHei'" font-size="16"></tspan><tspan x="0" y="216" fill="#E50012" font-family="'MicrosoftYaHei'" font-size="16"> </tspan><tspan x="19.389" y="216" fill="#103E61" font-family="'MicrosoftYaHei'" font-size="16"></tspan><tspan x="16.8" y="252" fill="#E50012" font-family="'MicrosoftYaHei'" font-size="16"> </tspan><tspan x="36.189" y="252" fill="#103E61" font-family="'MicrosoftYaHei'" font-size="16"></tspan></text>
	
		<line fill="none" stroke="#103E61" stroke-width="0.5" stroke-miterlimit="10" stroke-dasharray="2,2,2,2,2,2" x1="615.631" y1="632.993" x2="897.666" y2="632.993"/>
	
		<line fill="none" stroke="#103E61" stroke-width="0.5" stroke-miterlimit="10" stroke-dasharray="2,2,2,2,2,2" x1="615.631" y1="668.688" x2="897.666" y2="668.688"/>
	
		<line fill="none" stroke="#103E61" stroke-width="0.5" stroke-miterlimit="10" stroke-dasharray="2,2,2,2,2,2" x1="615.631" y1="705.383" x2="897.666" y2="705.383"/>
	
		<line fill="none" stroke="#103E61" stroke-width="0.5" stroke-miterlimit="10" stroke-dasharray="2,2,2,2,2,2" x1="615.631" y1="742.077" x2="897.666" y2="742.077"/>
	
		<line fill="none" stroke="#103E61" stroke-width="0.5" stroke-miterlimit="10" stroke-dasharray="2,2,2,2,2,2" x1="615.631" y1="778.771" x2="897.666" y2="778.771"/>
	
		<line fill="none" stroke="#103E61" stroke-width="0.5" stroke-miterlimit="10" stroke-dasharray="2,2,2,2,2,2" x1="615.631" y1="815.467" x2="897.666" y2="815.467"/>
	
		<line fill="none" stroke="#103E61" stroke-width="0.5" stroke-miterlimit="10" stroke-dasharray="2,2,2,2,2,2" x1="615.631" y1="852.161" x2="897.666" y2="852.161"/>
	
		<line fill="none" stroke="#103E61" stroke-width="0.5" stroke-miterlimit="10" stroke-dasharray="2,2,2,2,2,2" x1="321.667" y1="725.567" x2="565.667" y2="725.567"/>
	
		<line fill="none" stroke="#103E61" stroke-width="0.5" stroke-miterlimit="10" stroke-dasharray="2,2,2,2,2,2" x1="321.667" y1="762.467" x2="565.667" y2="762.467"/>
	
		<line fill="none" stroke="#103E61" stroke-width="0.5" stroke-miterlimit="10" stroke-dasharray="2,2,2,2,2,2" x1="321.667" y1="799.367" x2="565.667" y2="799.367"/>
	
		<line fill="none" stroke="#103E61" stroke-width="0.5" stroke-miterlimit="10" stroke-dasharray="2,2,2,2,2,2" x1="321.667" y1="834.94" x2="565.667" y2="834.94"/>
	
		<line fill="none" stroke="#103E61" stroke-width="0.5" stroke-miterlimit="10" stroke-dasharray="2,2,2,2,2,2" x1="129.714" y1="651.993" x2="274.952" y2="651.993"/>
	
		<line fill="none" stroke="#103E61" stroke-width="0.5" stroke-miterlimit="10" stroke-dasharray="2,2,2,2,2,2" x1="129.714" y1="678.128" x2="274.952" y2="678.128"/>
	
		<line fill="none" stroke="#103E61" stroke-width="0.5" stroke-miterlimit="10" stroke-dasharray="2,2,2,2,2,2" x1="129.714" y1="704.264" x2="274.952" y2="704.264"/>
	
		<line fill="none" stroke="#103E61" stroke-width="0.5" stroke-miterlimit="10" stroke-dasharray="2,2,2,2,2,2" x1="129.714" y1="730.399" x2="274.952" y2="730.399"/>
	
		<line fill="none" stroke="#103E61" stroke-width="0.5" stroke-miterlimit="10" stroke-dasharray="2,2,2,2,2,2" x1="129.714" y1="756.534" x2="274.952" y2="756.534"/>
	
		<line fill="none" stroke="#103E61" stroke-width="0.5" stroke-miterlimit="10" stroke-dasharray="2,2,2,2,2,2" x1="129.714" y1="782.67" x2="274.952" y2="782.67"/>
	
		<line fill="none" stroke="#103E61" stroke-width="0.5" stroke-miterlimit="10" stroke-dasharray="2,2,2,2,2,2" x1="129.714" y1="808.806" x2="274.952" y2="808.806"/>
	
		<line fill="none" stroke="#103E61" stroke-width="0.5" stroke-miterlimit="10" stroke-dasharray="2,2,2,2,2,2" x1="129.714" y1="834.94" x2="274.952" y2="834.94"/>
	
		<line fill="none" stroke="#103E61" stroke-width="0.5" stroke-miterlimit="10" stroke-dasharray="2,2,2,2,2,2" x1="129.714" y1="861.076" x2="274.952" y2="861.076"/>
	<text transform="matrix(1 0 0 1 177.5337 619.3018)"><tspan x="0" y="0" fill="#103E61" font-family="'MicrosoftYaHei'" font-size="16"></tspan><tspan x="0" y="26" fill="#103E61" font-family="'MicrosoftYaHei'" font-size="16"></tspan><tspan x="-16.8" y="52" fill="#103E61" font-family="'MicrosoftYaHei'" font-size="16"></tspan><tspan x="-16.8" y="78" fill="#103E61" font-family="'MicrosoftYaHei'" font-size="16"></tspan><tspan x="-16.8" y="104" fill="#103E61" font-family="'MicrosoftYaHei'" font-size="16"></tspan><tspan x="-16.8" y="130" fill="#103E61" font-family="'MicrosoftYaHei'" font-size="16"></tspan><tspan x="-33.6" y="156" fill="#103E61" font-family="'MicrosoftYaHei'" font-size="16"></tspan><tspan x="-16.8" y="182" fill="#103E61" font-family="'MicrosoftYaHei'" font-size="16"></tspan><tspan x="-16.8" y="208" fill="#103E61" font-family="'MicrosoftYaHei'" font-size="16"></tspan><tspan x="-50.4" y="234" fill="#103E61" font-family="'MicrosoftYaHei'" font-size="16"></tspan><tspan x="-16.8" y="260" fill="#103E61" font-family="'MicrosoftYaHei'" font-size="16"></tspan></text>
	<text transform="matrix(1 0 0 1 357.4375 641.3018)"><tspan x="0" y="0" fill="#E50012" font-family="'MicrosoftYaHei'" font-size="16"> </tspan><tspan x="19.389" y="0" fill="#103E61" font-family="'MicrosoftYaHei'" font-size="16"></tspan><tspan x="-33.6" y="36" fill="#E50012" font-family="'MicrosoftYaHei'" font-size="16"> </tspan><tspan x="-14.211" y="36" fill="#103E61" font-family="'MicrosoftYaHei'" font-size="16"></tspan><tspan x="-8.4" y="72" fill="#E50012" font-family="'MicrosoftYaHei'" font-size="16"> </tspan><tspan x="10.989" y="72" fill="#103E61" font-family="'MicrosoftYaHei'" font-size="16"></tspan><tspan x="-16.8" y="108" fill="#E50012" font-family="'MicrosoftYaHei'" font-size="16"> </tspan><tspan x="2.589" y="108" fill="#103E61" font-family="'MicrosoftYaHei'" font-size="16"></tspan><tspan x="-15.505" y="144" fill="#103E61" font-family="'MicrosoftYaHei'" font-size="16"></tspan><tspan x="-23.905" y="180" fill="#103E61" font-family="'MicrosoftYaHei'" font-size="16"></tspan><tspan x="-15.505" y="216" fill="#103E61" font-family="'MicrosoftYaHei'" font-size="16"></tspan></text>
</g>
<g id="twoline">
	<text transform="matrix(1 0 0 1 1318.8984 731.3018)"><tspan x="0" y="0" fill="#E50012" font-family="'MicrosoftYaHei'" font-size="16"> </tspan><tspan x="19.389" y="0" fill="#103E61" font-family="'MicrosoftYaHei'" font-size="16"></tspan><tspan x="26.494" y="36" fill="#103E61" font-family="'MicrosoftYaHei'" font-size="16"></tspan></text>
</g>
</svg>
